<svg viewBox="0 0 330.0000305175781 200.00001525878906" xmlns="http://www.w3.org/2000/svg"><g><g><g><g><g><line x1="63.984375" y1="177" x2="58.984375" y2="177" style="visibility: inherit;" fill="rgb(0, 0, 0)" stroke="rgb(204, 204, 204)" stroke-width="1px"></line><line x1="63.984375" y1="160.90909090909088" x2="58.984375" y2="160.90909090909088" style="visibility: inherit;" fill="rgb(0, 0, 0)" stroke="rgb(204, 204, 204)" stroke-width="1px"></line><line x1="63.984375" y1="144.81818181818176" x2="58.984375" y2="144.81818181818176" style="visibility: inherit;" fill="rgb(0, 0, 0)" stroke="rgb(204, 204, 204)" stroke-width="1px"></line><line x1="63.984375" y1="128.72727272727263" x2="58.984375" y2="128.72727272727263" style="visibility: inherit;" fill="rgb(0, 0, 0)" stroke="rgb(204, 204, 204)" stroke-width="1px"></line><line x1="63.984375" y1="112.63636363636351" x2="58.984375" y2="112.63636363636351" style="visibility: inherit;" fill="rgb(0, 0, 0)" stroke="rgb(204, 204, 204)" stroke-width="1px"></line><line x1="63.984375" y1="96.54545454545438" x2="58.984375" y2="96.54545454545438" style="visibility: inherit;" fill="rgb(0, 0, 0)" stroke="rgb(204, 204, 204)" stroke-width="1px"></line><line x1="63.984375" y1="80.45454545454527" x2="58.984375" y2="80.45454545454527" style="visibility: inherit;" fill="rgb(0, 0, 0)" stroke="rgb(204, 204, 204)" stroke-width="1px"></line><line x1="63.984375" y1="64.36363636363613" x2="58.984375" y2="64.36363636363613" style="visibility: inherit;" fill="rgb(0, 0, 0)" stroke="rgb(204, 204, 204)" stroke-width="1px"></line><line x1="63.984375" y1="48.272727272727025" x2="58.984375" y2="48.272727272727025" style="visibility: inherit;" fill="rgb(0, 0, 0)" stroke="rgb(204, 204, 204)" stroke-width="1px"></line><line x1="63.984375" y1="32.1818181818179" x2="58.984375" y2="32.1818181818179" style="visibility: inherit;" fill="rgb(0, 0, 0)" stroke="rgb(204, 204, 204)" stroke-width="1px"></line><line x1="63.984375" y1="16.090909090909122" x2="58.984375" y2="16.090909090909122" style="visibility: inherit;" fill="rgb(0, 0, 0)" stroke="rgb(204, 204, 204)" stroke-width="1px"></line><line x1="63.984375" y1="0" x2="58.984375" y2="0" style="visibility: inherit;" fill="rgb(0, 0, 0)" stroke="rgb(204, 204, 204)" stroke-width="1px"></line></g><g transform="translate(53.984375, 0)"><text x="0" y="177" dx="0em" dy="0.3em" style="text-anchor: end; visibility: hidden; font-family: &quot;Helvetica Neue&quot;, sans-serif; font-size: 13.3333px; font-weight: 200;" fill="rgb(50, 49, 63)" stroke="none" stroke-width="1px">0.89</text><text x="0" y="160.90909090909088" dx="0em" dy="0.3em" style="text-anchor: end; visibility: inherit; font-family: &quot;Helvetica Neue&quot;, sans-serif; font-size: 13.3333px; font-weight: 200;" fill="rgb(50, 49, 63)" stroke="none" stroke-width="1px">0.895</text><text x="0" y="144.81818181818176" dx="0em" dy="0.3em" style="text-anchor: end; visibility: hidden; font-family: &quot;Helvetica Neue&quot;, sans-serif; font-size: 13.3333px; font-weight: 200;" fill="rgb(50, 49, 63)" stroke="none" stroke-width="1px">0.9</text><text x="0" y="128.72727272727263" dx="0em" dy="0.3em" style="text-anchor: end; visibility: inherit; font-family: &quot;Helvetica Neue&quot;, sans-serif; font-size: 13.3333px; font-weight: 200;" fill="rgb(50, 49, 63)" stroke="none" stroke-width="1px">0.905</text><text x="0" y="112.63636363636351" dx="0em" dy="0.3em" style="text-anchor: end; visibility: hidden; font-family: &quot;Helvetica Neue&quot;, sans-serif; font-size: 13.3333px; font-weight: 200;" fill="rgb(50, 49, 63)" stroke="none" stroke-width="1px">0.91</text><text x="0" y="96.54545454545438" dx="0em" dy="0.3em" style="text-anchor: end; visibility: inherit; font-family: &quot;Helvetica Neue&quot;, sans-serif; font-size: 13.3333px; font-weight: 200;" fill="rgb(50, 49, 63)" stroke="none" stroke-width="1px">0.915</text><text x="0" y="80.45454545454527" dx="0em" dy="0.3em" style="text-anchor: end; visibility: hidden; font-family: &quot;Helvetica Neue&quot;, sans-serif; font-size: 13.3333px; font-weight: 200;" fill="rgb(50, 49, 63)" stroke="none" stroke-width="1px">0.92</text><text x="0" y="64.36363636363613" dx="0em" dy="0.3em" style="text-anchor: end; visibility: inherit; font-family: &quot;Helvetica Neue&quot;, sans-serif; font-size: 13.3333px; font-weight: 200;" fill="rgb(50, 49, 63)" stroke="none" stroke-width="1px">0.925</text><text x="0" y="48.272727272727025" dx="0em" dy="0.3em" style="text-anchor: end; visibility: hidden; font-family: &quot;Helvetica Neue&quot;, sans-serif; font-size: 13.3333px; font-weight: 200;" fill="rgb(50, 49, 63)" stroke="none" stroke-width="1px">0.93</text><text x="0" y="32.1818181818179" dx="0em" dy="0.3em" style="text-anchor: end; visibility: inherit; font-family: &quot;Helvetica Neue&quot;, sans-serif; font-size: 13.3333px; font-weight: 200;" fill="rgb(50, 49, 63)" stroke="none" stroke-width="1px">0.935</text><text x="0" y="16.090909090909122" dx="0em" dy="0.3em" style="text-anchor: end; visibility: hidden; font-family: &quot;Helvetica Neue&quot;, sans-serif; font-size: 13.3333px; font-weight: 200;" fill="rgb(50, 49, 63)" stroke="none" stroke-width="1px">0.94</text><text x="0" y="0" dx="0em" dy="0.3em" style="text-anchor: end; visibility: hidden; font-family: &quot;Helvetica Neue&quot;, sans-serif; font-size: 13.3333px; font-weight: 200;" fill="rgb(50, 49, 63)" stroke="none" stroke-width="1px">0.945</text></g><line x1="63.984375" y1="0" x2="63.984375" y2="177" fill="rgb(0, 0, 0)" stroke="rgb(204, 204, 204)" stroke-width="1px"></line></g></g><g transform="translate(63, 0)" clip-path="url(#clip_0)"><clipPath id="clip_0"><rect width="266" height="176"></rect></clipPath><g><g><g><line x1="0" y1="0" x2="0" y2="177" fill="rgb(0, 0, 0)" stroke="rgb(60, 60, 60)" stroke-width="1px" opacity="0.25"></line><line x1="22.16796875" y1="0" x2="22.16796875" y2="177" fill="rgb(0, 0, 0)" stroke="rgb(60, 60, 60)" stroke-width="1px" opacity="0.25"></line><line x1="44.3359375" y1="0" x2="44.3359375" y2="177" fill="rgb(0, 0, 0)" stroke="rgb(60, 60, 60)" stroke-width="1px" opacity="0.25"></line><line x1="66.50390625" y1="0" x2="66.50390625" y2="177" fill="rgb(0, 0, 0)" stroke="rgb(60, 60, 60)" stroke-width="1px" opacity="0.25"></line><line x1="88.671875" y1="0" x2="88.671875" y2="177" fill="rgb(0, 0, 0)" stroke="rgb(60, 60, 60)" stroke-width="1px" opacity="0.25"></line><line x1="110.83984375" y1="0" x2="110.83984375" y2="177" fill="rgb(0, 0, 0)" stroke="rgb(60, 60, 60)" stroke-width="1px" opacity="0.25"></line><line x1="133.0078125" y1="0" x2="133.0078125" y2="177" fill="rgb(0, 0, 0)" stroke="rgb(60, 60, 60)" stroke-width="1px" opacity="0.25"></line><line x1="155.17578125" y1="0" x2="155.17578125" y2="177" fill="rgb(0, 0, 0)" stroke="rgb(60, 60, 60)" stroke-width="1px" opacity="0.25"></line><line x1="177.34375" y1="0" x2="177.34375" y2="177" fill="rgb(0, 0, 0)" stroke="rgb(60, 60, 60)" stroke-width="1px" opacity="0.25"></line><line x1="199.51171875" y1="0" x2="199.51171875" y2="177" fill="rgb(0, 0, 0)" stroke="rgb(60, 60, 60)" stroke-width="1px" opacity="0.25"></line><line x1="221.6796875" y1="0" x2="221.6796875" y2="177" fill="rgb(0, 0, 0)" stroke="rgb(60, 60, 60)" stroke-width="1px" opacity="0.25"></line><line x1="243.84765625" y1="0" x2="243.84765625" y2="177" fill="rgb(0, 0, 0)" stroke="rgb(60, 60, 60)" stroke-width="1px" opacity="0.25"></line><line x1="266.015625" y1="0" x2="266.015625" y2="177" fill="rgb(0, 0, 0)" stroke="rgb(60, 60, 60)" stroke-width="1px" opacity="0.25"></line></g><g><line x1="0" y1="177" x2="266.015625" y2="177" fill="rgb(0, 0, 0)" stroke="rgb(60, 60, 60)" stroke-width="1px" opacity="0.25"></line><line x1="0" y1="160.90909090909088" x2="266.015625" y2="160.90909090909088" fill="rgb(0, 0, 0)" stroke="rgb(60, 60, 60)" stroke-width="1px" opacity="0.25"></line><line x1="0" y1="144.81818181818176" x2="266.015625" y2="144.81818181818176" fill="rgb(0, 0, 0)" stroke="rgb(60, 60, 60)" stroke-width="1px" opacity="0.25"></line><line x1="0" y1="128.72727272727263" x2="266.015625" y2="128.72727272727263" fill="rgb(0, 0, 0)" stroke="rgb(60, 60, 60)" stroke-width="1px" opacity="0.25"></line><line x1="0" y1="112.63636363636351" x2="266.015625" y2="112.63636363636351" fill="rgb(0, 0, 0)" stroke="rgb(60, 60, 60)" stroke-width="1px" opacity="0.25"></line><line x1="0" y1="96.54545454545438" x2="266.015625" y2="96.54545454545438" fill="rgb(0, 0, 0)" stroke="rgb(60, 60, 60)" stroke-width="1px" opacity="0.25"></line><line x1="0" y1="80.45454545454527" x2="266.015625" y2="80.45454545454527" fill="rgb(0, 0, 0)" stroke="rgb(60, 60, 60)" stroke-width="1px" opacity="0.25"></line><line x1="0" y1="64.36363636363613" x2="266.015625" y2="64.36363636363613" fill="rgb(0, 0, 0)" stroke="rgb(60, 60, 60)" stroke-width="1px" opacity="0.25"></line><line x1="0" y1="48.272727272727025" x2="266.015625" y2="48.272727272727025" fill="rgb(0, 0, 0)" stroke="rgb(60, 60, 60)" stroke-width="1px" opacity="0.25"></line><line x1="0" y1="32.1818181818179" x2="266.015625" y2="32.1818181818179" fill="rgb(0, 0, 0)" stroke="rgb(60, 60, 60)" stroke-width="1px" opacity="0.25"></line><line x1="0" y1="16.090909090909122" x2="266.015625" y2="16.090909090909122" fill="rgb(0, 0, 0)" stroke="rgb(60, 60, 60)" stroke-width="1px" opacity="0.25"></line><line x1="0" y1="0" x2="266.015625" y2="0" fill="rgb(0, 0, 0)" stroke="rgb(60, 60, 60)" stroke-width="1px" opacity="0.25"></line></g></g></g><g><g><line x1="0" y1="3041.1818181818217" x2="266.015625" y2="3041.1818181818217" fill="rgb(0, 0, 0)" stroke="rgb(153, 153, 153)" stroke-width="1.5px"></line></g></g><g><g><line x1="22.16796875" y1="0" x2="22.16796875" y2="177" fill="rgb(0, 0, 0)" stroke="rgb(153, 153, 153)" stroke-width="1.5px"></line></g></g><g><g><g><g><g><path stroke="rgb(255, 112, 67)" stroke-width="2px" d="M22.16796875,140.52190589904785L24.384765625,87.18589963348825L26.6015625,65.19139972769017L28.818359375,56.99066336550423L31.03515625,52.14047663344175L33.251953125,47.61858102182347L35.46875,40.79580303474461L37.685546875,41.085174461089025L39.90234375,36.86809011965542L42.119140625,36.80968962951479L44.3359375,37.71316355176501L46.552734375,36.61861062211614L48.76953125,36.26835983690245L50.986328125,36.20360728556838L53.203125,37.70603984061941L55.419921875,35.20032014076216L57.63671875,35.57962691952994L59.853515625,40.79798892969953L62.0703125,36.46017616083657L64.287109375,41.14053470854941L66.50390625,40.563758800921704L68.720703125,43.6733815891854L70.9375,42.25065345687554L73.154296875,42.59442319617784L75.37109375,41.036117119400245L77.587890625,37.68383022412286L79.8046875,34.62762903987365L82.021484375,33.92039409712689L84.23828125,31.99043127212147L86.455078125,33.178724721824125L88.671875,33.06879828053343L90.888671875,32.762702500526416L93.10546875,36.22177403920173L95.322265625,34.342494969901765L97.5390625,37.720786169694065L99.755859375,33.4814628212998L101.97265625,35.08316492154077L104.189453125,37.491513867745056L106.40625,36.85499637670799L108.623046875,33.84705088253287L110.83984375,37.40961408188909L113.056640625,36.474052338758156L115.2734375,37.593615604957904L117.490234375,35.871959594587L119.70703125,36.80370863554549L121.923828125,38.80274484820842L124.140625,39.4072058407414L126.357421875,39.36216651651503L128.57421875,42.296714122439255L130.791015625,41.81718885189727L133.0078125,36.37348220569365L135.224609375,44.530337145681926L137.44140625,40.35399866526089L139.658203125,43.5173938108002L141.875,40.036140176095074L144.091796875,40.37987460540617L146.30859375,41.2666427754221L148.525390625,37.13034968634176L150.7421875,39.92673515213235L152.958984375,40.90670363012765L155.17578125,38.81220534999878L157.392578125,37.35392889384866L159.609375,31.13107262181245L161.826171875,32.49697520515463L164.04296875,32.915430599210595L166.259765625,31.656877227599097L168.4765625,30.825600155863043L170.693359375,32.3180597196764L172.91015625,37.088054803114744L175.126953125,40.03358345592707L177.34375,42.08948516924602L179.560546875,38.75137020441446L181.77734375,39.62736804958075L183.994140625,36.78413251695136L186.2109375,33.59885295500274L188.427734375,32.56932456838257L190.64453125,34.92018613547717L192.861328125,35.319714567917316L195.078125,31.26696692486732L197.294921875,33.65246578309046L199.51171875,30.683568031266134L201.728515625,32.55053490692461L22.16796875,45.11947296460315L24.384765625,48.353922678235364L26.6015625,45.02731284190645L28.818359375,44.59162030454877L31.03515625,44.12134748540393L33.251953125,41.66056373299975L35.46875,44.27202628697475L37.685546875,43.692790053602266L39.90234375,39.26008888312552L42.119140625,37.91877841061577L44.3359375,36.575366475120745L46.552734375,35.30182674599547L48.76953125,38.93484834190815L50.986328125,43.04270807287543L53.203125,41.65019777162465L55.419921875,40.85360213741458L57.63671875,41.48337753643625L59.853515625,39.15354950734155L62.0703125,39.94708490667588L64.287109375,39.244031556817134L66.50390625,37.90207373675153L68.720703125,39.177377578335324L70.9375,34.309232327784144L73.154296875,33.39110440371482L75.37109375,30.856930985326613L77.587890625,37.61824843197874L79.8046875,39.90497614306133L82.021484375,43.95127034073465L84.23828125,44.313779783003895L86.455078125,42.77879971456514L88.671875,45.42853726515196L90.888671875,41.72353456573606L93.10546875,42.20324259377267L95.322265625,42.395620908737754L97.5390625,40.05951625696406L99.755859375,39.355825325666956L101.97265625,40.3468860390669L104.189453125,38.68603808231572L106.40625,40.05382858451097L108.623046875,36.069209219730055L110.83984375,33.309753562338784L113.056640625,42.3224623107063L115.2734375,36.85156810183264L117.490234375,34.736714613846516L119.70703125,34.35988398010676L121.923828125,36.58128539851492L124.140625,38.341210591931656L126.357421875,38.52967385870116L128.57421875,32.61124136183349L130.791015625,35.427966666507444L133.0078125,31.926219906946784L135.224609375,32.20534642673496L137.44140625,33.66748181555906L139.658203125,35.34211824826485L141.875,36.43582693376456L144.091796875,40.218033801005305L146.30859375,36.80500800780712L148.525390625,38.42756610936809L150.7421875,34.97441042507094L152.958984375,33.138787236683584L155.17578125,32.98785259358863L157.392578125,37.4873820024423L159.609375,42.53641067451326L161.826171875,39.19156751363667L164.04296875,33.53105343960408L166.259765625,39.505040560450794L168.4765625,39.31705258317464L170.693359375,38.8199577539732L172.91015625,35.78301737849242L175.126953125,34.86902788206544L177.34375,34.04764292051112L179.560546875,36.39322851393857L181.77734375,37.80650830916099L183.994140625,36.44059071160811L186.2109375,36.79398479580831L188.427734375,35.278549136945344L190.64453125,40.685271819649074L192.861328125,37.884937373566856L195.078125,38.27917977002002L197.294921875,35.7791823455338L199.51171875,36.528956219210016L201.728515625,33.58441405589673L203.9453125,35.465105394219535L206.162109375,41.83384859220786L208.37890625,40.19194345695851L210.595703125,39.21724743953868L212.8125,41.40500773577136L215.029296875,44.438091321623716L217.24609375,39.70487273767128L219.462890625,42.82718729328346L221.6796875,39.63303581567649L223.896484375,38.87859348750396L226.11328125,31.145648725233286L228.330078125,32.97977656043591L230.546875,35.45786832875433L232.763671875,34.781771530428216L234.98046875,35.90751935203167L237.197265625,38.53962553798175L239.4140625,39.252158767088645L241.630859375,39.82466375897195" style="fill: none;" fill="none"></path></g></g></g></g><g opacity="0.2"><g><g><g><path stroke="rgb(255, 112, 67)" stroke-width="2px" d="M22.16796875,140.52190589904785L24.384765625,51.3441034230318L26.6015625,40.478731545534885L28.818359375,45.28781526738936L31.03515625,44.22993577610353L33.251953125,39.62379611622191L35.46875,28.104706504128075L37.685546875,41.64134398373679L39.90234375,28.587513880296058L42.119140625,36.69338360699729L44.3359375,39.529421372847025L46.552734375,34.40441244298748L48.76953125,35.556858496232365L50.986328125,36.07169957594428L53.203125,40.77240579778487L55.419921875,30.07986246455789L57.63671875,36.355399261821276L59.853515625,51.47684188322579L62.0703125,27.5798908580432L64.287109375,50.724529396403824L66.50390625,39.382488337429976L68.720703125,50.04280614852895L70.9375,39.33626005866299L73.154296875,43.2986565503206L75.37109375,37.8437196558171L77.587890625,30.81606219031582L79.8046875,28.36634705283413L82.021484375,32.47145657105867L84.23828125,28.036419088190115L86.455078125,35.61325315995637L88.671875,32.84358462420366L90.888671875,32.135582230307705L93.10546875,43.30863111669356L95.322265625,30.492272420362866L97.5390625,44.64215391332442L99.755859375,24.7960277470674L101.97265625,38.36469893022007L104.189453125,42.42569017410267L106.40625,35.55091212012539L108.623046875,27.68443198637516L110.83984375,44.70852314342142L113.056640625,34.557291854511504L115.2734375,39.88735485076893L117.490234375,32.34466448697165L119.70703125,38.712657841769015L121.923828125,42.89833116531361L124.140625,40.645613713697855L126.357421875,39.26989082856602L128.57421875,48.308957966891086L130.791015625,40.83474683761585L133.0078125,25.22052227367041L135.224609375,61.241942362351764L137.44140625,31.797597885131722L139.658203125,49.99849605560293L141.875,32.90381565960959L144.091796875,41.08411099693981L146.30859375,43.08343609896562L148.525390625,28.655993114818102L150.7421875,45.65591513026834L152.958984375,42.91444392637763L155.17578125,34.521038142117476L157.392578125,34.366240544752515L159.609375,18.381806113503075L161.826171875,35.295409766110396L164.04296875,33.77275384556151L166.259765625,29.078377636996066L168.4765625,29.122495911337978L170.693359375,35.375781752846336L172.91015625,46.86072765697122L175.126953125,46.068325086073344L177.34375,46.30157648433328L179.560546875,31.912305398420727L181.77734375,41.422095342115824L183.994140625,30.958967035466856L186.2109375,27.072914340279198L188.427734375,30.46004689823485L190.64453125,39.73658544366998L192.861328125,36.13826062462533L195.078125,22.963776631788647L197.294921875,38.539829297499125L199.51171875,24.600948247042453L201.728515625,36.37554021315131L22.16796875,70.87046800960186L24.384765625,54.980600140311395L26.6015625,38.211819518696075L28.818359375,43.698981935327595L31.03515625,43.15786170959461L33.251953125,36.618957996368295L35.46875,49.62233981219195L37.685546875,42.50606216083864L39.90234375,30.178457216782874L42.119140625,35.17072768644843L44.3359375,33.82301031459451L46.552734375,32.692623398520595L48.76953125,46.37811209938732L50.986328125,51.458810936320816L53.203125,38.79724983735508L55.419921875,39.22155254537398L57.63671875,42.77364908565164L59.853515625,34.38024330139149L62.0703125,41.572864749214745L64.287109375,37.80362957174117L66.50390625,35.152696739543444L68.720703125,41.790195204994774L70.9375,24.33547132665447L73.154296875,31.510061827572798L75.37109375,25.664965933019346L77.587890625,51.470703688534726L79.8046875,44.589979258450484L82.021484375,52.24123894084573L84.23828125,45.05648205497036L86.455078125,39.633962501178985L88.671875,50.8572678565978L90.888671875,34.13279732790849L93.10546875,43.186059041456645L95.322265625,42.789761846715635L97.5390625,35.273350628939426L99.755859375,37.91411707618008L101.97265625,42.37735189091066L104.189453125,35.283325195312386L106.40625,42.85613107681263L108.623046875,27.905598813837088L110.83984375,27.656234654513156L113.056640625,60.787524136629884L115.2734375,25.642906795848376L117.490234375,30.4038440530949L119.70703125,33.58784073049358L121.923828125,41.13244928013182L124.140625,41.9469109882007L126.357421875,38.915793722325986L128.57421875,20.48567234386084L130.791015625,41.19881851022882L133.0078125,24.751909472725487L135.224609375,32.77721539410666L137.44140625,36.663076270710235L139.658203125,38.77308069575906L141.875,38.67659594795907L144.091796875,47.96694543144909L146.30859375,29.812467358328945L148.525390625,41.751831488175725L150.7421875,27.89965243773014L152.958984375,29.377998265353L155.17578125,32.67862064188165L157.392578125,46.70593005960626L159.609375,52.88076210021963L161.826171875,32.338718110864676L164.04296875,21.933902653780734L166.259765625,51.744428808038776L168.4765625,38.93190648338998L170.693359375,37.80151956731612L172.91015625,29.560993194579964L175.126953125,32.99646403572763L177.34375,32.36480543830166L179.560546875,41.19881851022882L181.77734375,40.70200837742186L183.994140625,33.64212538979257L186.2109375,37.51801170002318L188.427734375,32.1737541285427L190.64453125,51.76245975494375L192.861328125,32.14766680110574L195.078125,39.086895899339055L197.294921875,30.657236402684873L199.51171875,38.06507830186314L201.728515625,27.551693526181168L203.9453125,39.31822911175803L206.162109375,54.8820053880864L208.37890625,36.82804025303221L210.595703125,37.22030925750721L212.8125,45.887248342687315L215.029296875,50.65221379019988L217.24609375,30.00754685835392L219.462890625,49.22412443161001L221.6796875,33.088920593261605L223.896484375,37.332906766371195L226.11328125,15.302542383020437L228.330078125,36.7375018813392L230.546875,40.534934390674835L232.763671875,33.396597602150536L234.98046875,38.213929523121124L237.197265625,43.93223333358756L239.4140625,40.71198294379482L241.630859375,40.99760081551281" style="fill: none;" fill="none"></path></g></g></g></g></g></g><g transform="translate(63, 177)" clip-path="url(#clip_1)"><clipPath id="clip_1"><rect width="266" height="22"></rect></clipPath><g><g><line x1="0" y1="0" x2="0" y2="5" style="visibility: inherit;" fill="rgb(0, 0, 0)" stroke="rgb(204, 204, 204)" stroke-width="1px"></line><line x1="22.16796875" y1="0" x2="22.16796875" y2="5" style="visibility: inherit;" fill="rgb(0, 0, 0)" stroke="rgb(204, 204, 204)" stroke-width="1px"></line><line x1="44.3359375" y1="0" x2="44.3359375" y2="5" style="visibility: inherit;" fill="rgb(0, 0, 0)" stroke="rgb(204, 204, 204)" stroke-width="1px"></line><line x1="66.50390625" y1="0" x2="66.50390625" y2="5" style="visibility: inherit;" fill="rgb(0, 0, 0)" stroke="rgb(204, 204, 204)" stroke-width="1px"></line><line x1="88.671875" y1="0" x2="88.671875" y2="5" style="visibility: inherit;" fill="rgb(0, 0, 0)" stroke="rgb(204, 204, 204)" stroke-width="1px"></line><line x1="110.83984375" y1="0" x2="110.83984375" y2="5" style="visibility: inherit;" fill="rgb(0, 0, 0)" stroke="rgb(204, 204, 204)" stroke-width="1px"></line><line x1="133.0078125" y1="0" x2="133.0078125" y2="5" style="visibility: inherit;" fill="rgb(0, 0, 0)" stroke="rgb(204, 204, 204)" stroke-width="1px"></line><line x1="155.17578125" y1="0" x2="155.17578125" y2="5" style="visibility: inherit;" fill="rgb(0, 0, 0)" stroke="rgb(204, 204, 204)" stroke-width="1px"></line><line x1="177.34375" y1="0" x2="177.34375" y2="5" style="visibility: inherit;" fill="rgb(0, 0, 0)" stroke="rgb(204, 204, 204)" stroke-width="1px"></line><line x1="199.51171875" y1="0" x2="199.51171875" y2="5" style="visibility: inherit;" fill="rgb(0, 0, 0)" stroke="rgb(204, 204, 204)" stroke-width="1px"></line><line x1="221.6796875" y1="0" x2="221.6796875" y2="5" style="visibility: inherit;" fill="rgb(0, 0, 0)" stroke="rgb(204, 204, 204)" stroke-width="1px"></line><line x1="243.84765625" y1="0" x2="243.84765625" y2="5" style="visibility: inherit;" fill="rgb(0, 0, 0)" stroke="rgb(204, 204, 204)" stroke-width="1px"></line><line x1="266.015625" y1="0" x2="266.015625" y2="5" style="visibility: inherit;" fill="rgb(0, 0, 0)" stroke="rgb(204, 204, 204)" stroke-width="1px"></line></g><g transform="translate(0, 8)"><text x="0" y="0" dx="0em" dy="0.95em" style="text-anchor: middle; visibility: hidden; font-family: &quot;Helvetica Neue&quot;, sans-serif; font-size: 13.3333px; font-weight: 200;" fill="rgb(50, 49, 63)" stroke="none" stroke-width="1px">-10</text><text x="22.16796875" y="0" dx="0em" dy="0.95em" style="text-anchor: middle; visibility: inherit; font-family: &quot;Helvetica Neue&quot;, sans-serif; font-size: 13.3333px; font-weight: 200;" fill="rgb(50, 49, 63)" stroke="none" stroke-width="1px">0</text><text x="44.3359375" y="0" dx="0em" dy="0.95em" style="text-anchor: middle; visibility: inherit; font-family: &quot;Helvetica Neue&quot;, sans-serif; font-size: 13.3333px; font-weight: 200;" fill="rgb(50, 49, 63)" stroke="none" stroke-width="1px">10</text><text x="66.50390625" y="0" dx="0em" dy="0.95em" style="text-anchor: middle; visibility: inherit; font-family: &quot;Helvetica Neue&quot;, sans-serif; font-size: 13.3333px; font-weight: 200;" fill="rgb(50, 49, 63)" stroke="none" stroke-width="1px">20</text><text x="88.671875" y="0" dx="0em" dy="0.95em" style="text-anchor: middle; visibility: inherit; font-family: &quot;Helvetica Neue&quot;, sans-serif; font-size: 13.3333px; font-weight: 200;" fill="rgb(50, 49, 63)" stroke="none" stroke-width="1px">30</text><text x="110.83984375" y="0" dx="0em" dy="0.95em" style="text-anchor: middle; visibility: inherit; font-family: &quot;Helvetica Neue&quot;, sans-serif; font-size: 13.3333px; font-weight: 200;" fill="rgb(50, 49, 63)" stroke="none" stroke-width="1px">40</text><text x="133.0078125" y="0" dx="0em" dy="0.95em" style="text-anchor: middle; visibility: inherit; font-family: &quot;Helvetica Neue&quot;, sans-serif; font-size: 13.3333px; font-weight: 200;" fill="rgb(50, 49, 63)" stroke="none" stroke-width="1px">50</text><text x="155.17578125" y="0" dx="0em" dy="0.95em" style="text-anchor: middle; visibility: inherit; font-family: &quot;Helvetica Neue&quot;, sans-serif; font-size: 13.3333px; font-weight: 200;" fill="rgb(50, 49, 63)" stroke="none" stroke-width="1px">60</text><text x="177.34375" y="0" dx="0em" dy="0.95em" style="text-anchor: middle; visibility: inherit; font-family: &quot;Helvetica Neue&quot;, sans-serif; font-size: 13.3333px; font-weight: 200;" fill="rgb(50, 49, 63)" stroke="none" stroke-width="1px">70</text><text x="199.51171875" y="0" dx="0em" dy="0.95em" style="text-anchor: middle; visibility: inherit; font-family: &quot;Helvetica Neue&quot;, sans-serif; font-size: 13.3333px; font-weight: 200;" fill="rgb(50, 49, 63)" stroke="none" stroke-width="1px">80</text><text x="221.6796875" y="0" dx="0em" dy="0.95em" style="text-anchor: middle; visibility: inherit; font-family: &quot;Helvetica Neue&quot;, sans-serif; font-size: 13.3333px; font-weight: 200;" fill="rgb(50, 49, 63)" stroke="none" stroke-width="1px">90</text><text x="243.84765625" y="0" dx="0em" dy="0.95em" style="text-anchor: middle; visibility: inherit; font-family: &quot;Helvetica Neue&quot;, sans-serif; font-size: 13.3333px; font-weight: 200;" fill="rgb(50, 49, 63)" stroke="none" stroke-width="1px">100</text><text x="266.015625" y="0" dx="0em" dy="0.95em" style="text-anchor: middle; visibility: hidden; font-family: &quot;Helvetica Neue&quot;, sans-serif; font-size: 13.3333px; font-weight: 200;" fill="rgb(50, 49, 63)" stroke="none" stroke-width="1px">110</text></g><line x1="0" y1="0" x2="266.015625" y2="0" fill="rgb(0, 0, 0)" stroke="rgb(204, 204, 204)" stroke-width="1px"></line></g></g></g></g></svg>