<svg viewBox="0 0 330.0000305175781 200.00001525878906" xmlns="http://www.w3.org/2000/svg"><g><g><g><g><g><line x1="53.1875" y1="165.20000000000002" x2="48.1875" y2="165.20000000000002" style="visibility: inherit;" fill="rgb(0, 0, 0)" stroke="rgb(204, 204, 204)" stroke-width="1px"></line><line x1="53.1875" y1="153.4" x2="48.1875" y2="153.4" style="visibility: inherit;" fill="rgb(0, 0, 0)" stroke="rgb(204, 204, 204)" stroke-width="1px"></line><line x1="53.1875" y1="141.6" x2="48.1875" y2="141.6" style="visibility: inherit;" fill="rgb(0, 0, 0)" stroke="rgb(204, 204, 204)" stroke-width="1px"></line><line x1="53.1875" y1="129.8" x2="48.1875" y2="129.8" style="visibility: inherit;" fill="rgb(0, 0, 0)" stroke="rgb(204, 204, 204)" stroke-width="1px"></line><line x1="53.1875" y1="118.00000000000001" x2="48.1875" y2="118.00000000000001" style="visibility: inherit;" fill="rgb(0, 0, 0)" stroke="rgb(204, 204, 204)" stroke-width="1px"></line><line x1="53.1875" y1="106.2" x2="48.1875" y2="106.2" style="visibility: inherit;" fill="rgb(0, 0, 0)" stroke="rgb(204, 204, 204)" stroke-width="1px"></line><line x1="53.1875" y1="94.39999999999999" x2="48.1875" y2="94.39999999999999" style="visibility: inherit;" fill="rgb(0, 0, 0)" stroke="rgb(204, 204, 204)" stroke-width="1px"></line><line x1="53.1875" y1="82.6" x2="48.1875" y2="82.6" style="visibility: inherit;" fill="rgb(0, 0, 0)" stroke="rgb(204, 204, 204)" stroke-width="1px"></line><line x1="53.1875" y1="70.8" x2="48.1875" y2="70.8" style="visibility: inherit;" fill="rgb(0, 0, 0)" stroke="rgb(204, 204, 204)" stroke-width="1px"></line><line x1="53.1875" y1="58.999999999999986" x2="48.1875" y2="58.999999999999986" style="visibility: inherit;" fill="rgb(0, 0, 0)" stroke="rgb(204, 204, 204)" stroke-width="1px"></line><line x1="53.1875" y1="47.20000000000002" x2="48.1875" y2="47.20000000000002" style="visibility: inherit;" fill="rgb(0, 0, 0)" stroke="rgb(204, 204, 204)" stroke-width="1px"></line><line x1="53.1875" y1="35.400000000000006" x2="48.1875" y2="35.400000000000006" style="visibility: inherit;" fill="rgb(0, 0, 0)" stroke="rgb(204, 204, 204)" stroke-width="1px"></line><line x1="53.1875" y1="23.599999999999994" x2="48.1875" y2="23.599999999999994" style="visibility: inherit;" fill="rgb(0, 0, 0)" stroke="rgb(204, 204, 204)" stroke-width="1px"></line><line x1="53.1875" y1="11.800000000000011" x2="48.1875" y2="11.800000000000011" style="visibility: inherit;" fill="rgb(0, 0, 0)" stroke="rgb(204, 204, 204)" stroke-width="1px"></line><line x1="53.1875" y1="0" x2="48.1875" y2="0" style="visibility: inherit;" fill="rgb(0, 0, 0)" stroke="rgb(204, 204, 204)" stroke-width="1px"></line></g><g transform="translate(43.1875, 0)"><text x="0" y="165.20000000000002" dx="0em" dy="0.3em" style="text-anchor: end; visibility: inherit; font-family: &quot;Helvetica Neue&quot;, sans-serif; font-size: 13.3333px; font-weight: 200;" fill="rgb(50, 49, 63)" stroke="none" stroke-width="1px">0.16</text><text x="0" y="153.4" dx="0em" dy="0.3em" style="text-anchor: end; visibility: hidden; font-family: &quot;Helvetica Neue&quot;, sans-serif; font-size: 13.3333px; font-weight: 200;" fill="rgb(50, 49, 63)" stroke="none" stroke-width="1px">0.18</text><text x="0" y="141.6" dx="0em" dy="0.3em" style="text-anchor: end; visibility: hidden; font-family: &quot;Helvetica Neue&quot;, sans-serif; font-size: 13.3333px; font-weight: 200;" fill="rgb(50, 49, 63)" stroke="none" stroke-width="1px">0.2</text><text x="0" y="129.8" dx="0em" dy="0.3em" style="text-anchor: end; visibility: inherit; font-family: &quot;Helvetica Neue&quot;, sans-serif; font-size: 13.3333px; font-weight: 200;" fill="rgb(50, 49, 63)" stroke="none" stroke-width="1px">0.22</text><text x="0" y="118.00000000000001" dx="0em" dy="0.3em" style="text-anchor: end; visibility: hidden; font-family: &quot;Helvetica Neue&quot;, sans-serif; font-size: 13.3333px; font-weight: 200;" fill="rgb(50, 49, 63)" stroke="none" stroke-width="1px">0.24</text><text x="0" y="106.2" dx="0em" dy="0.3em" style="text-anchor: end; visibility: hidden; font-family: &quot;Helvetica Neue&quot;, sans-serif; font-size: 13.3333px; font-weight: 200;" fill="rgb(50, 49, 63)" stroke="none" stroke-width="1px">0.26</text><text x="0" y="94.39999999999999" dx="0em" dy="0.3em" style="text-anchor: end; visibility: inherit; font-family: &quot;Helvetica Neue&quot;, sans-serif; font-size: 13.3333px; font-weight: 200;" fill="rgb(50, 49, 63)" stroke="none" stroke-width="1px">0.28</text><text x="0" y="82.6" dx="0em" dy="0.3em" style="text-anchor: end; visibility: hidden; font-family: &quot;Helvetica Neue&quot;, sans-serif; font-size: 13.3333px; font-weight: 200;" fill="rgb(50, 49, 63)" stroke="none" stroke-width="1px">0.3</text><text x="0" y="70.8" dx="0em" dy="0.3em" style="text-anchor: end; visibility: hidden; font-family: &quot;Helvetica Neue&quot;, sans-serif; font-size: 13.3333px; font-weight: 200;" fill="rgb(50, 49, 63)" stroke="none" stroke-width="1px">0.32</text><text x="0" y="58.999999999999986" dx="0em" dy="0.3em" style="text-anchor: end; visibility: inherit; font-family: &quot;Helvetica Neue&quot;, sans-serif; font-size: 13.3333px; font-weight: 200;" fill="rgb(50, 49, 63)" stroke="none" stroke-width="1px">0.34</text><text x="0" y="47.20000000000002" dx="0em" dy="0.3em" style="text-anchor: end; visibility: hidden; font-family: &quot;Helvetica Neue&quot;, sans-serif; font-size: 13.3333px; font-weight: 200;" fill="rgb(50, 49, 63)" stroke="none" stroke-width="1px">0.36</text><text x="0" y="35.400000000000006" dx="0em" dy="0.3em" style="text-anchor: end; visibility: hidden; font-family: &quot;Helvetica Neue&quot;, sans-serif; font-size: 13.3333px; font-weight: 200;" fill="rgb(50, 49, 63)" stroke="none" stroke-width="1px">0.38</text><text x="0" y="23.599999999999994" dx="0em" dy="0.3em" style="text-anchor: end; visibility: inherit; font-family: &quot;Helvetica Neue&quot;, sans-serif; font-size: 13.3333px; font-weight: 200;" fill="rgb(50, 49, 63)" stroke="none" stroke-width="1px">0.4</text><text x="0" y="11.800000000000011" dx="0em" dy="0.3em" style="text-anchor: end; visibility: hidden; font-family: &quot;Helvetica Neue&quot;, sans-serif; font-size: 13.3333px; font-weight: 200;" fill="rgb(50, 49, 63)" stroke="none" stroke-width="1px">0.42</text><text x="0" y="0" dx="0em" dy="0.3em" style="text-anchor: end; visibility: hidden; font-family: &quot;Helvetica Neue&quot;, sans-serif; font-size: 13.3333px; font-weight: 200;" fill="rgb(50, 49, 63)" stroke="none" stroke-width="1px">0.44</text></g><line x1="53.1875" y1="0" x2="53.1875" y2="177" fill="rgb(0, 0, 0)" stroke="rgb(204, 204, 204)" stroke-width="1px"></line></g></g><g transform="translate(53, 0)" clip-path="url(#clip_0)"><clipPath id="clip_0"><rect width="276" height="176"></rect></clipPath><g><g><g><line x1="0" y1="0" x2="0" y2="177" fill="rgb(0, 0, 0)" stroke="rgb(60, 60, 60)" stroke-width="1px" opacity="0.25"></line><line x1="23.067708333333332" y1="0" x2="23.067708333333332" y2="177" fill="rgb(0, 0, 0)" stroke="rgb(60, 60, 60)" stroke-width="1px" opacity="0.25"></line><line x1="46.135416666666664" y1="0" x2="46.135416666666664" y2="177" fill="rgb(0, 0, 0)" stroke="rgb(60, 60, 60)" stroke-width="1px" opacity="0.25"></line><line x1="69.203125" y1="0" x2="69.203125" y2="177" fill="rgb(0, 0, 0)" stroke="rgb(60, 60, 60)" stroke-width="1px" opacity="0.25"></line><line x1="92.27083333333333" y1="0" x2="92.27083333333333" y2="177" fill="rgb(0, 0, 0)" stroke="rgb(60, 60, 60)" stroke-width="1px" opacity="0.25"></line><line x1="115.33854166666667" y1="0" x2="115.33854166666667" y2="177" fill="rgb(0, 0, 0)" stroke="rgb(60, 60, 60)" stroke-width="1px" opacity="0.25"></line><line x1="138.40625" y1="0" x2="138.40625" y2="177" fill="rgb(0, 0, 0)" stroke="rgb(60, 60, 60)" stroke-width="1px" opacity="0.25"></line><line x1="161.47395833333334" y1="0" x2="161.47395833333334" y2="177" fill="rgb(0, 0, 0)" stroke="rgb(60, 60, 60)" stroke-width="1px" opacity="0.25"></line><line x1="184.54166666666666" y1="0" x2="184.54166666666666" y2="177" fill="rgb(0, 0, 0)" stroke="rgb(60, 60, 60)" stroke-width="1px" opacity="0.25"></line><line x1="207.609375" y1="0" x2="207.609375" y2="177" fill="rgb(0, 0, 0)" stroke="rgb(60, 60, 60)" stroke-width="1px" opacity="0.25"></line><line x1="230.67708333333334" y1="0" x2="230.67708333333334" y2="177" fill="rgb(0, 0, 0)" stroke="rgb(60, 60, 60)" stroke-width="1px" opacity="0.25"></line><line x1="253.74479166666666" y1="0" x2="253.74479166666666" y2="177" fill="rgb(0, 0, 0)" stroke="rgb(60, 60, 60)" stroke-width="1px" opacity="0.25"></line><line x1="276.8125" y1="0" x2="276.8125" y2="177" fill="rgb(0, 0, 0)" stroke="rgb(60, 60, 60)" stroke-width="1px" opacity="0.25"></line></g><g><line x1="0" y1="165.20000000000002" x2="276.8125" y2="165.20000000000002" fill="rgb(0, 0, 0)" stroke="rgb(60, 60, 60)" stroke-width="1px" opacity="0.25"></line><line x1="0" y1="153.4" x2="276.8125" y2="153.4" fill="rgb(0, 0, 0)" stroke="rgb(60, 60, 60)" stroke-width="1px" opacity="0.25"></line><line x1="0" y1="141.6" x2="276.8125" y2="141.6" fill="rgb(0, 0, 0)" stroke="rgb(60, 60, 60)" stroke-width="1px" opacity="0.25"></line><line x1="0" y1="129.8" x2="276.8125" y2="129.8" fill="rgb(0, 0, 0)" stroke="rgb(60, 60, 60)" stroke-width="1px" opacity="0.25"></line><line x1="0" y1="118.00000000000001" x2="276.8125" y2="118.00000000000001" fill="rgb(0, 0, 0)" stroke="rgb(60, 60, 60)" stroke-width="1px" opacity="0.25"></line><line x1="0" y1="106.2" x2="276.8125" y2="106.2" fill="rgb(0, 0, 0)" stroke="rgb(60, 60, 60)" stroke-width="1px" opacity="0.25"></line><line x1="0" y1="94.39999999999999" x2="276.8125" y2="94.39999999999999" fill="rgb(0, 0, 0)" stroke="rgb(60, 60, 60)" stroke-width="1px" opacity="0.25"></line><line x1="0" y1="82.6" x2="276.8125" y2="82.6" fill="rgb(0, 0, 0)" stroke="rgb(60, 60, 60)" stroke-width="1px" opacity="0.25"></line><line x1="0" y1="70.8" x2="276.8125" y2="70.8" fill="rgb(0, 0, 0)" stroke="rgb(60, 60, 60)" stroke-width="1px" opacity="0.25"></line><line x1="0" y1="58.999999999999986" x2="276.8125" y2="58.999999999999986" fill="rgb(0, 0, 0)" stroke="rgb(60, 60, 60)" stroke-width="1px" opacity="0.25"></line><line x1="0" y1="47.20000000000002" x2="276.8125" y2="47.20000000000002" fill="rgb(0, 0, 0)" stroke="rgb(60, 60, 60)" stroke-width="1px" opacity="0.25"></line><line x1="0" y1="35.400000000000006" x2="276.8125" y2="35.400000000000006" fill="rgb(0, 0, 0)" stroke="rgb(60, 60, 60)" stroke-width="1px" opacity="0.25"></line><line x1="0" y1="23.599999999999994" x2="276.8125" y2="23.599999999999994" fill="rgb(0, 0, 0)" stroke="rgb(60, 60, 60)" stroke-width="1px" opacity="0.25"></line><line x1="0" y1="11.800000000000011" x2="276.8125" y2="11.800000000000011" fill="rgb(0, 0, 0)" stroke="rgb(60, 60, 60)" stroke-width="1px" opacity="0.25"></line><line x1="0" y1="0" x2="276.8125" y2="0" fill="rgb(0, 0, 0)" stroke="rgb(60, 60, 60)" stroke-width="1px" opacity="0.25"></line></g></g></g><g><g><line x1="0" y1="259.6" x2="276.8125" y2="259.6" fill="rgb(0, 0, 0)" stroke="rgb(153, 153, 153)" stroke-width="1.5px"></line></g></g><g><g><line x1="23.067708333333332" y1="0" x2="23.067708333333332" y2="177" fill="rgb(0, 0, 0)" stroke="rgb(153, 153, 153)" stroke-width="1.5px"></line></g></g><g><g><g><g><g><path stroke="rgb(255, 112, 67)" stroke-width="2px" d="M23.067708333333332,31.30942515134811L23.529062500000002,76.95997531563043L23.99041666666667,96.94262442406342L24.451770833333335,105.899715472714L24.913125,111.5777162188999L25.374479166666664,115.590931313749L25.835833333333333,120.2022847846381L26.2971875,121.10164790214235L26.758541666666666,124.47075825685289L27.219895833333332,123.8676999280607L27.681250000000002,122.96434976299291L28.14260416666667,124.31644446684837L28.603958333333335,124.81503464909804L29.065312499999997,125.039705221074L29.526666666666667,124.32310011494174L29.988020833333334,125.80430744289936L30.449375,125.37797036996284L30.910729166666666,122.7159811268666L31.372083333333332,125.84759987694017L31.833437500000002,122.99170728690137L32.29479166666667,124.1453825030568L32.756145833333335,121.9578346591901L33.2175,122.96172663164867L33.67885416666667,123.40366047809249L34.140208333333334,124.16395449182741L34.6015625,125.7228583936808L35.062916666666666,127.90022275883766L35.52427083333333,128.07391151388646L35.985625,129.5959426944684L36.446979166666665,128.5865597535029L36.90833333333333,129.196883643095L37.369687500000005,129.16974493551294L37.831041666666664,126.81370231039952L38.29239583333334,128.01598300163056L38.753750000000004,125.71960894704512L39.21510416666666,128.32596175283717L39.676458333333336,127.07784435459749L40.137812499999995,125.47737613148527L40.59916666666667,126.54149675145618L41.060520833333335,128.12923549730152L41.521875,126.98909546950551L41.98322916666667,127.37945384055737L42.44458333333333,126.99870807321025L42.9059375,128.64229170584036L43.36729166666667,127.28161407995L43.82864583333333,125.8814712636061L44.29,125.70646951867803L44.751354166666665,126.03694525167292L45.21270833333333,124.52681637526473L45.674062500000005,125.35853869391707L46.135416666666664,128.54075921223057L46.59677083333333,123.17938552524375L47.058125000000004,125.64084345475703L47.51947916666666,124.32277118429921L47.98083333333334,126.89039724865945L48.442187499999996,126.54353524565323L48.90354166666667,125.89014381003142L49.364895833333335,128.47583511013877L49.82625,126.09472914301789L50.28760416666667,125.62198548414369L50.74895833333333,126.99633504926008L51.2103125,128.15544730650691L51.67166666666667,132.40618420021127L52.13302083333333,130.43615285620922L52.594375,130.66284333745142L53.05572916666667,131.60376453089415L53.51708333333333,131.9935104136926L53.9784375,131.55234291108025L54.439791666666665,128.55114602060064L54.90114583333333,127.30354444629515L55.362500000000004,126.30736393241027L55.82385416666666,127.85982750003302L56.28520833333334,127.826499083905L56.746562499999996,129.50484459595L57.20791666666667,131.37566661474776L57.669270833333336,130.9386907222132L58.130624999999995,129.22915820135236L58.59197916666667,128.61442886742094L59.053333333333335,131.58143792958342L59.5146875,130.31655883080532L59.97604166666667,131.66839891485435L60.43739583333333,130.64631353743115L23.067708333333332,101.8619114478066L23.529062500000002,103.70454131124225L23.99041666666667,110.18593927000646L24.451770833333335,112.92024340733697L24.913125,114.62781501355656L25.374479166666664,117.60507212247187L25.835833333333333,117.15150195697387L26.2971875,117.94656492912436L26.758541666666666,121.73182941701211L27.219895833333332,122.52947706953404L27.681250000000002,124.20288028344939L28.14260416666667,125.63060055032629L28.603958333333335,123.49472245130097L29.065312499999997,120.87418678374979L29.526666666666667,121.85466830356057L29.988020833333334,123.14128779663524L30.449375,123.10253952559162L30.910729166666666,124.43634342560965L31.372083333333332,123.71501014119268L31.833437500000002,124.55950134924578L32.29479166666667,125.81820165116505L32.756145833333335,124.85481619476627L33.2175,127.29587420248598L33.67885416666667,128.16127126707798L34.140208333333334,129.41492467936376L34.6015625,125.4440124882251L35.062916666666666,123.39662882643879L35.52427083333333,121.63722304915154L35.985625,121.8879395891116L36.446979166666665,123.3228171234659L36.90833333333333,122.22049354346582L37.369687500000005,123.7646518542289L37.831041666666664,123.54159884654996L38.29239583333334,123.98855279328532L38.753750000000004,125.54451712871855L39.21510416666666,126.1127343970851L39.676458333333336,125.8653920077274L40.137812499999995,127.10577038663564L40.59916666666667,125.88149691902362L41.060520833333335,127.89894479324082L41.521875,129.7790515554527L41.98322916666667,123.73274186686155L42.44458333333333,127.73655369183706L42.9059375,128.52327369869522L43.36729166666667,129.45301841271385L43.82864583333333,128.4223554430751L44.29,127.29175760378527L44.751354166666665,127.33125053900532L45.21270833333333,131.38831470881732L45.674062500000005,128.40794073864717L46.135416666666664,130.44624454811154L46.59677083333333,130.35319245716894L47.058125000000004,130.04674191034417L47.51947916666666,129.26808243487227L47.98083333333334,128.55230712827412L48.442187499999996,126.74366216860037L48.90354166666667,128.643691869985L49.364895833333335,127.66496281409917L49.82625,129.45805653920564L50.28760416666667,130.65408455962415L50.74895833333333,130.8127189995913L51.2103125,128.25415764820985L51.67166666666667,124.65832369907147L52.13302083333333,127.19154603352217L52.594375,130.6404771296386L53.05572916666667,126.91427959967876L53.51708333333333,127.68390720110669L53.9784375,128.15760177029094L54.439791666666665,129.35951921971395L54.90114583333333,129.78869431037756L55.362500000000004,130.45807926189335L55.82385416666666,128.69492305953165L56.28520833333334,128.54815034889495L56.746562499999996,128.36483760609218L57.20791666666667,128.77165334423773L57.669270833333336,129.7448970162892L58.130624999999995,126.47233538174768L58.59197916666667,128.1467519804486L59.053333333333335,128.71355140475325L59.5146875,130.34414844911035L59.97604166666667,129.4896161651655L60.43739583333333,131.01419750070835L60.89875,129.77139996061481L61.36010416666667,125.75044245105838L61.82145833333333,126.66309776891383L62.2828125,127.92099581592747L62.744166666666665,127.37046480675617L63.20552083333333,125.63418695271064L63.666875000000005,127.95514484250572L64.12822916666667,126.00120332481877L64.58958333333334,127.87180591250907L65.0509375,128.6336696924296L65.51229166666667,133.0171685946898L65.97364583333334,130.97365385132528L66.435,128.99109083555638L66.89635416666667,129.39993412818015L67.35770833333333,129.20667216733398L67.8190625,128.8172056672293L68.28041666666667,128.43978171571004L68.74177083333333,128.05558341398185L23.067708333333332,121.35856552156417L23.529062500000002,119.6972473122633L23.99041666666667,125.76581323730687L24.451770833333335,125.64727305762612L24.913125,126.37076958294298L25.374479166666664,125.73464512035599L25.835833333333333,124.21784784558625L26.2971875,126.16722989418037L26.758541666666666,125.44137533150867L27.219895833333332,124.79111337687226L27.681250000000002,127.4220570232013L28.14260416666667,127.14001075896854L28.603958333333335,127.31362355275891L29.065312499999997,124.69894151046242L29.526666666666667,124.53911587330322L29.988020833333334,123.13892125566375L30.449375,121.74897249865276L30.910729166666666,121.53156412081566L31.372083333333332,125.04422460101036L31.833437500000002,123.74444507659666L32.29479166666667,124.93662618101357L32.756145833333335,125.77328119814825L33.2175,127.81173019731301L33.67885416666667,129.34275825932178L34.140208333333334,128.15735956737134L34.6015625,128.31192901795347L35.062916666666666,128.2044383017137L35.52427083333333,127.59211638974634L35.985625,129.75117220763855L36.446979166666665,129.76917736938293L36.90833333333333,132.0361343479794L37.369687500000005,131.0813453135873L37.831041666666664,130.86889933216483L38.29239583333334,132.26963409821934L38.753750000000004,133.93275864983048L39.21510416666666,132.96410925665168L39.676458333333336,132.16649998354117L40.137812499999995,129.70789220051287L40.59916666666667,128.88675153563213L41.060520833333335,132.8606722039568L41.521875,132.09852622286007L41.98322916666667,131.21198988399223L42.44458333333333,132.61212879920788L42.9059375,130.12995391431326L43.36729166666667,130.2970938905649L43.82864583333333,132.91039666322305L44.29,133.24131789915225L44.751354166666665,132.1294629425553L45.21270833333333,133.57270606105016L45.674062500000005,130.41078360166838L46.135416666666664,130.48460284284766L46.59677083333333,131.4624166119815L47.058125000000004,133.44163042716508L47.51947916666666,135.70714239366248L47.98083333333334,134.56744121603606L48.442187499999996,133.92521924670004L48.90354166666667,134.2619612294165L49.364895833333335,134.23434650407597L49.82625,132.8076757783077L50.28760416666667,134.36051769461525L50.74895833333333,134.4384728539365L51.2103125,132.2809383933769L51.67166666666667,137.24730724722306L52.13302083333333,135.97041266578532L52.594375,136.26199651848134L53.05572916666667,134.66552778178965L53.51708333333333,134.3043276577861L53.9784375,132.65386660991138L54.439791666666665,132.8745004206778L54.90114583333333,133.07073295771372L55.362500000000004,132.46856358682686L55.82385416666666,133.23042435309634L56.28520833333334,134.02838741100635L56.746562499999996,137.0811807439137L57.20791666666667,136.63186107667735L57.669270833333336,134.98392646904261L58.130624999999995,132.55782014009637L58.59197916666667,134.2331004755335L59.053333333333335,132.65144896844845L59.5146875,134.1744513317336L59.97604166666667,132.42160454060968L60.43739583333333,132.64578800837L60.89875,134.2300153126705L61.36010416666667,132.89594792070318L61.82145833333333,132.30900476659733L62.2828125,132.1925896685445L62.744166666666665,133.14468960291887L63.20552083333333,135.5549766703054L63.666875000000005,132.22178140423327L64.12822916666667,133.437394938121L64.58958333333334,131.38450067356214L65.0509375,131.5585369796454L65.51229166666667,130.68570318048592L65.97364583333334,131.9307070769393L66.435,133.993859841676L66.89635416666667,131.68331485882487L67.35770833333333,131.70710030970028L67.8190625,134.3857902179781L68.28041666666667,133.52584983889003L68.74177083333333,132.62716597547376L69.203125,134.06611645597363L69.66447916666667,134.7893719004282L70.12583333333333,135.2524502615147L70.5871875,136.90533089518627L71.04854166666667,135.99023772645046L71.50989583333335,133.2747629151824L71.97125,134.2698593322088L72.43260416666666,134.11670510909855L72.89395833333333,134.85637938584028L73.3553125,133.19475120309076L73.81666666666666,131.99015689136434L74.27802083333333,131.41134832287935L74.73937500000001,130.78151952257818L75.20072916666666,131.71662524599472L75.66208333333333,135.12103920971535L76.12343750000001,134.21280771610247L76.58479166666667,134.3440549046821L77.04614583333333,137.62199192708889L77.50750000000001,137.44895645300244L77.96885416666667,138.11754800510226L78.43020833333333,138.20325024146925L78.89156249999999,138.61035502921993L79.35291666666667,137.53701157195243L79.81427083333334,138.59564543499278L80.27562499999999,134.9719822712763L80.73697916666667,135.44891349959516L81.19833333333334,132.83839486174668L81.65968749999999,134.25867889245086L82.12104166666667,135.09821741771538L82.58239583333334,135.06571455831434L83.04375,137.884896745891L83.50510416666667,138.1930308905903L83.96645833333334,138.54623346374416L84.4278125,137.03561421183338L84.88916666666665,134.31450522153133L85.35052083333333,136.40981674557062L85.811875,138.35784020879942L86.27322916666667,135.76339457785534L86.73458333333333,133.55452834818033L87.1959375,136.81820096762937L87.65729166666667,135.69623414630868L88.11864583333335,137.7994471094321L88.58,138.6620284164733L89.04135416666666,136.2836101940147L89.50270833333333,136.73025022333096L89.9640625,138.2160865949704L90.42541666666666,136.66447759432276L90.88677083333333,135.2566441605251L91.34812500000001,133.51789654193885L91.80947916666666,136.15821632920841L92.27083333333333,136.29322902905432L92.73218750000001,136.0461977776735L93.19354166666666,135.15375936608606L93.65489583333333,134.77487974751648L94.11625000000001,137.20461724870594L94.57760416666667,139.45322962446923L95.03895833333333,136.931836582684L95.50031249999999,136.61191285935848L95.96166666666667,136.6088673215378L96.42302083333333,137.82055981047563L96.88437499999999,135.89506412439115L97.34572916666667,135.90930348213055L97.80708333333334,135.4850851891967L98.26843749999999,135.97185151806667L98.72979166666667,136.74292803663727L99.19114583333334,136.37755546127985L99.6525,135.29080008003254L100.11385416666667,135.61303787787642L100.57520833333334,136.01161365365914L101.0365625,135.95832305583912L101.49791666666665,135.21941984792684L101.95927083333333,135.6961348026999L102.420625,136.69099162876654L102.88197916666667,137.41859588182L103.34333333333333,136.65289549562948L103.8046875,136.0502200301505L104.26604166666667,136.09974559640986L104.72739583333333,135.8679294043547L105.18875,134.53870575986898L105.65010416666667,134.56020495750067L106.11145833333335,136.74233672533964L106.5728125,134.91027988144478L107.03416666666666,133.43339014976456L107.49552083333333,133.5530461867406L107.956875,133.4542178177687L108.41822916666666,134.57848909520226L108.87958333333333,137.20414482011267L109.34093750000001,134.30726430925054L109.80229166666666,133.2478189260502L110.26364583333333,133.67197878543968L110.72500000000001,135.62368841042777L111.18635416666667,135.57768824977077L111.64770833333333,135.68595485497949L112.10906250000001,137.34418619280717L112.57041666666667,139.30419178608454L113.03177083333333,136.05538222910997L113.49312499999999,138.65922932697558L113.95447916666667,137.97956645055547L114.41583333333334,138.61374869325124L114.87718749999999,137.77897285686947L115.33854166666667,137.51091820995222L115.79989583333334,137.1883887493623L116.26124999999999,138.1247045924671L116.72260416666667,139.88981203856514L117.18395833333334,138.8601655424979L117.6453125,137.23783970483223L118.10666666666667,138.14187690620471L118.56802083333334,139.87779157999069L119.029375,139.11649985338994L119.49072916666665,137.0607915975198L119.95208333333333,137.0831006108251L120.4134375,139.33922027221482L120.87479166666667,136.31806164426305L121.33614583333333,134.80755426789938L121.7975,136.8928457659818L122.25885416666667,135.10298030390368L122.72020833333335,136.33457142838256L123.1815625,139.20171173291453L123.64291666666666,139.10270086692006L124.10427083333333,140.0110549102201L124.565625,138.9510045534357L125.02697916666666,135.21963301455884L125.48833333333333,137.72800354692882L125.94968750000001,137.35506917794672L126.41104166666666,135.46433472728805L126.87239583333333,138.91606252489134L127.33375000000001,137.9272446364024L127.79510416666666,137.03214590369814L128.25645833333334,137.8284371436784L128.7178125,139.04439693576987L129.17916666666667,137.49671888522442L129.64052083333334,135.98450944764696L130.101875,136.7591843625503L130.56322916666667,138.35256737831813L131.02458333333334,139.97507021882285L131.4859375,137.94534987484306L131.94729166666667,137.86419815227322L132.40864583333334,140.77365947249493L132.87,138.289867561358L133.33135416666667,136.1611929925071L133.79270833333334,137.78127401064557L134.2540625,136.7777395450516L134.71541666666667,138.38107989093322L135.17677083333334,138.31956666863357L135.638125,137.55747131440876L136.09947916666667,134.0736800213685L136.56083333333333,134.31487221837224L137.0221875,136.18406601977458L137.48354166666667,135.9355845608241L137.94489583333333,135.13006627547304L138.40625,135.5476814769957L138.86760416666667,136.90242294688545L139.32895833333333,139.75766419541551L139.7903125,140.9522401903374L140.25166666666667,140.97651398505585L140.71302083333333,138.85234260991703L141.174375,138.7584083606928L141.6357291666667,137.29192130387602L142.09708333333333,138.5089444340514L142.5584375,136.930124203041L143.0197916666667,135.25259821633983L143.48114583333333,134.27204622876937L143.9425,132.6283435729283L144.40385416666666,132.73565287274945L144.86520833333333,135.41237514783637L145.3265625,137.91516742688236L145.78791666666666,139.137351608168L146.24927083333333,138.18672385209257L146.710625,138.3752243566123L147.17197916666666,133.35948063657327L147.63333333333333,135.33741669729736L148.09468750000002,133.69383949801556L148.55604166666666,137.87689806917447L149.01739583333332,138.0844265001961L149.47875000000002,136.88337547886064L149.94010416666666,136.2379032236796L150.40145833333332,135.26684846296678L150.86281250000002,135.69286805519323L151.32416666666666,136.82888970690286L151.78552083333332,137.63104725073168L152.24687500000002,138.45886780375474L152.70822916666665,140.42419706555745L153.16958333333335,137.77501666052663L153.63093750000002,139.50242834033682L154.09229166666665,138.88382304395506L154.55364583333335,141.4333209579305L155.01500000000001,139.62344536931016L155.47635416666665,136.660502279703L155.93770833333335,138.62589482599748L156.39906249999999,135.1900759251967L156.86041666666665,136.71015884590477L157.32177083333335,137.50496268577774L157.78312499999998,137.17768361990093L158.24447916666665,136.14762178197168L158.70583333333335,137.8101935120503L159.16718749999998,136.6919190628576L159.62854166666668,136.0980047215967L160.08989583333334,136.91468846022775L160.55124999999998,135.32612279426868L161.01260416666668,135.8297198997248L161.47395833333334,138.15220388330872L161.93531249999998,140.52105436896L162.39666666666668,141.3220479761047L162.85802083333334,142.0685820647766L163.31937499999998,140.35589315347013L163.78072916666667,140.59055127055728L164.24208333333334,136.38674152941277L164.7034375,138.32022587925653L165.16479166666667,136.864730387154L165.62614583333334,138.86776650740075L166.0875,139.26276468749862L166.54885416666667,140.04947601506723L167.01020833333334,136.60434641331204L167.4715625,140.92658711844544L167.93291666666667,140.1484504209391L168.3942708333333,137.44798805155943L168.855625,136.25407219075316L169.31697916666667,132.7187813791225L169.7783333333333,132.12577056363762L170.2396875,134.0224289648267L170.70104166666667,134.64506949141816L171.16239583333333,136.04486149284358L171.62375,139.2742006548233L172.08510416666667,135.82479757118148L172.54645833333333,137.72020921974138L173.0078125,136.8305015579984L173.46916666666667,134.12146636582168L173.93052083333333,134.5202815123603L174.391875,137.25802332330971L174.85322916666667,138.3280448589875L175.31458333333333,135.7614830681177L175.7759375,136.9323812120254L176.2372916666667,136.5806493540463L176.69864583333333,137.79317747472865L177.16,137.78998574804749L177.6213541666667,138.05958608145409L178.08270833333333,139.81025346371467L178.5440625,136.60500355156026L179.00541666666666,136.33088184590196L179.46677083333333,135.74268476721676L179.928125,135.53589839313645L180.38947916666666,133.86751784666907L180.85083333333333,134.27427743783312L181.3121875,136.35794406718443L181.77354166666666,138.97307777396696L182.23489583333333,139.82975720400725L182.69625000000002,138.13528653046558L183.15760416666666,136.83661258495493L183.61895833333332,140.57012391493703L184.08031250000002,137.41686246875517L184.54166666666666,136.51337234070058L185.00302083333332,136.89153559380864L185.46437500000002,137.81811804636774L185.92572916666666,139.80830082574164L186.38708333333332,138.5235421280782L186.84843750000002,137.3295009053183L187.30979166666665,137.67220344283774L187.77114583333335,140.68110299431441L188.23250000000002,139.5080730123708L188.69385416666665,138.89523841401274L189.15520833333335,138.2681161276122L189.61656250000001,138.70643458078027L190.07791666666665,138.7149485689981L190.53927083333335,140.6126289476504L191.00062499999999,139.87142368254365L191.46197916666665,139.42097889481366L191.92333333333335,141.52614797054756L192.38468749999998,140.41365521728414L192.84604166666665,139.3548697947229L193.30739583333335,141.63477362148555L193.76874999999998,140.36266079755183L194.23010416666668,138.5005168653223L194.69145833333334,137.9616003022607L195.15281249999998,137.1716299191723L195.61416666666668,137.49722683284338L196.07552083333334,136.15765522869623L196.53687499999998,137.82179102511523L196.99822916666668,139.93446033961368L197.45958333333334,139.30627921919103L197.92093749999998,140.0316509252791L198.38229166666667,141.39491367852716L198.84364583333334,142.03616900990028L199.305,139.17734252303612L199.76635416666667,140.11525411182507L200.22770833333334,139.69056822761218L200.6890625,140.66708846273613L201.15041666666667,141.1810283528721L201.61177083333334,143.7274352971885L202.073125,140.24824599648557L202.53447916666667,141.61311813965466L202.9958333333333,141.68661554560083L203.4571875,141.43200066271436L203.91854166666667,139.08736265291577L204.3798958333333,138.51603609913474L204.84125,136.85171626206568L205.30260416666667,137.4056339657088L205.76395833333333,138.56846826289774L206.2253125,138.20123554119277L206.68666666666667,138.26852116137033L207.14802083333333,138.1381404253798L207.609375,137.37139292317374L208.07072916666667,136.76927430723754L208.53208333333333,139.30163155612138L208.9934375,138.1096445025014L209.45479166666667,136.30888312703414L209.91614583333333,139.01622887877252L210.3775,139.23133975760715L210.8388541666667,138.6529253178631L211.30020833333333,138.85800151191916L211.7615625,136.68888612128956L212.2229166666667,138.57845746241605L212.68427083333333,139.21839944817185L213.145625,138.64894507347083L213.60697916666666,140.04238535415254L214.06833333333333,138.26680209547948L214.5296875,138.83305174535914L214.99104166666666,141.31213150516987L215.45239583333333,140.5858963519087L215.91375,137.9488685268015L216.37510416666666,139.73393756019178L216.83645833333333,136.69579811255397L217.29781250000002,137.80752969837346L217.75916666666666,141.32652096424198L218.22052083333332,140.91610876842557L218.68187500000002,141.09626521184575L219.14322916666666,139.8831270570429L219.60458333333332,140.80681144445373L220.06593750000002,141.00754006891987L220.52729166666666,139.4365484630438L220.98864583333332,135.32405516835286L221.45000000000002,135.96441987593315L221.91135416666665,135.8078797330817L222.37270833333335,139.0090827411628L222.83406250000002,139.1337687794099L223.29541666666665,138.3782127775985L223.75677083333335,140.37351117838847L224.21812500000001,140.22908610528367L224.67947916666665,139.93189833656345L225.14083333333335,138.58976350125906L225.60218749999999,136.6471655982568L226.06354166666665,138.10790474759546L226.52489583333335,138.7592775818527L226.98624999999998,137.48206541757705L227.44760416666665,136.5147215141113L227.90895833333335,138.39880737383695L228.37031249999998,139.0004144139262L228.83166666666668,137.71032830877135L229.29302083333334,139.64096471788304L229.75437499999998,141.18205213261734L230.21572916666668,140.15878014631923L230.67708333333334,137.94104479114924L231.13843749999998,136.99465648389287L231.59979166666668,134.69053954158085L232.06114583333334,137.56158509656106L232.52249999999998,139.03929014923762L232.98385416666667,139.20804747535342L233.44520833333334,140.57579686041805L233.9065625,140.4331345212229L234.36791666666667,140.4899448330264L234.82927083333334,140.01259759754305L235.290625,141.07954961115342L235.75197916666667,139.4495600250615L236.21333333333334,140.9573238031419L236.6746875,141.95994957544517L237.13604166666667,141.53903447781866L237.5973958333333,139.23392234799186L238.05875,138.52922149274897L238.52010416666667,138.3365286122212L238.9814583333333,137.72728438201244L239.4428125,136.8026007379454L239.90416666666667,137.59698716434013L240.36552083333333,137.80296875257594L240.826875,140.8166131831366L241.28822916666667,139.52554797513238L241.74958333333333,140.4193878160891L242.2109375,138.9373775379048L242.67229166666667,137.17624369240917L243.13364583333333,137.90790818558406L243.595,138.3446843434946L244.05635416666667,139.90316489038327L244.51770833333333,138.359328586444L244.9790625,140.13681109105633L245.4404166666667,141.705875514478L245.90177083333333,140.54881630094678L246.363125,139.88319594950576L246.8244791666667,139.9782927256292L247.28583333333333,138.23669158586657L247.7471875,136.4323649261522L248.20854166666666,136.3697380360441L248.66989583333333,137.06903874733908L249.13125,138.73955991422451L249.59260416666666,141.62968302342483L250.05395833333333,141.22944521291967L250.5153125,139.43267841210314L250.97666666666666,139.5273095576188L251.43802083333333,140.27810386706716L251.89937500000002,137.55245057516888L252.36072916666666,139.84080172880647L252.82208333333332,140.7816131812582L253.28343750000002,136.70944621218737" style="fill: none;" fill="none"></path></g></g></g></g><g opacity="0.2"><g><g><g><path stroke="rgb(255, 112, 67)" stroke-width="2px" d="M23.067708333333332,31.30942515134811L23.529062500000002,104.35030541419982L23.99041666666667,116.1259675681591L24.451770833333335,116.43325454592706L24.913125,118.99091399312019L25.374479166666664,121.14265254735948L25.835833333333333,126.796594029665L26.2971875,122.4129279613495L26.758541666666666,129.43954161405563L27.219895833333332,122.9722285926342L27.681250000000002,121.6175178349018L28.14260416666667,126.33722848296165L28.603958333333335,125.56129193902017L29.065312499999997,125.3762709259987L29.526666666666667,123.24903479814529L29.988020833333334,128.02507377266883L30.449375,124.73864517211913L30.910729166666666,118.72367314100265L31.372083333333332,130.5445509314537L31.833437500000002,118.70812944173814L32.29479166666667,125.8758320569992L32.756145833333335,118.67658487558366L33.2175,124.46754477024079L33.67885416666667,124.06655601263046L34.140208333333334,125.30439010858535L34.6015625,128.0612075984478L35.062916666666666,131.16626373529434L35.52427083333333,128.33444437980654L35.985625,131.87898806333544L36.446979166666665,127.07248589992523L36.90833333333333,130.11236927509307L37.369687500000005,129.12903687953948L37.831041666666664,123.27963865399362L38.29239583333334,129.81940395236015L38.753750000000004,122.27504796385765L39.21510416666666,132.23549089431762L39.676458333333336,125.20566827654838L40.137812499999995,123.07667381167411L40.59916666666667,128.1376776754856L41.060520833333335,130.51084361076354L41.521875,125.27888543009757L41.98322916666667,127.96499139666557L42.44458333333333,126.42758942246437L42.9059375,131.1076671540737L43.36729166666667,125.24059764146806L43.82864583333333,123.78125703930854L44.29,125.44396690130233L44.751354166666665,126.5326588511467L45.21270833333333,122.26162306070327L45.674062500000005,126.60612217187881L46.135416666666664,133.31408998966216L46.59677083333333,115.13732499480247L47.058125000000004,129.3330303490162L47.51947916666666,122.34566277861595L47.98083333333334,130.74183634519576L48.442187499999996,126.02324224114417L48.90354166666667,124.91005665659904L49.364895833333335,132.35437206029894L49.82625,122.52307019233704L50.28760416666667,124.91286999583244L50.74895833333333,129.05785939693453L51.2103125,129.89411569237708L51.67166666666667,138.7822895407677L52.13302083333333,127.48110584020615L52.594375,131.00287905931472L53.05572916666667,133.0151463210583L53.51708333333333,132.57812923789024L53.9784375,130.8905916571617L54.439791666666665,124.0493506848812L54.90114583333333,125.43214208483695L55.362500000000004,124.81309316158294L55.82385416666666,130.18852285146713L56.28520833333334,127.77650645971299L56.746562499999996,132.0223628640175L57.20791666666667,134.18189964294436L57.669270833333336,130.2832268834114L58.130624999999995,126.6648594200611L58.59197916666667,127.69233486652374L59.053333333333335,136.03195152282717L59.5146875,128.4192401826382L59.97604166666667,133.69615904092788L60.43739583333333,129.1131854712963L23.067708333333332,58.68530831336976L23.529062500000002,106.46848610639572L23.99041666666667,119.90803620815278L24.451770833333335,117.02169961333274L24.913125,117.18917242288589L25.374479166666664,122.0709577858448L25.835833333333333,116.47114670872688L26.2971875,119.13915938735008L26.758541666666666,127.40972614884376L27.219895833333332,123.72594854831695L27.681250000000002,126.71298510432244L28.14260416666667,127.77218095064164L28.603958333333335,120.29090530276298L29.065312499999997,116.94338328242301L29.526666666666667,123.32539058327674L29.988020833333334,125.07121703624726L30.449375,123.04441711902618L30.910729166666666,126.43704927563668L31.372083333333332,122.63301021456718L31.833437500000002,125.82623816132545L32.29479166666667,127.70625210404395L32.756145833333335,123.40973801016807L33.2175,130.95746121406555L33.67885416666667,129.459366863966L34.140208333333334,131.29540479779243L34.6015625,119.48764420151711L35.062916666666666,120.32555333375932L35.52427083333333,118.99811438322067L35.985625,122.26401439905167L36.446979166666665,125.47513342499732L36.90833333333333,120.56700817346572L37.369687500000005,126.08088932037353L37.831041666666664,123.2070193350315L38.29239583333334,124.65898371338844L38.753750000000004,127.87846363186836L39.21510416666666,126.96506029963493L39.676458333333336,125.4943784236908L40.137812499999995,128.96633795499804L40.59916666666667,124.04508671760559L41.060520833333335,130.92511660456657L41.521875,132.59921169877055L41.98322916666667,114.66327733397485L42.44458333333333,133.74227142930033L42.9059375,129.70335370898246L43.36729166666667,130.84763548374175L43.82864583333333,126.87636098861694L44.29,125.59586084485053L44.751354166666665,127.3904899418354L45.21270833333333,137.4739109635353L45.674062500000005,123.93737978339196L46.135416666666664,133.50370026230812L46.59677083333333,130.21361432075503L47.058125000000004,129.58706609010696L47.51947916666666,128.10009322166442L47.98083333333334,127.47864416837692L48.442187499999996,124.03069472908975L48.90354166666667,131.49373642206191L49.364895833333335,126.19686923027038L49.82625,132.1476971268654L50.28760416666667,132.44812659025192L50.74895833333333,131.05067065954208L51.2103125,124.41631562113761L51.67166666666667,119.26457277536392L52.13302083333333,130.9913795351982L52.594375,135.81387377381327L53.05572916666667,121.324983304739L53.51708333333333,128.8383486032486L53.9784375,128.86814362406733L54.439791666666665,131.1623953938484L54.90114583333333,130.43245694637298L55.362500000000004,131.46215668916705L55.82385416666666,126.05018875598907L56.28520833333334,128.3279912829399L56.746562499999996,128.08986849188807L57.20791666666667,129.3818769514561L57.669270833333336,131.2047625243664L58.130624999999995,121.56349292993546L58.59197916666667,130.6583768785L59.053333333333335,129.56375054121017L59.5146875,132.79004401564598L59.97604166666667,128.2078177392483L60.43739583333333,133.30106950402262L60.89875,127.90720365047454L61.36010416666667,119.71900618672372L61.82145833333333,128.03208074569704L62.2828125,129.8078428864479L62.744166666666665,126.54466829299926L63.20552083333333,123.0297701716423L63.666875000000005,131.4365816771984L64.12822916666667,123.07029104828834L64.58958333333334,130.67770979404452L65.0509375,129.7764653623104L65.51229166666667,139.59241694808009L65.97364583333334,127.90838173627854L66.435,126.017246311903L66.89635416666667,130.01319906711578L67.35770833333333,128.9167792260647L67.8190625,128.23300591707232L68.28041666666667,127.87364578843118L68.74177083333333,127.47928596138955L23.067708333333332,111.31303868293763L23.529062500000002,117.20526999831199L23.99041666666667,134.8686621248722L24.451770833333335,125.469462788105L24.913125,127.45601437091827L25.374479166666664,124.78045842647553L25.835833333333333,121.94265193343162L26.2971875,129.09130296707156L26.758541666666666,124.35259348750114L27.219895833333332,123.81572044491767L27.681250000000002,131.36847249269488L28.14260416666667,126.71694136261941L28.603958333333335,127.57404274344444L29.065312499999997,120.77691844701766L29.526666666666667,124.2993774175644L29.988020833333334,121.03862932920457L30.449375,119.66404936313629L30.910729166666666,121.20545155405999L31.372083333333332,130.3132153213024L31.833437500000002,121.79477578997613L32.29479166666667,126.72489783763885L32.756145833333335,127.02826372385024L33.2175,130.8694036960602L33.67885416666667,131.63930035233497L34.140208333333334,126.37926152944566L34.6015625,128.5437831938267L35.062916666666666,128.04320222735404L35.52427083333333,126.67363352179528L35.985625,132.98975593447685L36.446979166666665,129.7961851119995L36.90833333333333,135.4365698158741L37.369687500000005,129.64916176199915L37.831041666666664,130.55023036003112L38.29239583333334,134.37073624730112L38.753750000000004,136.42744547724726L39.21510416666666,131.5111351668835L39.676458333333336,130.97008607387542L40.137812499999995,126.01998052597047L40.59916666666667,127.655040538311L41.060520833333335,138.8215532064438L41.521875,130.955307251215L41.98322916666667,129.88218537569048L42.44458333333333,134.7123371720314L42.9059375,126.40669158697129L43.36729166666667,130.54780385494232L43.82864583333333,136.83035082221033L44.29,133.73769975304603L44.751354166666665,130.4616805076599L45.21270833333333,135.73757073879244L45.674062500000005,125.66789991259576L46.135416666666664,130.59533170461654L46.59677083333333,132.92913726568224L47.058125000000004,136.4104511499405L47.51947916666666,139.1054103434086L47.98083333333334,132.85788944959643L48.442187499999996,132.96188629269602L48.90354166666667,134.76707420349123L49.364895833333335,134.19292441606524L49.82625,130.6676696896553L50.28760416666667,136.68978056907653L50.74895833333333,134.5554055929184L51.2103125,129.04463670253753L51.67166666666667,144.69686052799227L52.13302083333333,134.0550707936287L52.594375,136.69937229752543L53.05572916666667,132.27082467675208L53.51708333333333,133.7625274717808L53.9784375,130.17817503809928L54.439791666666665,133.20545113682746L54.90114583333333,133.36508176326754L55.362500000000004,131.56530953049662L55.82385416666666,134.37321550250056L56.28520833333334,135.2253319978714L56.746562499999996,141.66037074327468L57.20791666666667,135.95788157582285L57.669270833333336,132.51202455759048L58.130624999999995,128.918660646677L58.59197916666667,136.74602097868922L59.053333333333335,130.27897170782092L59.5146875,136.45895487666132L59.97604166666667,129.7923343539238L60.43739583333333,132.98206321001055L60.89875,136.60635626912116L61.36010416666667,130.89484683275222L61.82145833333333,131.42859003543853L62.2828125,132.0179670214653L62.744166666666665,134.57283950448036L63.20552083333333,139.1704072713852L63.666875000000005,127.22198850512504L64.12822916666667,135.26081523895266L64.58958333333334,128.30515927672386L65.0509375,131.81959143877032L65.51229166666667,129.37645248174667L65.97364583333334,133.79821292161944L66.435,137.088588988781L66.89635416666667,128.2174973845482L67.35770833333333,131.7427784860134L67.8190625,138.40382508039477L68.28041666666667,132.23593927025794L68.74177083333333,131.27914018034937L69.203125,136.2245421767235L69.66447916666667,135.87425506711008L70.12583333333333,135.94706780314448L70.5871875,139.38465184569358L71.04854166666667,134.6175979733467L71.50989583333335,129.20155069828036L71.97125,135.76250395774844L72.43260416666666,133.88697377443316L72.89395833333333,135.9658908009529L73.3553125,130.70230892896652L73.81666666666666,130.1832654237747L74.27802083333333,130.5431354701519L74.73937500000001,129.83677632212638L75.20072916666666,133.11928383111953L75.66208333333333,140.22766015529635L76.12343750000001,132.85046047568324L76.58479166666667,134.5409256875515L77.04614583333333,142.53889746069908L77.50750000000001,137.18940324187278L77.96885416666667,139.12043533325198L78.43020833333333,138.33180359601977L78.89156249999999,139.22101221084597L79.35291666666667,135.9269963860512L79.81427083333334,140.18359622955325L80.27562499999999,129.53648752570155L80.73697916666667,136.16431034207343L81.19833333333334,128.92261690497398L81.65968749999999,136.38910493850707L82.12104166666667,136.3575252056122L82.58239583333334,135.01696026921275L83.04375,142.11367002725603L83.50510416666667,138.65523210763934L83.96645833333334,139.07603732347488L84.4278125,134.76968533396723L84.88916666666665,130.23284173607829L85.35052083333333,139.55278403162959L85.811875,141.27987540364268L86.27322916666667,131.8717261314392L86.73458333333333,130.24122900366785L87.1959375,141.71370989680292L87.65729166666667,134.01328391432764L88.11864583333335,140.95426655411723L88.58,139.95590037703516L89.04135416666666,132.71598286032676L89.50270833333333,137.4002102673054L89.9640625,140.4448411524296L90.42541666666666,134.3370640933514L90.88677083333333,133.14489400982856L91.34812500000001,130.90977511405944L91.80947916666666,140.11869601011276L92.27083333333333,136.4957480788231L92.73218750000001,135.67565090060236L93.19354166666666,133.81510174870493L93.65489583333333,134.20656031966212L94.11625000000001,140.8492235004902L94.57760416666667,142.82614818811416L95.03895833333333,133.14974702000617L95.50031249999999,136.1320272743702L95.96166666666667,136.60429901480674L96.42302083333333,139.6380985438824L96.88437499999999,133.00682059526443L97.34572916666667,135.93066251873972L97.80708333333334,134.84875774979594L98.26843749999999,136.70200101137164L98.72979166666667,137.8995428144932L99.19114583333334,135.82949659824374L99.6525,133.66066700816157L100.11385416666667,136.09639457464218L100.57520833333334,136.60947731733324L101.0365625,135.87838715910914L101.49791666666665,134.11106503605842L101.95927083333333,136.41120723485946L102.420625,138.18327686786654L102.88197916666667,138.51000226140022L103.34333333333333,135.5043449163437L103.8046875,135.14620683193206L104.26604166666667,136.1740339457989L104.72739583333333,135.52020511627197L105.18875,132.5448702931404L105.65010416666667,134.59245375394823L106.11145833333335,140.0155343770981L106.5728125,132.1621946156025L107.03416666666666,131.2180555522442L107.49552083333333,133.73253024220466L107.956875,133.30597526431086L108.41822916666666,136.26489601135256L108.87958333333333,141.14262840747833L109.34093750000001,129.96194354295733L109.80229166666666,131.65865085124972L110.26364583333333,134.30821857452392L110.72500000000001,138.55125284790992L111.18635416666667,135.50868800878527L111.64770833333333,135.8483547627926L112.10906250000001,139.83153319954874L112.57041666666667,142.24420017600062L113.03177083333333,131.18216789364814L113.49312499999999,142.56499997377398L113.95447916666667,136.9600721359253L114.41583333333334,139.56502205729487L114.87718749999999,136.52680910229682L115.33854166666667,137.10883623957636L115.79989583333334,136.70459455847742L116.26124999999999,139.52917835712435L116.72260416666667,142.53747320771217L117.18395833333334,137.3156957983971L117.6453125,134.80435094833376L118.10666666666667,139.4979327082634L118.56802083333334,142.48166359066963L119.029375,137.97456226348876L119.49072916666665,133.97722921371462L119.95208333333333,137.1165641307831L120.4134375,142.72339976429942L120.87479166666667,131.78632370233535L121.33614583333333,132.5417932033539L121.7975,140.02078301310542L122.25885416666667,132.41818211078643L122.72020833333335,138.18195811510088L123.1815625,143.50242218971255L123.64291666666666,138.9541845679283L124.10427083333333,141.37358597517016L124.565625,137.36092901825907L125.02697916666666,129.62257570624354L125.48833333333333,141.4905593454838L125.94968750000001,136.7956676244736L126.41104166666666,132.62823305130004L126.87239583333333,144.0936542212963L127.33375000000001,136.44401780366897L127.79510416666666,135.68949780464175L128.25645833333334,139.02287400364878L128.7178125,140.8683366239071L129.17916666666667,135.1752018094063L129.64052083333334,133.71619529128077L130.101875,137.92119673490527L130.56322916666667,140.74264190196993L131.02458333333334,142.40882447957995L131.4859375,134.9007693588734L131.94729166666667,137.74247056841853L132.40864583333334,145.13785145282745L132.87,134.56417969465258L133.33135416666667,132.96818113923072L133.79270833333334,140.21139553785326L134.2540625,135.2724378466606L134.71541666666667,140.7860904097557L135.17677083333334,138.22729683518412L135.638125,136.41432828307154L136.09947916666667,128.8479930818081L136.56083333333333,134.6766605138779L137.0221875,138.98785672187807L137.48354166666667,135.5628623723984L137.94489583333333,133.92178884744646L138.40625,136.17410427927973L138.86760416666667,138.93453515172004L139.32895833333333,144.04052606821062L139.7903125,142.7441041827202L140.25166666666667,141.01292467713358L140.71302083333333,135.66608554720878L141.174375,138.61750698685645L141.6357291666667,135.0921907186508L142.09708333333333,140.33447912931445L142.5584375,134.56189385652542L143.0197916666667,132.7363092362881L143.48114583333333,132.80121824741366L143.9425,130.16278958916666L144.40385416666666,132.89661682248118L144.86520833333333,139.42745856046676L145.3265625,141.66935584545138L145.78791666666666,140.97062788009646L146.24927083333333,136.76078221797943L146.710625,138.6579751133919L147.17197916666666,125.83586505651473L147.63333333333333,138.3043207883835L148.09468750000002,131.2284736990929L148.55604166666666,144.15148592591288L149.01739583333332,138.3957191467285L149.47875000000002,135.08179894685745L149.94010416666666,135.26969484090804L150.40145833333332,133.81026632189753L150.86281250000002,136.33189744353294L151.32416666666666,138.5329221844673L151.78552083333332,138.8342835664749L152.24687500000002,139.70059863328933L152.70822916666665,143.37219095826148L153.16958333333335,133.80124605298045L153.63093750000002,142.09354586005213L154.09229166666665,137.9559150993824L154.55364583333335,145.25756782889366L155.01500000000001,136.90863198637965L155.47635416666665,132.2160876452923L155.93770833333335,141.57398364543917L156.39906249999999,130.0363475739956L156.86041666666665,138.99028322696688L157.32177083333335,138.69716844558718L157.78312499999998,136.68676502108576L158.24447916666665,134.60252902507784L158.70583333333335,140.30405110716822L159.16718749999998,135.01450738906863L159.62854166666668,135.20713320970535L160.08989583333334,138.13971406817438L160.55124999999998,132.94327429533007L161.01260416666668,136.58511555790903L161.47395833333334,141.63592985868456L161.93531249999998,144.07433009743693L162.39666666666668,142.52353838682177L162.85802083333334,143.18838319778442L163.31937499999998,137.7868597865105L163.78072916666667,140.942538446188L164.24208333333334,130.08102691769602L164.7034375,141.22045240402224L165.16479166666667,134.6814871490002L165.62614583333334,141.87232068777084L166.0875,139.8552619576454L166.54885416666667,141.22954300642016L167.01020833333334,131.43665201067927L167.4715625,147.40994817614555L167.93291666666667,138.98124537467956L168.3942708333333,133.39729449748995L168.855625,134.46319839954376L169.31697916666667,127.4158451616764L169.7783333333333,131.23625434041026L170.2396875,136.86741656661033L170.70104166666667,135.57903028130534L171.16239583333333,138.14454949498176L171.62375,144.1182093977928L172.08510416666667,130.65069294571876L172.54645833333333,140.56332669258117L173.0078125,135.4959400653839L173.46916666666667,130.0579135775566L173.93052083333333,135.11850423216822L174.391875,141.3646360397339L174.85322916666667,139.93307716250422L175.31458333333333,131.91164038181307L175.7759375,138.68872842788699L176.2372916666667,136.05305156707766L176.69864583333333,139.6119696557522L177.16,137.78519815802576L177.6213541666667,138.46398658156397L178.08270833333333,142.43625453710558L178.5440625,131.79712868332862L179.00541666666666,135.91969928741457L179.46677083333333,134.86038914918902L179.928125,135.225718832016L180.38947916666666,131.364947026968L180.85083333333333,134.88441682457926L181.3121875,139.48344401121142L181.77354166666666,142.89577833414077L182.23489583333333,141.11477634906768L182.69625000000002,135.59358052015304L183.15760416666666,134.8886016666889L183.61895833333332,146.17039090991022L184.08031250000002,132.68697029948234L184.54166666666666,135.15813714861872L185.00302083333332,137.4587804734707L185.46437500000002,139.20799172520637L185.92572916666666,142.79357499480247L186.38708333333332,136.59640408158305L186.84843750000002,135.53843907117846L187.30979166666665,138.18625724911692L187.77114583333335,145.19445232152938L188.23250000000002,137.7485280394554L188.69385416666665,137.97598651647567L189.15520833333335,137.32743269801142L189.61656250000001,139.3639122605324L190.07791666666665,138.72771955132487L190.53927083333335,143.4591495156288L191.00062499999999,138.7596157848835L191.46197916666665,138.7453117132187L191.92333333333335,144.6839015841484L192.38468749999998,138.74491608738902L192.84604166666665,137.76669166088107L193.30739583333335,145.05462936162948L193.76874999999998,138.45449156165125L194.23010416666668,135.7073009669781L194.69145833333334,137.15322545766833L195.15281249999998,135.98667434453964L195.61416666666668,137.9856222033501L196.07552083333334,134.14829782247546L196.53687499999998,140.31799471974375L196.99822916666668,143.10346431136134L197.45958333333334,138.36400753855708L197.92093749999998,141.11970848441123L198.38229166666667,143.43980780839922L198.84364583333334,142.99805200695994L199.305,134.88910279273986L199.76635416666667,141.5221214950085L200.22770833333334,139.0535394012928L200.6890625,142.13186881542208L201.15041666666667,141.95193818807604L201.61177083333334,147.5470457136631L202.073125,135.02946204543116L202.53447916666667,143.6604263544083L202.9958333333333,141.79686165452003L203.4571875,141.05007833838462L203.91854166666667,135.57040563821795L204.3798958333333,137.65904626846316L204.84125,134.35523650646212L205.30260416666667,138.2365105211735L205.76395833333333,140.31271970868113L206.2253125,137.65038645863532L206.68666666666667,138.36944959163665L207.14802083333333,137.94256932139396L207.609375,136.22127166986468L208.07072916666667,135.86609638333323L208.53208333333333,143.1001674294472L208.9934375,136.32166392207145L209.45479166666667,133.60774106383326L209.91614583333333,143.0772475063801L210.3775,139.55400607585906L210.8388541666667,137.78530365824702L211.30020833333333,139.16561580300333L211.7615625,133.4352130353451L212.2229166666667,141.41281447410583L212.68427083333333,140.17831242680552L213.145625,137.7947635114193L213.60697916666666,142.13254577517512L214.06833333333333,135.60342720746996L214.5296875,139.6824262201786L214.99104166666666,145.03075114488604L215.45239583333333,139.49654362201693L215.91375,133.9933267891407L216.37510416666666,142.4115411102772L216.83645833333333,132.13858894109725L217.29781250000002,139.47512707710268L217.75916666666666,146.60500786304473L218.22052083333332,140.30049047470095L218.68187500000002,141.366499876976L219.14322916666666,138.06341982483863L219.60458333333332,142.19233802556994L220.06593750000002,141.30863300561904L220.52729166666666,137.08006105422976L220.98864583333332,129.15531522631647L221.45000000000002,136.92496693730354L221.91135416666665,135.57306951880457L222.37270833333335,143.81088725328445L222.83406250000002,139.32079783678054L223.29541666666665,137.24487877488139L223.75677083333335,143.36645877957346L224.21812500000001,140.01244849562647L224.67947916666665,139.48611668348312L225.14083333333335,136.57656124830248L225.60218749999999,133.73326874375343L226.06354166666665,140.29901347160342L226.52489583333335,139.7363368332386L226.98624999999998,135.56624717116358L227.44760416666665,135.06370565891265L227.90895833333335,141.22493616342547L228.37031249999998,139.90282497406008L228.83166666666668,135.77519915103912L229.29302083333334,142.5369193315506L229.75437499999998,143.4936832547188L230.21572916666668,138.62387216687205L230.67708333333334,134.61444175839426L231.13843749999998,135.57507402300837L231.59979166666668,131.2343641281128L232.06114583333334,141.86815342903137L232.52249999999998,141.25584772825243L232.98385416666667,139.46118346452715L233.44520833333334,142.627420938015L233.9065625,140.2191410124302L234.36791666666667,140.57516030073168L234.82927083333334,139.29657674431803L235.290625,142.6799776315689L235.75197916666667,137.00457564592364L236.21333333333334,143.21896947026255L236.6746875,143.4638882339001L237.13604166666667,140.90766183137896L237.5973958333333,135.77625415325164L238.05875,137.47217020988464L238.52010416666667,138.0474892914295L238.9814583333333,136.81341803669932L239.4428125,135.41557527184486L239.90416666666667,138.7885668039322L240.36552083333333,138.11194113492968L240.826875,145.33707982897758L241.28822916666667,137.58895016312601L241.74958333333333,141.76014757752418L242.2109375,136.71436212062835L242.67229166666667,134.53454292416572L243.13364583333333,139.00540492534637L243.595,138.99984858036044L244.05635416666667,142.24088571071624L244.51770833333333,136.04357413053515L244.9790625,142.8030348479748L245.4404166666667,144.0594721496105L245.90177083333333,138.81322748064997L246.363125,138.8847654223442L246.8244791666667,140.12093788981437L247.28583333333333,135.62428987622263L247.7471875,133.72587493658068L248.20854166666666,136.27579770088195L248.66989583333333,138.11798981428146L249.13125,141.2453416645527L249.59260416666666,145.96486768722534L250.05395833333333,140.6290884971619L250.5153125,136.7375282108784L250.97666666666666,139.66925627589228L251.43802083333333,141.4042953312397L251.89937500000002,133.4639706373215L252.36072916666666,143.27332845926287L252.82208333333332,142.19283035993575L253.28343750000002,130.60119575858118" style="fill: none;" fill="none"></path></g></g></g></g></g></g><g transform="translate(53, 177)" clip-path="url(#clip_1)"><clipPath id="clip_1"><rect width="276" height="22"></rect></clipPath><g><g><line x1="0" y1="0" x2="0" y2="5" style="visibility: inherit;" fill="rgb(0, 0, 0)" stroke="rgb(204, 204, 204)" stroke-width="1px"></line><line x1="23.067708333333332" y1="0" x2="23.067708333333332" y2="5" style="visibility: inherit;" fill="rgb(0, 0, 0)" stroke="rgb(204, 204, 204)" stroke-width="1px"></line><line x1="46.135416666666664" y1="0" x2="46.135416666666664" y2="5" style="visibility: inherit;" fill="rgb(0, 0, 0)" stroke="rgb(204, 204, 204)" stroke-width="1px"></line><line x1="69.203125" y1="0" x2="69.203125" y2="5" style="visibility: inherit;" fill="rgb(0, 0, 0)" stroke="rgb(204, 204, 204)" stroke-width="1px"></line><line x1="92.27083333333333" y1="0" x2="92.27083333333333" y2="5" style="visibility: inherit;" fill="rgb(0, 0, 0)" stroke="rgb(204, 204, 204)" stroke-width="1px"></line><line x1="115.33854166666667" y1="0" x2="115.33854166666667" y2="5" style="visibility: inherit;" fill="rgb(0, 0, 0)" stroke="rgb(204, 204, 204)" stroke-width="1px"></line><line x1="138.40625" y1="0" x2="138.40625" y2="5" style="visibility: inherit;" fill="rgb(0, 0, 0)" stroke="rgb(204, 204, 204)" stroke-width="1px"></line><line x1="161.47395833333334" y1="0" x2="161.47395833333334" y2="5" style="visibility: inherit;" fill="rgb(0, 0, 0)" stroke="rgb(204, 204, 204)" stroke-width="1px"></line><line x1="184.54166666666666" y1="0" x2="184.54166666666666" y2="5" style="visibility: inherit;" fill="rgb(0, 0, 0)" stroke="rgb(204, 204, 204)" stroke-width="1px"></line><line x1="207.609375" y1="0" x2="207.609375" y2="5" style="visibility: inherit;" fill="rgb(0, 0, 0)" stroke="rgb(204, 204, 204)" stroke-width="1px"></line><line x1="230.67708333333334" y1="0" x2="230.67708333333334" y2="5" style="visibility: inherit;" fill="rgb(0, 0, 0)" stroke="rgb(204, 204, 204)" stroke-width="1px"></line><line x1="253.74479166666666" y1="0" x2="253.74479166666666" y2="5" style="visibility: inherit;" fill="rgb(0, 0, 0)" stroke="rgb(204, 204, 204)" stroke-width="1px"></line><line x1="276.8125" y1="0" x2="276.8125" y2="5" style="visibility: inherit;" fill="rgb(0, 0, 0)" stroke="rgb(204, 204, 204)" stroke-width="1px"></line></g><g transform="translate(0, 8)"><text x="0" y="0" dx="0em" dy="0.95em" style="text-anchor: middle; visibility: hidden; font-family: &quot;Helvetica Neue&quot;, sans-serif; font-size: 13.3333px; font-weight: 200;" fill="rgb(50, 49, 63)" stroke="none" stroke-width="1px">-50</text><text x="23.067708333333332" y="0" dx="0em" dy="0.95em" style="text-anchor: middle; visibility: inherit; font-family: &quot;Helvetica Neue&quot;, sans-serif; font-size: 13.3333px; font-weight: 200;" fill="rgb(50, 49, 63)" stroke="none" stroke-width="1px">0</text><text x="46.135416666666664" y="0" dx="0em" dy="0.95em" style="text-anchor: middle; visibility: hidden; font-family: &quot;Helvetica Neue&quot;, sans-serif; font-size: 13.3333px; font-weight: 200;" fill="rgb(50, 49, 63)" stroke="none" stroke-width="1px">50</text><text x="69.203125" y="0" dx="0em" dy="0.95em" style="text-anchor: middle; visibility: inherit; font-family: &quot;Helvetica Neue&quot;, sans-serif; font-size: 13.3333px; font-weight: 200;" fill="rgb(50, 49, 63)" stroke="none" stroke-width="1px">100</text><text x="92.27083333333333" y="0" dx="0em" dy="0.95em" style="text-anchor: middle; visibility: hidden; font-family: &quot;Helvetica Neue&quot;, sans-serif; font-size: 13.3333px; font-weight: 200;" fill="rgb(50, 49, 63)" stroke="none" stroke-width="1px">150</text><text x="115.33854166666667" y="0" dx="0em" dy="0.95em" style="text-anchor: middle; visibility: inherit; font-family: &quot;Helvetica Neue&quot;, sans-serif; font-size: 13.3333px; font-weight: 200;" fill="rgb(50, 49, 63)" stroke="none" stroke-width="1px">200</text><text x="138.40625" y="0" dx="0em" dy="0.95em" style="text-anchor: middle; visibility: hidden; font-family: &quot;Helvetica Neue&quot;, sans-serif; font-size: 13.3333px; font-weight: 200;" fill="rgb(50, 49, 63)" stroke="none" stroke-width="1px">250</text><text x="161.47395833333334" y="0" dx="0em" dy="0.95em" style="text-anchor: middle; visibility: inherit; font-family: &quot;Helvetica Neue&quot;, sans-serif; font-size: 13.3333px; font-weight: 200;" fill="rgb(50, 49, 63)" stroke="none" stroke-width="1px">300</text><text x="184.54166666666666" y="0" dx="0em" dy="0.95em" style="text-anchor: middle; visibility: hidden; font-family: &quot;Helvetica Neue&quot;, sans-serif; font-size: 13.3333px; font-weight: 200;" fill="rgb(50, 49, 63)" stroke="none" stroke-width="1px">350</text><text x="207.609375" y="0" dx="0em" dy="0.95em" style="text-anchor: middle; visibility: inherit; font-family: &quot;Helvetica Neue&quot;, sans-serif; font-size: 13.3333px; font-weight: 200;" fill="rgb(50, 49, 63)" stroke="none" stroke-width="1px">400</text><text x="230.67708333333334" y="0" dx="0em" dy="0.95em" style="text-anchor: middle; visibility: hidden; font-family: &quot;Helvetica Neue&quot;, sans-serif; font-size: 13.3333px; font-weight: 200;" fill="rgb(50, 49, 63)" stroke="none" stroke-width="1px">450</text><text x="253.74479166666666" y="0" dx="0em" dy="0.95em" style="text-anchor: middle; visibility: inherit; font-family: &quot;Helvetica Neue&quot;, sans-serif; font-size: 13.3333px; font-weight: 200;" fill="rgb(50, 49, 63)" stroke="none" stroke-width="1px">500</text><text x="276.8125" y="0" dx="0em" dy="0.95em" style="text-anchor: middle; visibility: hidden; font-family: &quot;Helvetica Neue&quot;, sans-serif; font-size: 13.3333px; font-weight: 200;" fill="rgb(50, 49, 63)" stroke="none" stroke-width="1px">550</text></g><line x1="0" y1="0" x2="276.8125" y2="0" fill="rgb(0, 0, 0)" stroke="rgb(204, 204, 204)" stroke-width="1px"></line></g></g></g></g></svg>