<svg viewBox="0 0 330.0000305175781 200.00001525878906" xmlns="http://www.w3.org/2000/svg"><g><g><g><g><g><line x1="63.984375" y1="177" x2="58.984375" y2="177" style="visibility: inherit;" fill="rgb(0, 0, 0)" stroke="rgb(204, 204, 204)" stroke-width="1px"></line><line x1="63.984375" y1="162.24999999999997" x2="58.984375" y2="162.24999999999997" style="visibility: inherit;" fill="rgb(0, 0, 0)" stroke="rgb(204, 204, 204)" stroke-width="1px"></line><line x1="63.984375" y1="147.49999999999994" x2="58.984375" y2="147.49999999999994" style="visibility: inherit;" fill="rgb(0, 0, 0)" stroke="rgb(204, 204, 204)" stroke-width="1px"></line><line x1="63.984375" y1="132.74999999999991" x2="58.984375" y2="132.74999999999991" style="visibility: inherit;" fill="rgb(0, 0, 0)" stroke="rgb(204, 204, 204)" stroke-width="1px"></line><line x1="63.984375" y1="117.99999999999989" x2="58.984375" y2="117.99999999999989" style="visibility: inherit;" fill="rgb(0, 0, 0)" stroke="rgb(204, 204, 204)" stroke-width="1px"></line><line x1="63.984375" y1="103.24999999999986" x2="58.984375" y2="103.24999999999986" style="visibility: inherit;" fill="rgb(0, 0, 0)" stroke="rgb(204, 204, 204)" stroke-width="1px"></line><line x1="63.984375" y1="88.49999999999984" x2="58.984375" y2="88.49999999999984" style="visibility: inherit;" fill="rgb(0, 0, 0)" stroke="rgb(204, 204, 204)" stroke-width="1px"></line><line x1="63.984375" y1="73.74999999999982" x2="58.984375" y2="73.74999999999982" style="visibility: inherit;" fill="rgb(0, 0, 0)" stroke="rgb(204, 204, 204)" stroke-width="1px"></line><line x1="63.984375" y1="58.99999999999979" x2="58.984375" y2="58.99999999999979" style="visibility: inherit;" fill="rgb(0, 0, 0)" stroke="rgb(204, 204, 204)" stroke-width="1px"></line><line x1="63.984375" y1="44.249999999999744" x2="58.984375" y2="44.249999999999744" style="visibility: inherit;" fill="rgb(0, 0, 0)" stroke="rgb(204, 204, 204)" stroke-width="1px"></line><line x1="63.984375" y1="29.500000000000057" x2="58.984375" y2="29.500000000000057" style="visibility: inherit;" fill="rgb(0, 0, 0)" stroke="rgb(204, 204, 204)" stroke-width="1px"></line><line x1="63.984375" y1="14.750000000000028" x2="58.984375" y2="14.750000000000028" style="visibility: inherit;" fill="rgb(0, 0, 0)" stroke="rgb(204, 204, 204)" stroke-width="1px"></line><line x1="63.984375" y1="0" x2="58.984375" y2="0" style="visibility: inherit;" fill="rgb(0, 0, 0)" stroke="rgb(204, 204, 204)" stroke-width="1px"></line></g><g transform="translate(53.984375, 0)"><text x="0" y="177" dx="0em" dy="0.3em" style="text-anchor: end; visibility: hidden; font-family: &quot;Helvetica Neue&quot;, sans-serif; font-size: 13.3333px; font-weight: 200;" fill="rgb(50, 49, 63)" stroke="none" stroke-width="1px">0.89</text><text x="0" y="162.24999999999997" dx="0em" dy="0.3em" style="text-anchor: end; visibility: inherit; font-family: &quot;Helvetica Neue&quot;, sans-serif; font-size: 13.3333px; font-weight: 200;" fill="rgb(50, 49, 63)" stroke="none" stroke-width="1px">0.895</text><text x="0" y="147.49999999999994" dx="0em" dy="0.3em" style="text-anchor: end; visibility: hidden; font-family: &quot;Helvetica Neue&quot;, sans-serif; font-size: 13.3333px; font-weight: 200;" fill="rgb(50, 49, 63)" stroke="none" stroke-width="1px">0.9</text><text x="0" y="132.74999999999991" dx="0em" dy="0.3em" style="text-anchor: end; visibility: inherit; font-family: &quot;Helvetica Neue&quot;, sans-serif; font-size: 13.3333px; font-weight: 200;" fill="rgb(50, 49, 63)" stroke="none" stroke-width="1px">0.905</text><text x="0" y="117.99999999999989" dx="0em" dy="0.3em" style="text-anchor: end; visibility: hidden; font-family: &quot;Helvetica Neue&quot;, sans-serif; font-size: 13.3333px; font-weight: 200;" fill="rgb(50, 49, 63)" stroke="none" stroke-width="1px">0.91</text><text x="0" y="103.24999999999986" dx="0em" dy="0.3em" style="text-anchor: end; visibility: inherit; font-family: &quot;Helvetica Neue&quot;, sans-serif; font-size: 13.3333px; font-weight: 200;" fill="rgb(50, 49, 63)" stroke="none" stroke-width="1px">0.915</text><text x="0" y="88.49999999999984" dx="0em" dy="0.3em" style="text-anchor: end; visibility: hidden; font-family: &quot;Helvetica Neue&quot;, sans-serif; font-size: 13.3333px; font-weight: 200;" fill="rgb(50, 49, 63)" stroke="none" stroke-width="1px">0.92</text><text x="0" y="73.74999999999982" dx="0em" dy="0.3em" style="text-anchor: end; visibility: inherit; font-family: &quot;Helvetica Neue&quot;, sans-serif; font-size: 13.3333px; font-weight: 200;" fill="rgb(50, 49, 63)" stroke="none" stroke-width="1px">0.925</text><text x="0" y="58.99999999999979" dx="0em" dy="0.3em" style="text-anchor: end; visibility: hidden; font-family: &quot;Helvetica Neue&quot;, sans-serif; font-size: 13.3333px; font-weight: 200;" fill="rgb(50, 49, 63)" stroke="none" stroke-width="1px">0.93</text><text x="0" y="44.249999999999744" dx="0em" dy="0.3em" style="text-anchor: end; visibility: inherit; font-family: &quot;Helvetica Neue&quot;, sans-serif; font-size: 13.3333px; font-weight: 200;" fill="rgb(50, 49, 63)" stroke="none" stroke-width="1px">0.935</text><text x="0" y="29.500000000000057" dx="0em" dy="0.3em" style="text-anchor: end; visibility: hidden; font-family: &quot;Helvetica Neue&quot;, sans-serif; font-size: 13.3333px; font-weight: 200;" fill="rgb(50, 49, 63)" stroke="none" stroke-width="1px">0.94</text><text x="0" y="14.750000000000028" dx="0em" dy="0.3em" style="text-anchor: end; visibility: inherit; font-family: &quot;Helvetica Neue&quot;, sans-serif; font-size: 13.3333px; font-weight: 200;" fill="rgb(50, 49, 63)" stroke="none" stroke-width="1px">0.945</text><text x="0" y="0" dx="0em" dy="0.3em" style="text-anchor: end; visibility: hidden; font-family: &quot;Helvetica Neue&quot;, sans-serif; font-size: 13.3333px; font-weight: 200;" fill="rgb(50, 49, 63)" stroke="none" stroke-width="1px">0.95</text></g><line x1="63.984375" y1="0" x2="63.984375" y2="177" fill="rgb(0, 0, 0)" stroke="rgb(204, 204, 204)" stroke-width="1px"></line></g></g><g transform="translate(63, 0)" clip-path="url(#clip_0)"><clipPath id="clip_0"><rect width="266" height="176"></rect></clipPath><g><g><g><line x1="0" y1="0" x2="0" y2="177" fill="rgb(0, 0, 0)" stroke="rgb(60, 60, 60)" stroke-width="1px" opacity="0.25"></line><line x1="22.16796875" y1="0" x2="22.16796875" y2="177" fill="rgb(0, 0, 0)" stroke="rgb(60, 60, 60)" stroke-width="1px" opacity="0.25"></line><line x1="44.3359375" y1="0" x2="44.3359375" y2="177" fill="rgb(0, 0, 0)" stroke="rgb(60, 60, 60)" stroke-width="1px" opacity="0.25"></line><line x1="66.50390625" y1="0" x2="66.50390625" y2="177" fill="rgb(0, 0, 0)" stroke="rgb(60, 60, 60)" stroke-width="1px" opacity="0.25"></line><line x1="88.671875" y1="0" x2="88.671875" y2="177" fill="rgb(0, 0, 0)" stroke="rgb(60, 60, 60)" stroke-width="1px" opacity="0.25"></line><line x1="110.83984375" y1="0" x2="110.83984375" y2="177" fill="rgb(0, 0, 0)" stroke="rgb(60, 60, 60)" stroke-width="1px" opacity="0.25"></line><line x1="133.0078125" y1="0" x2="133.0078125" y2="177" fill="rgb(0, 0, 0)" stroke="rgb(60, 60, 60)" stroke-width="1px" opacity="0.25"></line><line x1="155.17578125" y1="0" x2="155.17578125" y2="177" fill="rgb(0, 0, 0)" stroke="rgb(60, 60, 60)" stroke-width="1px" opacity="0.25"></line><line x1="177.34375" y1="0" x2="177.34375" y2="177" fill="rgb(0, 0, 0)" stroke="rgb(60, 60, 60)" stroke-width="1px" opacity="0.25"></line><line x1="199.51171875" y1="0" x2="199.51171875" y2="177" fill="rgb(0, 0, 0)" stroke="rgb(60, 60, 60)" stroke-width="1px" opacity="0.25"></line><line x1="221.6796875" y1="0" x2="221.6796875" y2="177" fill="rgb(0, 0, 0)" stroke="rgb(60, 60, 60)" stroke-width="1px" opacity="0.25"></line><line x1="243.84765625" y1="0" x2="243.84765625" y2="177" fill="rgb(0, 0, 0)" stroke="rgb(60, 60, 60)" stroke-width="1px" opacity="0.25"></line><line x1="266.015625" y1="0" x2="266.015625" y2="177" fill="rgb(0, 0, 0)" stroke="rgb(60, 60, 60)" stroke-width="1px" opacity="0.25"></line></g><g><line x1="0" y1="177" x2="266.015625" y2="177" fill="rgb(0, 0, 0)" stroke="rgb(60, 60, 60)" stroke-width="1px" opacity="0.25"></line><line x1="0" y1="162.24999999999997" x2="266.015625" y2="162.24999999999997" fill="rgb(0, 0, 0)" stroke="rgb(60, 60, 60)" stroke-width="1px" opacity="0.25"></line><line x1="0" y1="147.49999999999994" x2="266.015625" y2="147.49999999999994" fill="rgb(0, 0, 0)" stroke="rgb(60, 60, 60)" stroke-width="1px" opacity="0.25"></line><line x1="0" y1="132.74999999999991" x2="266.015625" y2="132.74999999999991" fill="rgb(0, 0, 0)" stroke="rgb(60, 60, 60)" stroke-width="1px" opacity="0.25"></line><line x1="0" y1="117.99999999999989" x2="266.015625" y2="117.99999999999989" fill="rgb(0, 0, 0)" stroke="rgb(60, 60, 60)" stroke-width="1px" opacity="0.25"></line><line x1="0" y1="103.24999999999986" x2="266.015625" y2="103.24999999999986" fill="rgb(0, 0, 0)" stroke="rgb(60, 60, 60)" stroke-width="1px" opacity="0.25"></line><line x1="0" y1="88.49999999999984" x2="266.015625" y2="88.49999999999984" fill="rgb(0, 0, 0)" stroke="rgb(60, 60, 60)" stroke-width="1px" opacity="0.25"></line><line x1="0" y1="73.74999999999982" x2="266.015625" y2="73.74999999999982" fill="rgb(0, 0, 0)" stroke="rgb(60, 60, 60)" stroke-width="1px" opacity="0.25"></line><line x1="0" y1="58.99999999999979" x2="266.015625" y2="58.99999999999979" fill="rgb(0, 0, 0)" stroke="rgb(60, 60, 60)" stroke-width="1px" opacity="0.25"></line><line x1="0" y1="44.249999999999744" x2="266.015625" y2="44.249999999999744" fill="rgb(0, 0, 0)" stroke="rgb(60, 60, 60)" stroke-width="1px" opacity="0.25"></line><line x1="0" y1="29.500000000000057" x2="266.015625" y2="29.500000000000057" fill="rgb(0, 0, 0)" stroke="rgb(60, 60, 60)" stroke-width="1px" opacity="0.25"></line><line x1="0" y1="14.750000000000028" x2="266.015625" y2="14.750000000000028" fill="rgb(0, 0, 0)" stroke="rgb(60, 60, 60)" stroke-width="1px" opacity="0.25"></line><line x1="0" y1="0" x2="266.015625" y2="0" fill="rgb(0, 0, 0)" stroke="rgb(60, 60, 60)" stroke-width="1px" opacity="0.25"></line></g></g></g><g><g><line x1="0" y1="2802.5000000000027" x2="266.015625" y2="2802.5000000000027" fill="rgb(0, 0, 0)" stroke="rgb(153, 153, 153)" stroke-width="1.5px"></line></g></g><g><g><line x1="22.16796875" y1="0" x2="22.16796875" y2="177" fill="rgb(0, 0, 0)" stroke="rgb(153, 153, 153)" stroke-width="1.5px"></line></g></g><g><g><g><g><g><path stroke="rgb(255, 112, 67)" stroke-width="2px" d="M22.16796875,143.56174707412688L22.611328125,92.47029773890935L23.0546875,71.74846415617026L23.498046875,64.63236420470132L23.94140625,60.58211420039025L24.384765625,56.591822723712795L24.828125,49.9749218082751L25.271484375,51.17357871214436L25.71484375,47.04462531290619L26.158203125,47.58427892265718L26.6015625,48.9496420207619L27.044921875,47.88241331696153L27.48828125,47.666681010764535L27.931640625,47.72634520632022L28.375000000000004,49.48651685592654L28.818359375,46.620384449774406L29.26171875,47.202642289333824L29.705078125,53.0970260308072L30.1484375,47.87052378442857L30.591796875,53.221504022987276L31.03515625,52.27312733302416L31.478515625,55.612949280247136L31.921875,53.69104974517012L32.365234375,53.99080533590917L32.80859375,52.17050856685562L33.251953125,48.50152168460801L33.6953125,45.4019037577076L34.138671875,45.04734277961228L34.58203125,43.20842532254295L35.025390625,44.88324838910273L35.46875,44.87259672758978L35.912109375,44.60660483316417L36.35546875,48.54379449736149L36.798828125,46.20677651892498L37.2421875,49.99285574465972L37.685546875,44.98759023576079L38.12890625,46.95961042807454L38.572265625,49.63185266393798L39.015625,48.71444604036515L39.458984375,45.27962601463162L39.90234375,49.46090076472058L40.345703125,48.247547471569334L40.7890625,49.47389192857753L41.232421875,47.444045468684465L41.67578125,48.56106848997558L42.119140625,50.76602918807117L42.5625,51.26300920788394L43.00585937499999,51.056765495200054L43.44921875,54.24734388502296L43.892578125,53.421146838132984L44.3359375,47.2002129365288L44.779296875,56.675506628140454L45.22265625,51.56442320142354L45.666015625,55.17143580791259L46.109375,51.06759389326841L46.552734375,51.60473036817213L46.99609375,52.66009812385779L47.439453125,48.003256349747204L47.8828125,51.44245602427985L48.326171875,52.500769720906845L48.76953125,50.05817581798718L49.212890625,48.535860357201585L49.65625,41.761511789272134L50.099609375,43.89855732113722L50.54296875,44.62247746938806L50.986328125,43.33555828186459L51.4296875,42.579583469943145L51.873046875,44.41887005800936L52.31640625,49.73358884236167L52.759765625,52.63187250364365L53.203125,54.456368213108135L53.646484375,50.27499957395236L54.08984375,51.25310136981375L54.533203125,48.00348206822625L54.9765625,44.62882449903799L55.419921875,43.84597856210871L55.86328125,46.77766846661072L56.306640625,47.217296642329075L56.75000000000001,42.65042941705346L57.193359375,45.62152839264843L57.63671875,42.29326472617157L58.080078125,44.61365691385828L22.16796875,58.65403241850207L22.611328125,61.25197283588197L23.0546875,56.66218419171774L23.498046875,55.92027055798411L23.94140625,55.276711628308576L24.384765625,52.49297824232018L24.828125,55.59064487652911L25.271484375,54.839943051558166L25.71484375,49.86940014375543L26.158203125,48.71757357128428L26.6015625,47.532314591455304L27.044921875,46.406684000997274L27.48828125,50.749318170373584L27.931640625,55.2178215788752L28.375000000000004,53.25635122102179L28.818359375,52.23504666591681L29.26171875,52.9246993309559L29.705078125,50.26090880908376L30.1484375,51.29992902682926L30.591796875,50.54128825906906L31.03515625,49.1140950932739L31.478515625,50.69152863112919L31.921875,45.23792333178423L32.365234375,44.596443335847084L32.80859375,42.06835351028201L33.251953125,50.013603458632076L33.6953125,52.25782113661117L34.138671875,56.40981362694342L34.58203125,56.266598262988396L35.025390625,54.192411874891874L35.46875,57.0631120056876L35.912109375,52.65322622364555L36.35546875,53.32682404938778L36.798828125,53.58567377342854L37.2421875,50.98496616133498L37.685546875,50.392822624733896L38.12890625,51.67405593484112L38.572265625,49.84165279918608L39.015625,51.51890640767655L39.458984375,47.04339674301306L39.90234375,44.266657419129416L40.345703125,54.74875330157501L40.7890625,48.15165113942268L41.232421875,45.93906683645517L41.67578125,45.778981703054086L42.119140625,48.44928709121413L42.5625,50.35010628373513L43.00585937499999,50.379188135093955L43.44921875,43.63892607380535L43.892578125,47.189589098033906L44.3359375,43.28945359881962L44.779296875,43.89198447046405L45.22265625,45.67831864820559L45.666015625,47.52378744403521L46.109375,48.59569098067254L46.552734375,52.6452945799348L46.99609375,48.418414779347984L47.439453125,50.26005374660649L47.8828125,46.28590480846495L48.326171875,44.44347558237513L48.76953125,44.54824625144829L49.212890625,49.75445543939122L49.65625,55.142286033715536L50.099609375,50.8429015942133L50.54296875,44.448171929580724L50.986328125,51.54186038736253L51.4296875,51.10014860966041L51.873046875,50.420646340478825L52.31640625,46.99141864229989L52.759765625,46.19355466514688L53.203125,45.48322812646515L53.646484375,48.2961703296298L54.08984375,49.80177193616578L54.533203125,48.11650913795677L54.9765625,48.526509772782305L55.419921875,46.81294904413505L55.86328125,52.96733800329349L56.306640625,49.46788062904814L56.75000000000001,49.91259020718634L57.193359375,47.088540805296276L57.63671875,48.11031986052751L58.080078125,44.86847954258303L58.5234375,47.237771733194165L58.966796875,54.366065015548386L59.41015625,52.023253768774254L59.853515625,50.761398989017266L60.296875,53.18216378572886L60.740234375,56.3817766611772L61.18359375,50.73183317810283L61.626953125,54.38794553178525L62.0703125,50.665371536600134L62.513671875,49.98795540296298L62.95703125,41.50370544888506L63.400390625,44.27264062582208L63.84375,47.326393652074074L64.287109375,46.54125531203306L64.73046875,47.83652734569765L65.173828125,50.71040196306703L65.6171875,51.253968257231676L66.060546875,51.68483458669398L22.16796875,52.26196505255359L22.611328125,54.4593502141647L23.0546875,44.76468354806957L23.498046875,46.47560566869794L23.94140625,43.93927580241794L24.384765625,45.245024479177175L24.828125,49.119348834006175L25.271484375,46.830137437610745L25.71484375,48.38304607035445L26.158203125,50.17250804878333L26.6015625,47.19582074151674L27.044921875,48.18945785323507L27.48828125,47.826150774715984L27.931640625,53.69475562558091L28.375000000000004,55.210640664014406L28.818359375,57.76330246634089L29.26171875,60.778021658103526L29.705078125,60.275554325962474L30.1484375,54.62493137525567L30.591796875,56.2982868910257L31.03515625,54.67900203230546L31.478515625,54.09975127317048L31.921875,51.304455017671174L32.365234375,48.39784801937674L32.80859375,50.55380499921769L33.251953125,51.13054035045229L33.6953125,51.55767606459574L34.138671875,53.03677539087819L34.58203125,48.40551841293271L35.025390625,49.38651077767895L35.46875,45.48150010598124L35.912109375,46.123165295674966L36.35546875,46.68519378075271L36.798828125,43.876183273608945L37.2421875,41.51234021318882L37.685546875,42.940782013731535L38.12890625,44.68285328340369L38.572265625,49.49149993772399L39.015625,50.81176798173823L39.458984375,43.692748550349734L39.90234375,45.97325229869716L40.345703125,47.01928653851982L40.7890625,44.749238005493936L41.232421875,49.63014931155119L41.67578125,48.99067861242827L42.119140625,44.886355056784794L42.5625,45.19229772950567L43.00585937499999,46.498385687264175L43.44921875,42.59888364052313L43.892578125,48.19174404844972L44.3359375,48.33265755120121L44.779296875,46.58086880173212L45.22265625,43.608566189562794L45.666015625,40.20934323355874L46.109375,41.23191821506785L46.552734375,42.7599391217897L46.99609375,43.38106971239279L47.439453125,43.73602402958386L47.8828125,45.70128496142101L48.326171875,43.20622048170512L48.76953125,42.38691521520096L49.212890625,45.64262958070458L49.65625,37.28137190163628L50.099609375,40.13669213664818L50.54296875,40.304798370673154L50.986328125,41.357766441151L51.4296875,42.35682872035761L51.873046875,45.68351714073802L52.31640625,44.935328771228626L52.759765625,44.737154608699655L53.203125,46.253995874960964L53.646484375,45.84914587702747L54.08984375,44.49925722340589L54.533203125,39.270974765180796L54.9765625,39.94467328188364L55.419921875,42.0104505431506L55.86328125,46.640975344887465L56.306640625,43.425611656136056L56.75000000000001,46.45089483334203L57.193359375,44.22533593221621L57.63671875,47.320869217182064L58.080078125,46.44580379120393L58.5234375,43.39994224901125L58.966796875,44.94132872220939L59.41015625,46.21431133626152L59.853515625,47.79446161674372L60.296875,46.22032282881105L60.740234375,40.3537619002588L61.18359375,46.99511431979724L61.626953125,45.88968076305133L62.0703125,48.863013255575396L62.513671875,47.69406155823418L62.95703125,50.908085084430695L63.400390625,48.838533149046924L63.84375,45.47652887456587L64.287109375,47.81346110792754L64.73046875,48.40144007379885L65.173828125,43.67579846963321L65.6171875,45.88198774686475L66.060546875,47.746987781709436L66.50390625,44.747048164478514L66.947265625,42.87112423483825L67.390625,42.74564164104655L67.833984375,39.05584417118172L68.27734375,41.070062889656356L68.720703125,45.45204077601471L69.1640625,43.78603216671988L69.607421875,44.00108621516253L70.05078125,42.59839609860438L70.494140625,45.102053377622724L70.9375,48.15889900540952L71.380859375,49.394116792771925L71.82421875,50.89787339788292L72.267578125,48.36482915652775L72.7109375,41.81454106195537L73.154296875,43.94584825053067L73.59765625,44.122788252915456L74.041015625,38.42559608369234L74.484375,38.97648043959842L74.927734375,36.91532103734883L75.37109375,36.42648129771757L75.814453125,36.337425882283526L76.2578125,39.30404196659515L76.701171875,38.142876449107035L77.14453125,44.4325424569125L77.587890625,43.00989349706609L78.03125,47.7672278882483L78.474609375,46.14131546028972L78.91796875,44.272673463872025L79.361328125,43.811497650176875L79.8046875,38.06917736627486L80.24804687500001,37.39014166413463L80.69140625,35.36244784485518L81.134765625,38.38349410707451L81.578125,44.26125638970535L82.021484375,41.70870967679511L82.46484375,38.470610070069085L82.908203125,42.74044733514748L83.3515625,45.42993462842915L83.794921875,40.296254853977075L84.23828125,42.8586208227712L84.681640625,39.953355753626624L85.125,37.79719851267717L85.568359375,41.22864807756176L86.01171874999999,41.32134535975101L86.455078125,37.915149802367694L86.8984375,41.43734280729345L87.341796875,42.76447096147547L87.78515625,44.82850884603491L88.228515625,39.95382675651928L88.671875,40.14858871176369L89.115234375,40.76178925916247L89.55859375,42.69547353794965L90.001953125,43.879245821301936L90.4453125,38.956500711241205L90.888671875,35.673903955339654L91.33203125,40.77180572350005L91.775390625,41.65196721553335L92.21875,41.898378520008805L92.662109375,39.11535882282067L93.10546875,42.18180360393413L93.548828125,42.260520112494646L93.9921875,43.19718721627021L94.435546875,41.94563867520583L94.87890625,40.665942441649804L95.322265625,40.97929096891136L95.765625,42.07593832417501L96.208984375,42.624769175077205L96.65234375,42.13025162459891L97.095703125,42.371943890103495L97.5390625,43.335570632844394L97.982421875,42.92767127718278L98.42578125,41.52580523708926L98.869140625,40.371279622432496L99.3125,41.34237307627038L99.755859375,41.71705304574374L100.19921875,42.117343062111274L100.642578125,42.38480646249573L101.0859375,44.6014838149365L101.529296875,44.346595569265844L101.97265625,41.01205728281323L102.416015625,43.96365536349285L102.859375,47.10414775071922L103.302734375,47.25092487250805L103.74609375,48.076437692135784L104.189453125,45.6284298779311L104.6328125,40.37694992314229L105.076171875,46.21032012516545L105.51953125,48.31647332319221L105.962890625,45.99590072517762L106.40625,42.57837491920688L106.849609375,43.17549298817545L107.29296875,43.256438914624454L107.736328125,39.649212803654336L108.1796875,36.86615350616722L108.623046875,41.698085563020555L109.06640625,37.461209831617225L109.509765625,38.00552853225582L109.953125,37.4456365601952L110.396484375,38.435698491140414L110.83984375,39.04302867758534L111.283203125,39.95469160382888L111.7265625,37.73237888517943L112.169921875,35.09360184969262L112.61328125,37.818823997389046L113.056640625,40.5572082663837L113.50000000000001,39.155150775031245L113.943359375,36.282052352378145L114.38671875,37.454385372608556L114.830078125,40.52218580997544L115.2734375,39.698282150963166L115.716796875,36.152170222126756L116.16015625,42.42682201929264L116.603515625,45.167276282712095L117.046875,41.303874623539514L117.490234375,43.816477758743076L117.93359375,41.581243457232375L118.376953125,36.32323132862683L118.8203125,37.381751220881995L119.26367187499999,35.87218432513481L119.70703125,37.24166195921666L120.150390625,44.60274458725786L120.59375,40.94525123119061L121.037109375,40.112200406072674L121.48046875,42.76513852290992L121.923828125,37.33740900524046L122.3671875,39.31112059693086L122.810546875,41.34785967314568L123.25390625,39.647195322777605L123.697265625,37.0463330647145L124.140625,38.70279878978718L124.583984375,40.906906429557495L125.02734375,39.473353566902006L125.470703125,37.346937860356064L125.9140625,34.58283198196054L126.357421875,37.83237941454868L126.80078125,38.7931488000811L127.244140625,34.17906987926139L127.6875,39.075494934682865L128.130859375,43.26268358800701L128.57421875,40.56455185278611L129.017578125,42.83820897498353L129.4609375,40.263376654140075L129.904296875,39.92722846326362L130.34765625,41.23229370866491L130.791015625,46.47792188140309L131.234375,44.90972022898558L131.677734375,42.446642045304515L132.12109375,42.089770152643496L132.564453125,43.15227002768239L133.0078125,42.22991401474755L133.451171875,40.39031204295799L133.89453125,35.73625741429723L134.337890625,33.426874983475074L134.78125,34.64759332428281L135.224609375,38.25701536232174L135.66796875,39.325255283677194L136.111328125,42.590200739481304L136.5546875,38.97291865192531L136.998046875,41.75191644574804L137.44140625,42.90749838200554L137.884765625,45.763180078550164L138.328125,48.47884119837531L138.77148437499997,47.761561282211716L139.21484375,43.46003854735733L139.658203125,39.10988619604143L140.1015625,36.46068936990747L140.544921875,38.735644378704166L140.98828125,38.21335909273779L141.431640625,47.32601068917842L141.875,45.46429027619345L142.318359375,47.269965824498996L142.76171875,39.92453647673989L143.205078125,38.79988308561366L143.6484375,42.182066892460085L144.091796875,43.91857889585219L144.53515625,44.793795748308526L144.978515625,42.539276363703436L145.421875,41.44989328518676L145.865234375,40.263768654675175L146.30859375,38.42443717814143L146.751953125,35.05673321066283L147.1953125,39.54821748720394L147.638671875,36.65954401008335L148.08203125,38.07102018542315L148.525390625,32.92647799221976L148.96875,36.526638033201095L149.412109375,40.96926651132688L149.85546875,37.02905274470194L150.298828125,44.05852351808261L150.7421875,40.87388845815477L151.185546875,40.33925230821501L151.62890625,40.074526402476465L152.072265625,42.83839865513005L152.515625,41.08800985805581L152.958984375,42.82333408828012L153.40234375,43.414675682994016L153.845703125,42.17424696100514L154.2890625,44.648449810819244L154.732421875,43.57086348085184L155.17578125,39.171950146845546L155.619140625,34.97717721777647L156.0625,33.04077567766609L156.505859375,32.10308755702101L156.94921875,35.117354185976296L157.392578125,34.32399737334117L157.8359375,42.38752286133689L158.279296875,38.62195444403605L158.72265625,41.85924525438858L159.166015625,38.40528342353764L159.609375,38.39867099063059L160.052734375,37.25157346687595L160.49609375000003,43.15806344963244L160.939453125,35.550162052018266L161.3828125,36.47832539969832L161.826171875,41.04282514628272L162.26953125,43.05434713588062L162.712890625,50.03444343701507L163.15625,51.64048880276397L163.599609375,47.50873666964364L164.04296875,45.90287555433741L164.486328125,43.693682606085474L164.9296875,38.055317792334534L165.373046875,44.39695763173003L165.81640625,41.05331687678273L166.259765625,42.28401987880113L166.703125,46.76305752473854L167.146484375,46.10373176025007L167.58984375,41.16585944227364L168.033203125,39.113954628300434L168.4765625,42.901527598376276L168.919921875,41.36262972049417L169.36328125,41.73216103847295L169.806640625,40.13224267563476L170.25,40.334552428729694L170.693359375,39.702948034767815L171.13671875,35.37694078741325L171.580078125,41.98679341112285L172.02343749999997,43.28734739562671L172.466796875,44.49769868815426L172.91015625,44.06896337487956L173.353515625,47.61500516306526L173.796875,47.72926401359541L174.240234375,44.24232120074444L174.68359375,38.37781926845062L175.126953125,37.0429023555192L175.5703125,39.67127206631142L176.013671875,41.785219685480655L176.45703125,35.35706578269338L176.900390625,40.15984260186386L177.34375,41.64032508817212L177.787109375,42.14726644686996L178.23046875,39.648220049930416L178.673828125,35.50784033989473L179.1171875,38.733284488055375L179.560546875,41.1435129730302L180.00390625,39.970079570317125L180.447265625,34.77311677295219L180.890625,37.116122880925104L181.333984375,39.12004246672953L181.77734375,39.21836956954553L182.220703125,37.980135110715196L182.6640625,38.37441648703785L183.107421875,34.65353134669044L183.55078125,37.0606186592411L183.994140625,36.65819517396869L184.4375,33.24181742443426L184.880859375,34.807202023111444L185.32421875,36.77449727168258L185.767578125,33.641251707736274L186.2109375,35.17740153352253L186.654296875,39.07637800621896L187.09765625,40.154614244985L187.541015625,41.255136606149364L187.984375,40.98029606166631L188.427734375,44.29267902745673L188.87109375,40.12937557443317L189.314453125,37.447752784158894L189.7578125,39.1243373337187L190.201171875,36.501080452370445L190.64453125,34.25966159043773L191.087890625,33.22976360045706L191.53125,37.55528384043467L191.974609375,36.34210833068897L192.41796875,37.73672680947902L192.861328125,36.28871477182915L193.3046875,35.56303618273856L193.74804687500003,30.687828051577185L194.19140625,36.576613657194315L194.634765625,34.34260992557873L195.078125,33.660810401148126L195.521484375,34.086589104000524L195.96484375,38.593011907377075L196.408203125,40.13819182612801L196.8515625,42.892844943394124L197.294921875,41.996821801775695L197.73828125,39.56829228455666L198.181640625,39.292636385290734L198.625,39.72317842884584L199.068359375,39.34498565342258L199.51171875,40.222094636834925L199.955078125,41.27719746928082L200.3984375,37.88204972088738L200.841796875,39.126088286282936L201.28515625,41.93011740734718L201.728515625,37.97727572852699L202.171875,37.91546289881671L202.615234375,38.71984496569985L203.05859375,39.55793961796948L203.501953125,42.28066173144455L203.9453125,39.69210581152586L204.388671875,39.14860937696051L204.83203125,40.237761817582594L205.27539062499997,37.25761466157917L205.71875,40.4926732357292L206.162109375,38.52717585420285L206.60546875,34.32480375203863L207.048828125,36.17974066873407L207.4921875,40.419729376673956L207.935546875,37.56738628437523L208.37890625,41.91675713950653L208.822265625,40.317483492459445L209.265625,34.895330278733354L209.708984375,35.836164479648346L210.15234375,34.81802101444907L210.595703125,35.73301980204417L211.0390625,34.914665873688676L211.482421875,35.265123281384746L211.92578125,37.37004103273449L212.369140625,45.134829652370826L212.8125,44.55076382879105L213.255859375,44.485737599871754L213.69921875,39.14779741641405L214.142578125,37.88391637251652L214.5859375,39.40080551770856L215.029296875,36.23553579132292L215.47265625,36.48245945620852L215.916015625,36.54579147725278L216.359375,38.53378644602867L216.802734375,43.67658204446653L217.24609375,41.35860840446023L217.689453125,39.43392276743802L218.1328125,41.38764023768718L218.576171875,43.47807431213741L219.01953125,39.912029647783754L219.462890625,38.72964152333526L219.90625,41.035123638137605L220.349609375,37.247073395147794L220.79296875,35.21021207755507L221.236328125,37.519258025799644L221.6796875,39.74031768054627L222.123046875,41.405560504262525L222.56640625,45.176970679083354L223.009765625,40.02716023833682L223.453125,37.6733138508267L223.896484375,38.032495400110776L224.33984375,35.61141313362131L224.783203125,36.242252476501335L225.2265625,35.70255248992888L225.669921875,36.32422548084975L226.11328125,34.87924946278051L226.556640625,38.76026614266473L227.00000000000003,35.396857880102516L227.443359375,34.34421028050605L227.88671875,34.717827828841195L228.330078125,38.229033584664364L228.7734375,39.58944847301842L229.216796875,39.7559567100775L229.66015625,39.9406838302001L230.103515625,42.563410036813394L230.546875,41.62142815175713L230.990234375,40.57980002154733L231.43359375,35.29234636539093L231.876953125,38.04575126596603L232.3203125,36.381992585827675L232.763671875,38.428122095685836L233.20703125,41.067392761958445L233.650390625,39.68689127889439L234.09375,38.4360268361994L234.537109375,36.175870337940836L234.98046875,38.881183289800475L235.423828125,35.42369140584151L235.8671875,32.092547973387724L236.310546875,34.16926512741631L236.75390625,36.14465361609197L237.197265625,37.44572595223272L237.640625,39.70942113080318L238.083984375,43.41811283396905L238.52734374999997,44.4640463827086L238.970703125,42.86435617435163L239.4140625,39.95454629318834L239.857421875,35.41206049953058L240.30078125,35.45735650082929L240.744140625,38.611560659530824L241.1875,38.53347968871756L241.630859375,36.29110116848557L242.07421875,40.43267023020516L242.517578125,37.48962528379883L242.9609375,35.191303532553434L243.404296875,41.45868518425979" style="fill: none;" fill="none"></path></g></g></g></g><g opacity="0.2"><g><g><g><path stroke="rgb(255, 112, 67)" stroke-width="2px" d="M22.16796875,143.5617470741272L22.611328125,61.81542813777915L23.0546875,51.855503916740346L23.498046875,56.26383066177361L23.94140625,55.29410779476157L24.384765625,51.07181310653678L24.828125,40.512647628784094L25.271484375,52.92123198509208L25.71484375,40.955221056938086L26.158203125,48.385601639747534L26.6015625,50.98530292510978L27.044921875,46.28737807273856L27.48828125,47.343786954879675L27.931640625,47.81572461128226L28.375000000000004,52.124705314636145L28.818359375,42.323207259178076L29.26171875,48.07578265666953L29.705078125,61.93710505962365L30.1484375,40.03156661987296L30.591796875,61.247485280036855L31.03515625,50.85061430931083L31.478515625,60.62257230281823L31.921875,50.808238387107764L32.365234375,54.440435171127234L32.80859375,49.440076351165686L33.251953125,42.99805700778953L33.6953125,40.75248479843131L34.138671875,44.51550185680381L34.58203125,40.45005083084098L35.025390625,47.39548206329337L35.46875,44.85661923885337L35.912109375,44.20761704444877L36.35546875,54.44957852363578L36.798828125,42.70124971866599L37.2421875,55.671974420547414L37.685546875,37.47969210147849L38.12890625,49.91764068603507L38.572265625,53.640215992927466L39.015625,47.338336110114966L39.458984375,40.127395987510596L39.90234375,55.73281288146964L40.345703125,46.42751753330222L40.7890625,51.31340861320487L41.232421875,44.399275779724036L41.67578125,50.23660302162162L42.119140625,54.073470234870825L42.5625,52.00847923755639L43.00585937499999,50.74739992618552L43.44921875,59.0332114696502L43.892578125,52.18185126781455L44.3359375,37.86881208419791L44.779296875,70.88844716548914L45.22265625,43.897798061370764L45.666015625,60.58195471763604L46.109375,44.911831021308814L46.552734375,52.41043508052819L46.99609375,54.24314975738517L47.439453125,41.01799368858329L47.8828125,56.60125553607932L48.326171875,54.08824026584617L48.76953125,46.3942849636077L49.212890625,46.25238716602317L49.65625,31.599988937377844L50.099609375,47.104125618934546L50.54296875,45.708357691764746L50.986328125,41.40517950057975L51.4296875,41.44562125205985L51.873046875,47.17779994010917L52.31640625,57.705667018890296L52.759765625,56.97929799556724L53.203125,57.19311177730552L53.646484375,44.00294661521903L54.08984375,52.72025406360618L54.533203125,43.12905311584464L54.9765625,39.56683814525596L55.419921875,42.67170965671531L55.86328125,51.17520332336417L56.306640625,47.87673890590659L56.75000000000001,35.800128579139624L57.193359375,50.07817685604087L57.63671875,37.3008692264556L58.080078125,48.09424519538871L22.16796875,79.71459567546839L22.611328125,65.14888346195214L23.0546875,49.77750122547141L23.498046875,54.80740010738366L23.94140625,54.31137323379508L24.384765625,48.31737816333762L24.828125,60.23714482784263L25.271484375,53.7138903141021L25.71484375,42.413585782051L26.158203125,46.989833712577735L26.6015625,45.754426121711646L27.044921875,44.718238115310584L27.48828125,57.26326942443839L27.931640625,61.92057669162743L28.375000000000004,50.31414568424216L28.818359375,50.7030898332595L29.26171875,53.95917832851403L29.705078125,46.26522302627555L30.1484375,52.858459353446875L30.591796875,49.40332710742942L31.03515625,46.97330534458152L31.478515625,53.057678937911916L31.921875,37.05751538276664L32.365234375,43.63422334194175L32.80859375,38.276218771934424L33.251953125,61.931478381156836L33.6953125,55.62414765357963L34.138671875,62.63780236244193L34.58203125,56.0517752170562L35.025390625,51.08113229274743L35.46875,61.36916220188132L35.912109375,46.0383975505828L36.35546875,54.33722078800193L36.798828125,53.97394835948937L37.2421875,47.083904743194495L37.685546875,49.50460731983176L38.12890625,53.59590590000144L38.572265625,47.09304809570304L39.015625,54.0347868204116L39.458984375,40.33013224601737L39.90234375,40.10154843330375L40.345703125,70.47189712524407L40.7890625,38.25599789619437L41.232421875,42.6201903820037L41.67578125,45.53885400295249L42.119140625,52.454745173454214L42.5625,53.20133507251731L43.00585937499999,50.42281091213218L43.44921875,33.52853298187247L43.892578125,52.51558363437644L44.3359375,37.43925034999836L44.779296875,44.79578077793113L45.22265625,48.357819914817725L45.666015625,50.29199063777915L46.109375,50.20354628562919L46.552734375,58.71969997882836L46.99609375,42.07809507846824L47.439453125,53.02251219749442L47.8828125,40.32468140125266L48.326171875,41.67983174324027L48.76953125,44.7054022550582L49.212890625,57.56376922130576L49.65625,63.224031925201345L50.099609375,44.393824934959326L50.54296875,34.85607743263233L50.986328125,62.18239307403557L51.4296875,50.43758094310752L51.873046875,49.40139293670646L52.31640625,41.84757709503165L52.759765625,44.99675869941703L53.203125,44.41773831844321L53.646484375,52.51558363437644L54.08984375,52.06017434597008L54.533203125,45.588614940643225L54.9765625,49.14151072502128L55.419921875,44.24260795116416L55.86328125,62.198921442031775L56.306640625,44.218694567680274L56.75000000000001,50.57965457439414L57.193359375,42.85246670246116L57.63671875,49.64298844337455L58.080078125,40.00571906566611L58.5234375,50.79171001911155L58.966796875,65.05850493907923L59.41015625,48.50903689861289L59.853515625,48.86861681938163L60.296875,56.81331098079673L60.740234375,61.181195974349905L61.18359375,42.256917953491126L61.626953125,59.87211406230918L62.0703125,45.08151054382316L62.513671875,48.971831202506934L62.95703125,28.777330517768746L63.400390625,48.42604339122764L63.84375,51.90702319145194L64.287109375,45.36354780197135L64.73046875,49.77943539619437L65.173828125,55.021213889121924L65.6171875,52.06931769847861L66.060546875,52.331134080886756L22.16796875,53.12766075134269L22.611328125,57.75542795658103L23.0546875,30.222683548927193L23.498046875,49.04198884963981L23.94140625,40.13478100299827L24.384765625,47.203647494316016L24.828125,54.93083536624901L25.271484375,43.39632034301749L25.71484375,50.71240901947013L26.158203125,52.856701016426015L26.6015625,42.730789780616675L27.044921875,49.6799135208129L27.48828125,47.28119015693656L27.931640625,62.497662901878286L28.375000000000004,57.48446822166436L28.818359375,61.59229516983024L29.26171875,65.30010044574732L29.705078125,59.521853327751074L30.1484375,46.14899694919578L30.591796875,58.80832016468041L31.03515625,52.25007474422448L31.478515625,53.23087513446799L31.921875,47.11151063442222L32.365234375,44.037937521934424L32.80859375,53.78774046897881L33.251953125,51.99564337730399L33.6953125,52.19837963581078L34.138671875,55.255424380302344L34.58203125,41.45863294601432L35.025390625,50.8579993247985L35.46875,39.62398409843436L35.912109375,47.08566308021537L36.35546875,47.52823650836936L36.798828125,39.66266751289359L37.2421875,37.96657562255851L37.685546875,45.08344471454612L38.12890625,47.2959601879119L38.572265625,56.70446991920463L39.015625,52.792170047759925L39.458984375,33.01421940326682L39.90234375,49.39400792121879L40.345703125,48.58833789825431L40.7890625,41.34416520595542L41.232421875,56.95151627063743L41.67578125,48.031472563743506L42.119140625,38.72986972331992L42.5625,45.65121173858634L43.00585937499999,48.45751762390128L43.44921875,36.7496305704116L43.892578125,56.58103466033927L44.3359375,48.544027805328284L44.779296875,43.953185677528296L45.22265625,39.150112271308814L45.666015625,35.11050879955283L46.109375,42.76578068733207L46.552734375,45.05197048187247L46.99609375,44.312765598297034L47.439453125,44.26845550537101L47.8828125,48.64917635917655L48.326171875,39.46362376213065L48.76953125,41.15795731544486L49.212890625,50.52620112895957L49.65625,24.739485383033667L50.099609375,44.419672489166175L50.54296875,40.55695772171012L50.986328125,42.937218546867285L51.4296875,43.8554221391677L51.873046875,50.673549771308814L52.31640625,43.813046216964636L52.759765625,44.439893364906226L53.203125,48.52925777435294L53.646484375,45.24187088012687L54.08984375,42.47442424297324L54.533203125,31.428551077842627L54.9765625,40.955221056938086L55.419921875,45.10911643505088L55.86328125,53.58676254749291L56.306640625,38.60256612300864L56.75000000000001,50.988819599151526L57.193359375,40.886997580528174L57.63671875,51.96416914463036L58.080078125,45.13320565223685L58.5234375,38.831149935722266L58.966796875,47.25340843200675L59.41015625,48.12378525733939L59.853515625,50.16468703746787L60.296875,43.859114646911536L60.740234375,31.553920507430917L61.18359375,56.957142949104224L61.626953125,44.231530427932654L62.0703125,53.323011994361806L62.513671875,45.940634012222205L62.95703125,55.729120373725806L63.400390625,45.734205245971594L63.84375,40.43352246284476L64.287109375,51.31885945796958L64.73046875,49.28340852260581L65.173828125,36.587336063384896L65.6171875,49.19127166271201L66.060546875,50.54448783397666L66.50390625,40.24713873863212L66.947265625,40.05723834037772L67.390625,42.557417750358496L67.833984375,33.5211479663848L68.27734375,44.091390967368994L68.720703125,52.02500760555259L69.1640625,41.287019252777014L69.607421875,44.32366728782645L70.05078125,40.494360923767005L70.494140625,48.85753929615012L70.9375,52.744167447090064L71.380859375,51.24694347381583L71.82421875,53.153508305549536L72.267578125,44.565262794494544L72.7109375,31.989108920097237L73.154296875,47.142809033393775L73.59765625,44.38819825649253L74.041015625,29.87980782985676L74.484375,39.80280697345725L74.927734375,33.823581933975134L75.37109375,35.693221688270455L75.814453125,36.20384275913227L76.2578125,43.75396609306327L76.701171875,36.40112817287434L77.14453125,53.867041468620215L77.587890625,40.87592005729667L78.03125,54.90322947502128L78.474609375,43.70244681835166L78.91796875,41.469710469245825L79.361328125,43.11973392963401L79.8046875,29.455696940421944L80.24804687500001,36.37158811092365L80.69140625,32.320907115936166L81.134765625,42.91506350040427L81.578125,53.07789981365195L82.021484375,37.87988960742942L82.46484375,33.61346065998069L82.908203125,49.14520323276511L83.3515625,49.46416556835166L83.794921875,32.595735192298775L84.23828125,46.702169775962744L84.681640625,35.59545814990989L85.125,34.56296265125266L85.568359375,46.375822424888526L86.01171874999999,41.46039128303519L86.455078125,32.80585646629325L86.8984375,46.72063231468192L87.341796875,44.75516319274894L87.78515625,47.924565672874365L88.228515625,32.6418036222457L88.671875,40.44073164463035L89.115234375,41.681590080261145L89.55859375,45.595999956130896L90.001953125,45.654904246330176L90.4453125,31.572383046150094L90.888671875,30.750008821487313L91.33203125,48.418658375739966L91.775390625,42.97220945358268L92.21875,42.26799547672263L92.662109375,34.94082927703849L93.10546875,46.78147077560416L93.548828125,42.37859487533561L93.9921875,44.6021878719329L94.435546875,40.06831586360923L94.87890625,38.74639809131614L95.322265625,41.44931375980369L95.765625,43.72090935707084L96.208984375,43.44801545143119L96.65234375,41.388475298881445L97.095703125,42.73448228836051L97.5390625,44.781010746955786L97.982421875,42.315822243690405L98.42578125,39.42300617694846L98.869140625,38.639491200447L99.3125,42.79901325702659L99.755859375,42.27907299995414L100.19921875,42.71777808666221L100.642578125,42.78600156307212L101.0859375,47.92649984359733L101.529296875,43.9642632007598L101.97265625,36.01024985313404L102.416015625,48.391052484512244L102.859375,51.81488633155816L103.302734375,47.471090555190955L103.74609375,49.31470692157737L104.189453125,41.956418156623755L104.6328125,32.499729990959054L105.076171875,54.9603754281997L105.51953125,51.47570312023156L105.962890625,42.51504182815543L106.40625,37.45208621025077L106.849609375,44.07117009162894L107.29296875,43.377857804298316L107.736328125,34.23837363719929L108.1796875,32.69156455993644L108.623046875,48.945983648300086L109.06640625,31.105896234512244L109.509765625,38.82200658321372L109.953125,36.60579860210407L110.396484375,39.9207913875579L110.83984375,39.95402395725242L111.283203125,41.322185993194495L111.7265625,34.398909807205115L112.169921875,31.135436296462927L112.61328125,41.90665721893302L113.056640625,44.66478466987601L113.50000000000001,37.0520645380019L113.943359375,31.972404718398963L114.38671875,39.212884902954016L114.830078125,45.12388646602622L115.2734375,38.46242666244498L115.716796875,30.833002328872595L116.16015625,51.83879971504203L116.603515625,49.2779576778411L117.046875,35.5087721347808L117.490234375,47.585382461547766L117.93359375,38.22839200496665L118.376953125,28.436213135719214L118.8203125,38.96953105926505L119.26367187499999,33.60783398151389L119.70703125,39.29587841033927L120.150390625,55.64436852931968L120.59375,35.459011197090035L121.037109375,38.86262416839591L121.48046875,46.74454569816581L121.923828125,29.195814728736792L122.3671875,42.27168798446647L122.810546875,44.40296828746787L123.25390625,37.09619879722587L123.697265625,33.14503967761985L124.140625,41.187497377395545L124.583984375,44.21306788921348L125.02734375,37.323024272918616L125.470703125,34.157314300537024L125.9140625,30.436673164367562L126.357421875,42.7067005634307L126.80078125,40.23430287837974L127.244140625,27.257951498031503L127.6875,46.42013251781455L128.130859375,49.54346656799308L128.57421875,36.51735424995414L129.017578125,46.248694658279334L129.4609375,36.40112817287434L129.904296875,39.42300617694846L130.34765625,43.18989157676688L130.791015625,54.34636414051049L131.234375,42.557417750358496L131.677734375,38.752024769782935L132.12109375,41.55446231365195L132.564453125,44.74601984024039L133.0078125,40.846379995345984L133.451171875,37.63090908527366L133.89453125,28.755175471305733L134.337890625,29.96280133724204L134.78125,36.47867083549488L135.224609375,43.6711484193801L135.66796875,40.927615165710364L136.111328125,47.48761892318717L136.5546875,33.54699552059165L136.998046875,45.92041313648215L137.44140625,44.64087128639213L137.884765625,50.046702623367224L138.328125,52.55233287811272L138.77148437499997,46.68564140796653L139.21484375,37.007754445075875L139.658203125,32.58465766906727L140.1015625,32.4868941307067L140.544921875,42.148076891899024L140.98828125,37.42993116378776L141.431640625,60.994988083839345L141.875,42.67170965671531L142.318359375,49.97847914695731L142.76171875,28.9063924551009L143.205078125,37.11290299892417L143.6484375,47.25534260272971L144.091796875,46.523346900939856L144.53515625,46.10662102699271L144.978515625,39.157497286796485L145.421875,39.81581866741172L145.865234375,38.484581708907996L146.30859375,35.665439963340674L146.751953125,30.005177259445077L147.1953125,46.2854439020156L147.638671875,32.32653379440299L148.08203125,40.18823444843284L148.525390625,25.209664702415353L148.96875,41.92687809467307L149.412109375,47.63320922851554L149.85546875,31.118732094764596L150.298828125,54.60272967815392L150.7421875,36.09693586826316L151.185546875,39.537298083305274L151.62890625,39.67743754386893L152.072265625,46.98420703411094L152.515625,38.46242666244498L152.958984375,45.42632043361655L153.40234375,44.30168807506553L153.845703125,40.313603878021155L154.2890625,48.359754085540686L154.732421875,41.954483985900794L155.17578125,32.57358014583576L155.619140625,28.68501782417286L156.0625,30.13617336750019L156.505859375,30.69655537605277L156.94921875,39.638754129409705L157.392578125,33.13396215438834L157.8359375,54.4828110933303L158.279296875,32.97360181808463L158.72265625,46.71518146991721L159.166015625,33.22434067726127L159.609375,38.38875234127036L160.052734375,35.53092718124381L160.49609375000003,52.017798423767005L160.939453125,24.13830995559681L161.3828125,37.87057042121879L161.826171875,47.88957476615897L162.26953125,46.07163012027732L162.712890625,60.504587888717566L163.15625,54.04955685138694L163.599609375,41.31110846996299L164.04296875,43.49408388137809L164.486328125,40.379893183708106L164.9296875,29.597770571708594L165.373046875,53.90941739082328L165.81640625,36.03785574436179L166.259765625,44.13007438182822L166.703125,53.48161399364463L167.146484375,45.114743113517676L167.58984375,33.75905096530906L168.033203125,36.03609740734089L168.4765625,48.5828870534896L168.919921875,39.05428290367118L169.36328125,42.28645801544181L169.806640625,37.73236513137809L170.25,40.63801705837241L170.693359375,38.75554144382468L171.13671875,28.887929916381722L171.580078125,51.90157234668723L172.02343749999997,45.23817837238303L172.466796875,46.31322562694541L172.91015625,43.42586040496818L173.353515625,52.93406784534446L173.796875,47.90065228939048L174.240234375,39.011906981468115L174.68359375,29.581066370010262L175.126953125,35.040526986122046L175.5703125,43.61382663249961L176.013671875,44.95614111423484L176.45703125,25.714834928512488L176.900390625,47.36400783061973L177.34375,43.8610488176345L177.787109375,42.9076784849166L178.23046875,35.899650454521094L178.673828125,29.297270774841195L179.1171875,43.571450710296546L179.560546875,44.758855700492774L180.00390625,38.20992946624747L180.447265625,26.97767257690421L180.890625,40.63063204288474L181.333984375,42.12592184543601L181.77734375,39.365860223770056L182.220703125,36.12278342247001L182.6640625,38.965838551521216L183.107421875,29.07220363616932L183.55078125,40.67124962806693L183.994140625,36.05455994606007L184.4375,28.117250800132638L184.880859375,37.155278921127234L185.32421875,39.725440144538794L185.767578125,28.941383361816293L186.2109375,37.48162627220145L186.654296875,44.92484271526328L187.09765625,41.77196860313407L187.541015625,42.90592014789573L187.984375,40.568035244941626L188.427734375,49.2612534761428L188.87109375,33.88442039489735L189.314453125,33.42531859874717L189.7578125,41.63921415805808L190.201171875,32.56619513034809L190.64453125,30.897533297538672L191.087890625,31.68491661548606L191.53125,44.04356420040122L191.974609375,34.52234506607047L192.41796875,39.8286545276641L192.861328125,34.116696715354834L193.3046875,34.4745182991027L193.74804687500003,23.375015854835397L194.19140625,45.40979206562034L194.634765625,30.991604328155404L195.078125,32.63811111450187L195.521484375,34.725257158279305L195.96484375,45.35264611244193L196.408203125,42.455961704254065L196.8515625,47.02482461929313L197.294921875,40.652787089347754L197.73828125,35.92549800872794L198.181640625,38.87915253639213L198.625,40.36899149417869L199.068359375,38.777696490287695L199.51171875,41.53775811195365L199.955078125,42.85985171794883L200.3984375,32.789328098297005L200.841796875,40.99214613437644L201.28515625,46.136161088943396L201.728515625,32.048013210296546L202.171875,37.82274365425101L202.615234375,39.926418066024695L203.05859375,40.81508159637443L203.501953125,46.36474490165702L203.9453125,35.80927193164814L204.388671875,38.33336472511283L204.83203125,41.87149047851554L205.27539062499997,32.78739392757407L205.71875,45.34526109695426L206.162109375,35.57892978191367L206.60546875,28.021245598792916L207.048828125,38.96214604377738L207.4921875,46.77971243858329L207.935546875,33.288871645927316L208.37890625,48.44081342220298L208.822265625,37.91857302188865L209.265625,26.762100458145028L209.708984375,37.24741578102103L210.15234375,33.290805816650305L210.595703125,37.1055179834365L211.0390625,33.68713498115528L211.482421875,35.79080939292896L211.92578125,40.527417659759436L212.369140625,56.78201258182517L212.8125,43.67466509342185L213.255859375,44.38819825649253L213.69921875,31.14088714122761L214.142578125,35.98809480667103L214.5859375,41.676139235496436L215.029296875,31.487631201743994L215.47265625,36.8528449535369L215.916015625,36.640789508819495L216.359375,41.515778899192725L216.802734375,51.39077544212334L217.24609375,37.88164794445029L217.689453125,36.54689431190482L218.1328125,44.31821644306174L218.576171875,46.61372542381278L219.01953125,34.56296265125266L219.462890625,36.95605933666218L219.90625,44.493346810340796L220.349609375,31.564998030662423L220.79296875,32.154920101165686L221.236328125,40.98282694816581L221.6796875,43.071907162666236L222.123046875,43.90342473983756L222.56640625,50.83408594131461L223.009765625,32.30244457721699L223.453125,34.14254426956168L223.896484375,38.571267724037085L224.33984375,31.979789733886633L224.783203125,37.18851149082175L225.2265625,34.89300251007069L225.669921875,37.25673496723164L226.11328125,32.71178543567646L226.556640625,44.58179116249076L227.00000000000003,30.351745486259347L227.443359375,32.76523888111106L227.88671875,35.278254151344214L228.330078125,43.49584221839896L228.7734375,41.630070805549536L229.216796875,40.00571906566611L229.66015625,40.21777451038352L230.103515625,46.49749934673301L230.546875,40.20845532417289L230.990234375,39.017357826232825L231.43359375,27.361165881156836L231.876953125,42.17585861682883L232.3203125,33.88635456562034L232.763671875,41.49731636047355L233.20703125,45.02629876136771L233.650390625,37.616139054298316L234.09375,36.5597301721572L234.537109375,32.78563559055317L234.98046875,42.93915271759025L235.423828125,30.237453579902535L235.8671875,27.095832824706946L236.310546875,37.28434085845939L236.75390625,39.10773634910575L237.197265625,39.3973344564437L237.640625,43.10496389865867L238.083984375,48.981150388717566L238.52734374999997,46.03294670581809L238.970703125,40.46482086181632L239.4140625,35.58983147144306L239.857421875,28.59833180904377L240.30078125,35.525300502777014L240.744140625,43.34286689758292L241.1875,38.416358232498084L241.630859375,32.927533388137704L242.07421875,46.64502382278434L242.517578125,33.07505786418906L242.9609375,31.74382090568531L243.404296875,50.85975766181937" style="fill: none;" fill="none"></path></g></g></g></g></g></g><g transform="translate(63, 177)" clip-path="url(#clip_1)"><clipPath id="clip_1"><rect width="266" height="22"></rect></clipPath><g><g><line x1="0" y1="0" x2="0" y2="5" style="visibility: inherit;" fill="rgb(0, 0, 0)" stroke="rgb(204, 204, 204)" stroke-width="1px"></line><line x1="22.16796875" y1="0" x2="22.16796875" y2="5" style="visibility: inherit;" fill="rgb(0, 0, 0)" stroke="rgb(204, 204, 204)" stroke-width="1px"></line><line x1="44.3359375" y1="0" x2="44.3359375" y2="5" style="visibility: inherit;" fill="rgb(0, 0, 0)" stroke="rgb(204, 204, 204)" stroke-width="1px"></line><line x1="66.50390625" y1="0" x2="66.50390625" y2="5" style="visibility: inherit;" fill="rgb(0, 0, 0)" stroke="rgb(204, 204, 204)" stroke-width="1px"></line><line x1="88.671875" y1="0" x2="88.671875" y2="5" style="visibility: inherit;" fill="rgb(0, 0, 0)" stroke="rgb(204, 204, 204)" stroke-width="1px"></line><line x1="110.83984375" y1="0" x2="110.83984375" y2="5" style="visibility: inherit;" fill="rgb(0, 0, 0)" stroke="rgb(204, 204, 204)" stroke-width="1px"></line><line x1="133.0078125" y1="0" x2="133.0078125" y2="5" style="visibility: inherit;" fill="rgb(0, 0, 0)" stroke="rgb(204, 204, 204)" stroke-width="1px"></line><line x1="155.17578125" y1="0" x2="155.17578125" y2="5" style="visibility: inherit;" fill="rgb(0, 0, 0)" stroke="rgb(204, 204, 204)" stroke-width="1px"></line><line x1="177.34375" y1="0" x2="177.34375" y2="5" style="visibility: inherit;" fill="rgb(0, 0, 0)" stroke="rgb(204, 204, 204)" stroke-width="1px"></line><line x1="199.51171875" y1="0" x2="199.51171875" y2="5" style="visibility: inherit;" fill="rgb(0, 0, 0)" stroke="rgb(204, 204, 204)" stroke-width="1px"></line><line x1="221.6796875" y1="0" x2="221.6796875" y2="5" style="visibility: inherit;" fill="rgb(0, 0, 0)" stroke="rgb(204, 204, 204)" stroke-width="1px"></line><line x1="243.84765625" y1="0" x2="243.84765625" y2="5" style="visibility: inherit;" fill="rgb(0, 0, 0)" stroke="rgb(204, 204, 204)" stroke-width="1px"></line><line x1="266.015625" y1="0" x2="266.015625" y2="5" style="visibility: inherit;" fill="rgb(0, 0, 0)" stroke="rgb(204, 204, 204)" stroke-width="1px"></line></g><g transform="translate(0, 8)"><text x="0" y="0" dx="0em" dy="0.95em" style="text-anchor: middle; visibility: hidden; font-family: &quot;Helvetica Neue&quot;, sans-serif; font-size: 13.3333px; font-weight: 200;" fill="rgb(50, 49, 63)" stroke="none" stroke-width="1px">-50</text><text x="22.16796875" y="0" dx="0em" dy="0.95em" style="text-anchor: middle; visibility: inherit; font-family: &quot;Helvetica Neue&quot;, sans-serif; font-size: 13.3333px; font-weight: 200;" fill="rgb(50, 49, 63)" stroke="none" stroke-width="1px">0</text><text x="44.3359375" y="0" dx="0em" dy="0.95em" style="text-anchor: middle; visibility: hidden; font-family: &quot;Helvetica Neue&quot;, sans-serif; font-size: 13.3333px; font-weight: 200;" fill="rgb(50, 49, 63)" stroke="none" stroke-width="1px">50</text><text x="66.50390625" y="0" dx="0em" dy="0.95em" style="text-anchor: middle; visibility: inherit; font-family: &quot;Helvetica Neue&quot;, sans-serif; font-size: 13.3333px; font-weight: 200;" fill="rgb(50, 49, 63)" stroke="none" stroke-width="1px">100</text><text x="88.671875" y="0" dx="0em" dy="0.95em" style="text-anchor: middle; visibility: hidden; font-family: &quot;Helvetica Neue&quot;, sans-serif; font-size: 13.3333px; font-weight: 200;" fill="rgb(50, 49, 63)" stroke="none" stroke-width="1px">150</text><text x="110.83984375" y="0" dx="0em" dy="0.95em" style="text-anchor: middle; visibility: inherit; font-family: &quot;Helvetica Neue&quot;, sans-serif; font-size: 13.3333px; font-weight: 200;" fill="rgb(50, 49, 63)" stroke="none" stroke-width="1px">200</text><text x="133.0078125" y="0" dx="0em" dy="0.95em" style="text-anchor: middle; visibility: hidden; font-family: &quot;Helvetica Neue&quot;, sans-serif; font-size: 13.3333px; font-weight: 200;" fill="rgb(50, 49, 63)" stroke="none" stroke-width="1px">250</text><text x="155.17578125" y="0" dx="0em" dy="0.95em" style="text-anchor: middle; visibility: inherit; font-family: &quot;Helvetica Neue&quot;, sans-serif; font-size: 13.3333px; font-weight: 200;" fill="rgb(50, 49, 63)" stroke="none" stroke-width="1px">300</text><text x="177.34375" y="0" dx="0em" dy="0.95em" style="text-anchor: middle; visibility: hidden; font-family: &quot;Helvetica Neue&quot;, sans-serif; font-size: 13.3333px; font-weight: 200;" fill="rgb(50, 49, 63)" stroke="none" stroke-width="1px">350</text><text x="199.51171875" y="0" dx="0em" dy="0.95em" style="text-anchor: middle; visibility: inherit; font-family: &quot;Helvetica Neue&quot;, sans-serif; font-size: 13.3333px; font-weight: 200;" fill="rgb(50, 49, 63)" stroke="none" stroke-width="1px">400</text><text x="221.6796875" y="0" dx="0em" dy="0.95em" style="text-anchor: middle; visibility: hidden; font-family: &quot;Helvetica Neue&quot;, sans-serif; font-size: 13.3333px; font-weight: 200;" fill="rgb(50, 49, 63)" stroke="none" stroke-width="1px">450</text><text x="243.84765625" y="0" dx="0em" dy="0.95em" style="text-anchor: middle; visibility: inherit; font-family: &quot;Helvetica Neue&quot;, sans-serif; font-size: 13.3333px; font-weight: 200;" fill="rgb(50, 49, 63)" stroke="none" stroke-width="1px">500</text><text x="266.015625" y="0" dx="0em" dy="0.95em" style="text-anchor: middle; visibility: hidden; font-family: &quot;Helvetica Neue&quot;, sans-serif; font-size: 13.3333px; font-weight: 200;" fill="rgb(50, 49, 63)" stroke="none" stroke-width="1px">550</text></g><line x1="0" y1="0" x2="266.015625" y2="0" fill="rgb(0, 0, 0)" stroke="rgb(204, 204, 204)" stroke-width="1px"></line></g></g></g></g></svg>