<svg viewBox="0 0 330.0000305175781 200.00001525878906" xmlns="http://www.w3.org/2000/svg"><g><g><g><g><g><line x1="53.1875" y1="177" x2="48.1875" y2="177" style="visibility: inherit;" fill="rgb(0, 0, 0)" stroke="rgb(204, 204, 204)" stroke-width="1px"></line><line x1="53.1875" y1="163.3846153846154" x2="48.1875" y2="163.3846153846154" style="visibility: inherit;" fill="rgb(0, 0, 0)" stroke="rgb(204, 204, 204)" stroke-width="1px"></line><line x1="53.1875" y1="149.76923076923077" x2="48.1875" y2="149.76923076923077" style="visibility: inherit;" fill="rgb(0, 0, 0)" stroke="rgb(204, 204, 204)" stroke-width="1px"></line><line x1="53.1875" y1="136.15384615384616" x2="48.1875" y2="136.15384615384616" style="visibility: inherit;" fill="rgb(0, 0, 0)" stroke="rgb(204, 204, 204)" stroke-width="1px"></line><line x1="53.1875" y1="122.53846153846152" x2="48.1875" y2="122.53846153846152" style="visibility: inherit;" fill="rgb(0, 0, 0)" stroke="rgb(204, 204, 204)" stroke-width="1px"></line><line x1="53.1875" y1="108.9230769230769" x2="48.1875" y2="108.9230769230769" style="visibility: inherit;" fill="rgb(0, 0, 0)" stroke="rgb(204, 204, 204)" stroke-width="1px"></line><line x1="53.1875" y1="95.3076923076923" x2="48.1875" y2="95.3076923076923" style="visibility: inherit;" fill="rgb(0, 0, 0)" stroke="rgb(204, 204, 204)" stroke-width="1px"></line><line x1="53.1875" y1="81.69230769230768" x2="48.1875" y2="81.69230769230768" style="visibility: inherit;" fill="rgb(0, 0, 0)" stroke="rgb(204, 204, 204)" stroke-width="1px"></line><line x1="53.1875" y1="68.07692307692305" x2="48.1875" y2="68.07692307692305" style="visibility: inherit;" fill="rgb(0, 0, 0)" stroke="rgb(204, 204, 204)" stroke-width="1px"></line><line x1="53.1875" y1="54.46153846153847" x2="48.1875" y2="54.46153846153847" style="visibility: inherit;" fill="rgb(0, 0, 0)" stroke="rgb(204, 204, 204)" stroke-width="1px"></line><line x1="53.1875" y1="40.84615384615384" x2="48.1875" y2="40.84615384615384" style="visibility: inherit;" fill="rgb(0, 0, 0)" stroke="rgb(204, 204, 204)" stroke-width="1px"></line><line x1="53.1875" y1="27.230769230769226" x2="48.1875" y2="27.230769230769226" style="visibility: inherit;" fill="rgb(0, 0, 0)" stroke="rgb(204, 204, 204)" stroke-width="1px"></line><line x1="53.1875" y1="13.615384615384613" x2="48.1875" y2="13.615384615384613" style="visibility: inherit;" fill="rgb(0, 0, 0)" stroke="rgb(204, 204, 204)" stroke-width="1px"></line><line x1="53.1875" y1="0" x2="48.1875" y2="0" style="visibility: inherit;" fill="rgb(0, 0, 0)" stroke="rgb(204, 204, 204)" stroke-width="1px"></line></g><g transform="translate(43.1875, 0)"><text x="0" y="177" dx="0em" dy="0.3em" style="text-anchor: end; visibility: hidden; font-family: &quot;Helvetica Neue&quot;, sans-serif; font-size: 13.3333px; font-weight: 200;" fill="rgb(50, 49, 63)" stroke="none" stroke-width="1px">0.18</text><text x="0" y="163.3846153846154" dx="0em" dy="0.3em" style="text-anchor: end; visibility: inherit; font-family: &quot;Helvetica Neue&quot;, sans-serif; font-size: 13.3333px; font-weight: 200;" fill="rgb(50, 49, 63)" stroke="none" stroke-width="1px">0.2</text><text x="0" y="149.76923076923077" dx="0em" dy="0.3em" style="text-anchor: end; visibility: hidden; font-family: &quot;Helvetica Neue&quot;, sans-serif; font-size: 13.3333px; font-weight: 200;" fill="rgb(50, 49, 63)" stroke="none" stroke-width="1px">0.22</text><text x="0" y="136.15384615384616" dx="0em" dy="0.3em" style="text-anchor: end; visibility: inherit; font-family: &quot;Helvetica Neue&quot;, sans-serif; font-size: 13.3333px; font-weight: 200;" fill="rgb(50, 49, 63)" stroke="none" stroke-width="1px">0.24</text><text x="0" y="122.53846153846152" dx="0em" dy="0.3em" style="text-anchor: end; visibility: hidden; font-family: &quot;Helvetica Neue&quot;, sans-serif; font-size: 13.3333px; font-weight: 200;" fill="rgb(50, 49, 63)" stroke="none" stroke-width="1px">0.26</text><text x="0" y="108.9230769230769" dx="0em" dy="0.3em" style="text-anchor: end; visibility: inherit; font-family: &quot;Helvetica Neue&quot;, sans-serif; font-size: 13.3333px; font-weight: 200;" fill="rgb(50, 49, 63)" stroke="none" stroke-width="1px">0.28</text><text x="0" y="95.3076923076923" dx="0em" dy="0.3em" style="text-anchor: end; visibility: hidden; font-family: &quot;Helvetica Neue&quot;, sans-serif; font-size: 13.3333px; font-weight: 200;" fill="rgb(50, 49, 63)" stroke="none" stroke-width="1px">0.3</text><text x="0" y="81.69230769230768" dx="0em" dy="0.3em" style="text-anchor: end; visibility: inherit; font-family: &quot;Helvetica Neue&quot;, sans-serif; font-size: 13.3333px; font-weight: 200;" fill="rgb(50, 49, 63)" stroke="none" stroke-width="1px">0.32</text><text x="0" y="68.07692307692305" dx="0em" dy="0.3em" style="text-anchor: end; visibility: hidden; font-family: &quot;Helvetica Neue&quot;, sans-serif; font-size: 13.3333px; font-weight: 200;" fill="rgb(50, 49, 63)" stroke="none" stroke-width="1px">0.34</text><text x="0" y="54.46153846153847" dx="0em" dy="0.3em" style="text-anchor: end; visibility: inherit; font-family: &quot;Helvetica Neue&quot;, sans-serif; font-size: 13.3333px; font-weight: 200;" fill="rgb(50, 49, 63)" stroke="none" stroke-width="1px">0.36</text><text x="0" y="40.84615384615384" dx="0em" dy="0.3em" style="text-anchor: end; visibility: hidden; font-family: &quot;Helvetica Neue&quot;, sans-serif; font-size: 13.3333px; font-weight: 200;" fill="rgb(50, 49, 63)" stroke="none" stroke-width="1px">0.38</text><text x="0" y="27.230769230769226" dx="0em" dy="0.3em" style="text-anchor: end; visibility: inherit; font-family: &quot;Helvetica Neue&quot;, sans-serif; font-size: 13.3333px; font-weight: 200;" fill="rgb(50, 49, 63)" stroke="none" stroke-width="1px">0.4</text><text x="0" y="13.615384615384613" dx="0em" dy="0.3em" style="text-anchor: end; visibility: hidden; font-family: &quot;Helvetica Neue&quot;, sans-serif; font-size: 13.3333px; font-weight: 200;" fill="rgb(50, 49, 63)" stroke="none" stroke-width="1px">0.42</text><text x="0" y="0" dx="0em" dy="0.3em" style="text-anchor: end; visibility: hidden; font-family: &quot;Helvetica Neue&quot;, sans-serif; font-size: 13.3333px; font-weight: 200;" fill="rgb(50, 49, 63)" stroke="none" stroke-width="1px">0.44</text></g><line x1="53.1875" y1="0" x2="53.1875" y2="177" fill="rgb(0, 0, 0)" stroke="rgb(204, 204, 204)" stroke-width="1px"></line></g></g><g transform="translate(53, 0)" clip-path="url(#clip_0)"><clipPath id="clip_0"><rect width="276" height="176"></rect></clipPath><g><g><g><line x1="0" y1="0" x2="0" y2="177" fill="rgb(0, 0, 0)" stroke="rgb(60, 60, 60)" stroke-width="1px" opacity="0.25"></line><line x1="23.067708333333332" y1="0" x2="23.067708333333332" y2="177" fill="rgb(0, 0, 0)" stroke="rgb(60, 60, 60)" stroke-width="1px" opacity="0.25"></line><line x1="46.135416666666664" y1="0" x2="46.135416666666664" y2="177" fill="rgb(0, 0, 0)" stroke="rgb(60, 60, 60)" stroke-width="1px" opacity="0.25"></line><line x1="69.203125" y1="0" x2="69.203125" y2="177" fill="rgb(0, 0, 0)" stroke="rgb(60, 60, 60)" stroke-width="1px" opacity="0.25"></line><line x1="92.27083333333333" y1="0" x2="92.27083333333333" y2="177" fill="rgb(0, 0, 0)" stroke="rgb(60, 60, 60)" stroke-width="1px" opacity="0.25"></line><line x1="115.33854166666667" y1="0" x2="115.33854166666667" y2="177" fill="rgb(0, 0, 0)" stroke="rgb(60, 60, 60)" stroke-width="1px" opacity="0.25"></line><line x1="138.40625" y1="0" x2="138.40625" y2="177" fill="rgb(0, 0, 0)" stroke="rgb(60, 60, 60)" stroke-width="1px" opacity="0.25"></line><line x1="161.47395833333334" y1="0" x2="161.47395833333334" y2="177" fill="rgb(0, 0, 0)" stroke="rgb(60, 60, 60)" stroke-width="1px" opacity="0.25"></line><line x1="184.54166666666666" y1="0" x2="184.54166666666666" y2="177" fill="rgb(0, 0, 0)" stroke="rgb(60, 60, 60)" stroke-width="1px" opacity="0.25"></line><line x1="207.609375" y1="0" x2="207.609375" y2="177" fill="rgb(0, 0, 0)" stroke="rgb(60, 60, 60)" stroke-width="1px" opacity="0.25"></line><line x1="230.67708333333334" y1="0" x2="230.67708333333334" y2="177" fill="rgb(0, 0, 0)" stroke="rgb(60, 60, 60)" stroke-width="1px" opacity="0.25"></line><line x1="253.74479166666666" y1="0" x2="253.74479166666666" y2="177" fill="rgb(0, 0, 0)" stroke="rgb(60, 60, 60)" stroke-width="1px" opacity="0.25"></line><line x1="276.8125" y1="0" x2="276.8125" y2="177" fill="rgb(0, 0, 0)" stroke="rgb(60, 60, 60)" stroke-width="1px" opacity="0.25"></line></g><g><line x1="0" y1="177" x2="276.8125" y2="177" fill="rgb(0, 0, 0)" stroke="rgb(60, 60, 60)" stroke-width="1px" opacity="0.25"></line><line x1="0" y1="163.3846153846154" x2="276.8125" y2="163.3846153846154" fill="rgb(0, 0, 0)" stroke="rgb(60, 60, 60)" stroke-width="1px" opacity="0.25"></line><line x1="0" y1="149.76923076923077" x2="276.8125" y2="149.76923076923077" fill="rgb(0, 0, 0)" stroke="rgb(60, 60, 60)" stroke-width="1px" opacity="0.25"></line><line x1="0" y1="136.15384615384616" x2="276.8125" y2="136.15384615384616" fill="rgb(0, 0, 0)" stroke="rgb(60, 60, 60)" stroke-width="1px" opacity="0.25"></line><line x1="0" y1="122.53846153846152" x2="276.8125" y2="122.53846153846152" fill="rgb(0, 0, 0)" stroke="rgb(60, 60, 60)" stroke-width="1px" opacity="0.25"></line><line x1="0" y1="108.9230769230769" x2="276.8125" y2="108.9230769230769" fill="rgb(0, 0, 0)" stroke="rgb(60, 60, 60)" stroke-width="1px" opacity="0.25"></line><line x1="0" y1="95.3076923076923" x2="276.8125" y2="95.3076923076923" fill="rgb(0, 0, 0)" stroke="rgb(60, 60, 60)" stroke-width="1px" opacity="0.25"></line><line x1="0" y1="81.69230769230768" x2="276.8125" y2="81.69230769230768" fill="rgb(0, 0, 0)" stroke="rgb(60, 60, 60)" stroke-width="1px" opacity="0.25"></line><line x1="0" y1="68.07692307692305" x2="276.8125" y2="68.07692307692305" fill="rgb(0, 0, 0)" stroke="rgb(60, 60, 60)" stroke-width="1px" opacity="0.25"></line><line x1="0" y1="54.46153846153847" x2="276.8125" y2="54.46153846153847" fill="rgb(0, 0, 0)" stroke="rgb(60, 60, 60)" stroke-width="1px" opacity="0.25"></line><line x1="0" y1="40.84615384615384" x2="276.8125" y2="40.84615384615384" fill="rgb(0, 0, 0)" stroke="rgb(60, 60, 60)" stroke-width="1px" opacity="0.25"></line><line x1="0" y1="27.230769230769226" x2="276.8125" y2="27.230769230769226" fill="rgb(0, 0, 0)" stroke="rgb(60, 60, 60)" stroke-width="1px" opacity="0.25"></line><line x1="0" y1="13.615384615384613" x2="276.8125" y2="13.615384615384613" fill="rgb(0, 0, 0)" stroke="rgb(60, 60, 60)" stroke-width="1px" opacity="0.25"></line><line x1="0" y1="0" x2="276.8125" y2="0" fill="rgb(0, 0, 0)" stroke="rgb(60, 60, 60)" stroke-width="1px" opacity="0.25"></line></g></g></g><g><g><line x1="0" y1="299.53846153846155" x2="276.8125" y2="299.53846153846155" fill="rgb(0, 0, 0)" stroke="rgb(153, 153, 153)" stroke-width="1.5px"></line></g></g><g><g><line x1="23.067708333333332" y1="0" x2="23.067708333333332" y2="177" fill="rgb(0, 0, 0)" stroke="rgb(153, 153, 153)" stroke-width="1.5px"></line></g></g><g><g><g><g><g><path stroke="rgb(255, 112, 67)" stroke-width="2px" d="M23.067708333333332,36.12625979001706L25.374479166666664,86.53172555845543L27.681250000000002,108.88062980793559L29.988020833333334,119.37297624241128L32.29479166666667,126.18574398187218L34.6015625,131.09692893051053L36.90833333333333,136.41380478509635L39.21510416666666,138.06743065899744L41.521875,141.8756262250178L43.82864583333333,141.88077636338647L46.135416666666664,141.36492453002552L48.442187499999996,142.82337985077135L50.74895833333333,143.50129443020398L53.05572916666667,143.88443356338226L55.362500000000004,143.33394193932298L57.669270833333336,144.7754684149006L59.97604166666667,144.49757136270875L62.2828125,142.0327869661321L64.58958333333334,144.85360486598864L66.89635416666667,142.26717157333974L69.203125,143.24293161123305L71.50989583333335,141.1734433342943L73.81666666666666,141.974818171652L76.12343750000001,142.36152528431492L78.43020833333333,143.08987244977646L80.73697916666667,144.62268571526522L83.04375,146.82787889829729L85.35052083333333,147.2379918923486L87.65729166666667,148.85507120309452L89.9640625,148.12265150721998L92.27083333333333,148.78095219160735L94.57760416666667,148.8511740402811L96.88437499999999,146.68458630630124L99.19114583333334,147.70369471630286L101.49791666666665,145.533283647214L103.8046875,147.8444153436815L106.11145833333335,146.73697649707782L108.41822916666666,145.18703509861027L110.72500000000001,146.06087037596427L113.03177083333333,147.5462397362497L115.33854166666667,146.56431273730476L117.6453125,146.9210456927063L119.95208333333333,146.57892268939423L122.25885416666667,148.1202455016038L124.565625,146.9355542181163L126.87239583333333,145.58713739092818L129.17916666666667,145.31027302875773L131.4859375,145.5362482109281L133.79270833333334,144.07168075101114L136.09947916666667,144.73171724204008L138.40625,147.71396958741985L140.71302083333333,142.83883670948254L143.0197916666667,144.93527591003993L145.3265625,143.6996331702498L147.63333333333333,146.04691001564873L149.94010416666666,145.83847367096567L152.24687500000002,145.2771065183822L154.55364583333335,147.71725485264147L156.86041666666665,145.63626490286217L159.16718749999998,145.14228696697057L161.47395833333334,146.37905285975745L163.78072916666667,147.52665038381784L166.0875,151.66166786879424L168.3942708333333,150.16333624887898L170.70104166666667,150.48931311092775L173.0078125,151.4699353259018L175.31458333333333,151.96351929673193L177.6213541666667,151.65653965611372L179.928125,148.86110275426003L182.23489583333333,147.5059025168153L184.54166666666666,146.36092174937528L186.84843750000002,147.62588806398205L189.15520833333335,147.5630899929796L191.46197916666665,149.1277830361261L193.76874999999998,150.9965583728374L196.07552083333334,150.77687770857625L198.38229166666667,149.259839385294L200.6890625,148.62924957024805L202.9958333333333,151.36171736446133L205.30260416666667,150.31681727650107L207.609375,151.61175524683682L209.91614583333333,150.74747433501108L23.067708333333332,123.51243482249495L25.374479166666664,123.29458325021406L27.681250000000002,128.23453980138322L29.988020833333334,130.46182321557546L32.29479166666667,132.0219396870666L34.6015625,134.91790595481308L36.90833333333333,134.74468217139872L39.21510416666666,135.63801597193088L41.521875,139.36842770639228L43.82864583333333,140.48109625390478L46.135416666666664,142.35928796825988L48.442187499999996,144.02229768983653L50.74895833333333,142.30846513138508L53.05572916666667,139.88986131825396L55.362500000000004,140.6799038573837L57.669270833333336,141.87154060895696L59.97604166666667,141.905254691189L62.2828125,143.21189133987377L64.58958333333334,142.65026869236985L66.89635416666667,143.48137223463573L69.203125,144.75138678412878L71.50989583333335,143.97877122739814L73.81666666666666,146.31609650890405L76.12343750000001,147.3198080055768L78.43020833333333,148.6891718724506L80.73697916666667,145.14060114993788L83.04375,143.07307800368872L85.35052083333333,141.18131786197463L87.65729166666667,141.14607259119575L89.9640625,142.33767281597483L92.27083333333333,141.2808915333698L94.57760416666667,142.65752645321203L96.88437499999999,142.49497586335502L99.19114583333334,142.93525453939543L101.49791666666665,144.4495711326885L103.8046875,145.1215038530285L106.11145833333335,145.01644611573968L108.41822916666666,146.25985046197633L110.72500000000001,145.23291386818806L113.03177083333333,147.14663917284295L115.33854166666667,149.0662431824544L117.6453125,143.5681557634675L119.95208333333333,147.0941064755238L122.25885416666667,147.9349703398746L124.565625,148.93309749762722L126.87239583333333,148.10086429255898L129.17916666666667,147.05698352434308L131.4859375,147.0346937371147L133.79270833333334,150.83590203292522L136.09947916666667,148.26725759184023L138.40625,150.16161289329787L140.71302083333333,150.18944866876652L143.0197916666667,149.97102990259003L145.3265625,149.26149045227814L147.63333333333333,148.54948537688585L149.94010416666666,146.76610171689202L152.24687500000002,148.392142138101L154.55364583333335,147.4801807947216L156.86041666666665,149.11950225283582L159.16718749999998,150.33482726960102L161.47395833333334,150.62264235939858L163.78072916666667,148.30520588520795L166.0875,144.7981520513821L168.3942708333333,146.87955720261917L170.70104166666667,150.10339005301861L173.0078125,146.7863179509605L175.31458333333333,147.4007652882749L177.6213541666667,147.82495016836776L179.928125,148.9782884621996L182.23489583333333,149.47707816784083L184.54166666666666,150.20196659884303L186.84843750000002,148.64086991438145L189.15520833333335,148.45387359108466L191.46197916666665,148.238091743985L193.76874999999998,148.58206185204745L196.07552083333334,149.5031018430284L198.38229166666667,146.47319099353683L200.6890625,147.87915467398136L202.9958333333333,148.40968829958885L205.30260416666667,149.9872348878605L207.609375,149.31314978903467L209.91614583333333,150.78776450129212L212.2229166666667,149.73733481874024L214.5296875,145.9325282627073L216.83645833333333,146.52187724398775L219.14322916666666,147.5899774311385L221.45000000000002,147.07275467999864L223.75677083333335,145.39492724068836L226.06354166666665,147.44908201742075L228.37031249999998,145.66315480475126L230.67708333333334,147.34212712007735L232.98385416666667,148.12931016181255L235.290625,152.37325730447296L237.5973958333333,150.80323184264356L239.90416666666667,149.03245271014592L242.2109375,149.35480356046494L244.51770833333333,149.15647059203536L246.8244791666667,148.76440893877052L249.13125,148.3649395206293L251.43802083333333,147.94724604478876" style="fill: none;" fill="none"></path></g></g></g></g><g opacity="0.2"><g><g><g><path stroke="rgb(255, 112, 67)" stroke-width="2px" d="M23.067708333333332,36.12625979001706L25.374479166666664,120.40419855484595L27.681250000000002,133.99150104018358L29.988020833333334,134.34606293760814L32.29479166666667,137.2972084536002L34.6015625,139.7799837084917L36.90833333333333,146.30376234192113L39.21510416666666,141.2456861092494L41.521875,149.35331724698727L43.82864583333333,141.891032991501L46.135416666666664,140.32790519411748L48.442187499999996,145.77372517264806L50.74895833333333,144.8784137757925L53.05572916666667,144.66492799153696L55.362500000000004,142.21042476709073L57.669270833333336,147.72123896846404L59.97604166666667,143.92920596782977L62.2828125,136.98885362423383L64.58958333333334,150.6283279978312L66.89635416666667,136.9709185866209L69.203125,145.24134468115292L71.50989583333335,136.93452101028882L73.81666666666666,143.61639781181628L76.12343750000001,143.15371847611206L78.43020833333333,144.58198858682925L80.73697916666667,147.76293184436284L83.04375,151.34568892533963L85.35052083333333,148.0782050536229L87.65729166666667,152.1680631500024L89.9640625,146.62209911529834L92.27083333333333,150.12965685587662L94.57760416666667,148.9950425533148L96.88437499999999,142.24573690845415L99.19114583333334,149.79161994503093L101.49791666666665,141.08659380445113L103.8046875,152.5794125703665L106.11145833333335,144.46807878063277L108.41822916666666,142.01154670577782L110.72500000000001,147.85116654863725L113.03177083333333,150.5894349354964L115.33854166666667,144.55256011165105L117.6453125,147.65191314999873L119.95208333333333,145.8779877951512L122.25885416666667,151.27807748546968L124.565625,144.5083818940016L126.87239583333333,142.82452735304832L129.17916666666667,144.74303873227194L131.4859375,145.99922175132312L133.79270833333334,141.07110353158072L136.09947916666667,146.08398712139862L138.40625,153.82394998807172L140.71302083333333,132.85075960938747L143.0197916666667,149.2304196334802L145.3265625,141.16807243686455L147.63333333333333,150.8559650136874L149.94010416666666,145.41143335516637L152.24687500000002,144.12698844992198L154.55364583333335,152.71658314649875L156.86041666666665,141.37277329885043L159.16718749999998,144.13023461057588L161.47395833333334,148.91291468877057L163.78072916666667,149.87782579889665L166.0875,160.13341100857807L168.3942708333333,147.0935836617763L170.70104166666667,151.15716814536313L173.0078125,153.47901498583647L175.31458333333333,152.97476450525798L177.6213541666667,151.02760575826352L179.928125,143.13386617486293L182.23489583333333,144.72939471327342L184.54166666666666,144.01510749413416L186.84843750000002,150.21752636707745L189.15520833333335,147.43443053043805L191.46197916666665,152.33349561232785L193.76874999999998,154.82526881878192L196.07552083333334,150.3268002500901L198.38229166666667,146.15176086930128L200.6890625,147.33730946137354L202.9958333333333,156.95994406480054L205.30260416666667,148.1760463645825L207.609375,154.26479889337833L209.91614583333333,148.97675246688036L23.067708333333332,67.71381728465741L25.374479166666664,122.84825319968738L27.681250000000002,138.35542639402243L29.988020833333334,135.02503801538393L32.29479166666667,135.21827587256064L34.6015625,140.85110513751323L36.90833333333333,134.38978466391563L39.21510416666666,137.46826083155779L41.521875,147.0112224794351L43.82864583333333,142.76070986344263L46.135416666666664,146.2072905049874L48.442187499999996,147.42943955843265L50.74895833333333,138.79719842626497L53.05572916666667,134.9346730181804L55.362500000000004,142.29852759608855L57.669270833333336,144.31294273413144L59.97604166666667,141.9743274450302L62.2828125,145.88890301035L64.58958333333334,141.49962717065443L66.89635416666667,145.18412095537553L69.203125,147.3533678123584L71.50989583333335,142.39585155019392L73.81666666666666,151.1047629393064L76.12343750000001,149.37619253534535L78.43020833333333,151.49469784360664L80.73697916666667,137.8703586940582L83.04375,138.83717692356842L85.35052083333333,137.30551659602384L87.65729166666667,141.07386276813654L89.9640625,144.77900010576616L92.27083333333333,139.11577866169122L94.57760416666667,145.4779492158156L96.88437499999999,142.1619453865748L99.19114583333334,143.83728890006358L101.49791666666665,147.55207342138658L103.8046875,146.49814649957875L106.11145833333335,144.80120587348938L108.41822916666666,148.8073130249977L110.72500000000001,143.12894621262183L113.03177083333333,151.06744223603835L115.33854166666667,152.99909042165828L117.6453125,132.30378153920174L119.95208333333333,154.3180054953465L122.25885416666667,149.6577158180567L124.565625,150.97804094277896L126.87239583333333,146.39580114071185L129.17916666666667,144.91830097482756L131.4859375,146.9890268559639L133.79270833333334,158.6237434194638L136.09947916666667,143.00466898083687L138.40625,154.04273107189397L140.71302083333333,150.2464780624096L143.0197916666667,149.52353779627725L145.3265625,147.80779987115125L147.63333333333333,147.09074327120413L149.94010416666666,143.11234007202663L152.24687500000002,151.72354202545606L154.55364583333335,145.61177218877353L156.86041666666665,152.47811206946005L159.16718749999998,152.82476145029068L161.47395833333334,151.21231229947162L163.78072916666667,143.5572872551588L166.0875,137.61296858695837L168.3942708333333,151.14389946369025L170.70104166666667,156.70831589286144L173.0078125,139.9903653516219L175.31458333333333,148.65963300374838L177.6213541666667,148.6940118739238L179.928125,151.3412254544405L182.23489583333333,150.49898878427652L184.54166666666666,151.68710387211578L186.84843750000002,145.4425254876797L189.15520833333335,148.07075917262296L191.46197916666665,147.79600210602467L193.76874999999998,149.2867810978339L196.07552083333334,151.39011060503813L198.38229166666667,140.26556876531015L200.6890625,150.75966562903844L202.9958333333333,149.49663523985788L205.30260416666667,153.2192815565146L207.609375,147.93209739144032L209.91614583333333,153.8089263507953L212.2229166666667,147.58523498131677L214.5296875,138.13731483083504L216.83645833333333,147.7293239373427L219.14322916666666,149.77828025359372L221.45000000000002,146.01307879961453L223.75677083333335,141.95742712112573L226.06354166666665,151.65759424292125L228.37031249999998,142.00418197879424L230.67708333333334,150.7819728392821L232.98385416666667,149.74207541805046L235.290625,161.06817340163084L237.5973958333333,147.5865943110906L239.90416666666667,145.4045149752727L242.2109375,150.0152296928259L244.51770833333333,148.75012987622847L246.8244791666667,147.96116067354495L249.13125,147.54651437126674L251.43802083333333,147.09148380160332" style="fill: none;" fill="none"></path></g></g></g></g></g></g><g transform="translate(53, 177)" clip-path="url(#clip_1)"><clipPath id="clip_1"><rect width="276" height="22"></rect></clipPath><g><g><line x1="0" y1="0" x2="0" y2="5" style="visibility: inherit;" fill="rgb(0, 0, 0)" stroke="rgb(204, 204, 204)" stroke-width="1px"></line><line x1="23.067708333333332" y1="0" x2="23.067708333333332" y2="5" style="visibility: inherit;" fill="rgb(0, 0, 0)" stroke="rgb(204, 204, 204)" stroke-width="1px"></line><line x1="46.135416666666664" y1="0" x2="46.135416666666664" y2="5" style="visibility: inherit;" fill="rgb(0, 0, 0)" stroke="rgb(204, 204, 204)" stroke-width="1px"></line><line x1="69.203125" y1="0" x2="69.203125" y2="5" style="visibility: inherit;" fill="rgb(0, 0, 0)" stroke="rgb(204, 204, 204)" stroke-width="1px"></line><line x1="92.27083333333333" y1="0" x2="92.27083333333333" y2="5" style="visibility: inherit;" fill="rgb(0, 0, 0)" stroke="rgb(204, 204, 204)" stroke-width="1px"></line><line x1="115.33854166666667" y1="0" x2="115.33854166666667" y2="5" style="visibility: inherit;" fill="rgb(0, 0, 0)" stroke="rgb(204, 204, 204)" stroke-width="1px"></line><line x1="138.40625" y1="0" x2="138.40625" y2="5" style="visibility: inherit;" fill="rgb(0, 0, 0)" stroke="rgb(204, 204, 204)" stroke-width="1px"></line><line x1="161.47395833333334" y1="0" x2="161.47395833333334" y2="5" style="visibility: inherit;" fill="rgb(0, 0, 0)" stroke="rgb(204, 204, 204)" stroke-width="1px"></line><line x1="184.54166666666666" y1="0" x2="184.54166666666666" y2="5" style="visibility: inherit;" fill="rgb(0, 0, 0)" stroke="rgb(204, 204, 204)" stroke-width="1px"></line><line x1="207.609375" y1="0" x2="207.609375" y2="5" style="visibility: inherit;" fill="rgb(0, 0, 0)" stroke="rgb(204, 204, 204)" stroke-width="1px"></line><line x1="230.67708333333334" y1="0" x2="230.67708333333334" y2="5" style="visibility: inherit;" fill="rgb(0, 0, 0)" stroke="rgb(204, 204, 204)" stroke-width="1px"></line><line x1="253.74479166666666" y1="0" x2="253.74479166666666" y2="5" style="visibility: inherit;" fill="rgb(0, 0, 0)" stroke="rgb(204, 204, 204)" stroke-width="1px"></line><line x1="276.8125" y1="0" x2="276.8125" y2="5" style="visibility: inherit;" fill="rgb(0, 0, 0)" stroke="rgb(204, 204, 204)" stroke-width="1px"></line></g><g transform="translate(0, 8)"><text x="0" y="0" dx="0em" dy="0.95em" style="text-anchor: middle; visibility: hidden; font-family: &quot;Helvetica Neue&quot;, sans-serif; font-size: 13.3333px; font-weight: 200;" fill="rgb(50, 49, 63)" stroke="none" stroke-width="1px">-10</text><text x="23.067708333333332" y="0" dx="0em" dy="0.95em" style="text-anchor: middle; visibility: inherit; font-family: &quot;Helvetica Neue&quot;, sans-serif; font-size: 13.3333px; font-weight: 200;" fill="rgb(50, 49, 63)" stroke="none" stroke-width="1px">0</text><text x="46.135416666666664" y="0" dx="0em" dy="0.95em" style="text-anchor: middle; visibility: inherit; font-family: &quot;Helvetica Neue&quot;, sans-serif; font-size: 13.3333px; font-weight: 200;" fill="rgb(50, 49, 63)" stroke="none" stroke-width="1px">10</text><text x="69.203125" y="0" dx="0em" dy="0.95em" style="text-anchor: middle; visibility: inherit; font-family: &quot;Helvetica Neue&quot;, sans-serif; font-size: 13.3333px; font-weight: 200;" fill="rgb(50, 49, 63)" stroke="none" stroke-width="1px">20</text><text x="92.27083333333333" y="0" dx="0em" dy="0.95em" style="text-anchor: middle; visibility: inherit; font-family: &quot;Helvetica Neue&quot;, sans-serif; font-size: 13.3333px; font-weight: 200;" fill="rgb(50, 49, 63)" stroke="none" stroke-width="1px">30</text><text x="115.33854166666667" y="0" dx="0em" dy="0.95em" style="text-anchor: middle; visibility: inherit; font-family: &quot;Helvetica Neue&quot;, sans-serif; font-size: 13.3333px; font-weight: 200;" fill="rgb(50, 49, 63)" stroke="none" stroke-width="1px">40</text><text x="138.40625" y="0" dx="0em" dy="0.95em" style="text-anchor: middle; visibility: inherit; font-family: &quot;Helvetica Neue&quot;, sans-serif; font-size: 13.3333px; font-weight: 200;" fill="rgb(50, 49, 63)" stroke="none" stroke-width="1px">50</text><text x="161.47395833333334" y="0" dx="0em" dy="0.95em" style="text-anchor: middle; visibility: inherit; font-family: &quot;Helvetica Neue&quot;, sans-serif; font-size: 13.3333px; font-weight: 200;" fill="rgb(50, 49, 63)" stroke="none" stroke-width="1px">60</text><text x="184.54166666666666" y="0" dx="0em" dy="0.95em" style="text-anchor: middle; visibility: inherit; font-family: &quot;Helvetica Neue&quot;, sans-serif; font-size: 13.3333px; font-weight: 200;" fill="rgb(50, 49, 63)" stroke="none" stroke-width="1px">70</text><text x="207.609375" y="0" dx="0em" dy="0.95em" style="text-anchor: middle; visibility: inherit; font-family: &quot;Helvetica Neue&quot;, sans-serif; font-size: 13.3333px; font-weight: 200;" fill="rgb(50, 49, 63)" stroke="none" stroke-width="1px">80</text><text x="230.67708333333334" y="0" dx="0em" dy="0.95em" style="text-anchor: middle; visibility: inherit; font-family: &quot;Helvetica Neue&quot;, sans-serif; font-size: 13.3333px; font-weight: 200;" fill="rgb(50, 49, 63)" stroke="none" stroke-width="1px">90</text><text x="253.74479166666666" y="0" dx="0em" dy="0.95em" style="text-anchor: middle; visibility: inherit; font-family: &quot;Helvetica Neue&quot;, sans-serif; font-size: 13.3333px; font-weight: 200;" fill="rgb(50, 49, 63)" stroke="none" stroke-width="1px">100</text><text x="276.8125" y="0" dx="0em" dy="0.95em" style="text-anchor: middle; visibility: hidden; font-family: &quot;Helvetica Neue&quot;, sans-serif; font-size: 13.3333px; font-weight: 200;" fill="rgb(50, 49, 63)" stroke="none" stroke-width="1px">110</text></g><line x1="0" y1="0" x2="276.8125" y2="0" fill="rgb(0, 0, 0)" stroke="rgb(204, 204, 204)" stroke-width="1px"></line></g></g></g></g></svg>